<svg xmlns="http://www.w3.org/2000/svg" data-name="Layer 1" viewBox="0 0 100 125" x="0px" y="0px"><title>71 all</title><path d="M82,36.67a32,32,0,1,0-64,0V63.33a32,32,0,0,0,64,0Zm-32-29a29,29,0,0,1,29,29V47.83H68.51a21.39,21.39,0,1,0-37,0H21V36.67A29,29,0,0,1,50,7.67ZM79,63.83H21c0-.17,0-.33,0-.5V50.83H33.56a21.35,21.35,0,0,0,32.88,0H79v12.5C79,63.5,79,63.67,79,63.83Zm-57.77,3H55.87l-15.06,11H24.9A28.78,28.78,0,0,1,21.22,66.83Zm39.74,0H78.78a28.78,28.78,0,0,1-3.68,11H45.9ZM50,55.56A18.39,18.39,0,1,1,68.39,37.17,18.41,18.41,0,0,1,50,55.56Zm0,36.78a29,29,0,0,1-23.11-11.5H73.11A29,29,0,0,1,50,92.33Z"/><path d="M48.13,32.87A5.13,5.13,0,1,0,43,38,5.14,5.14,0,0,0,48.13,32.87Zm-7.27,0A2.13,2.13,0,1,1,43,35,2.14,2.14,0,0,1,40.87,32.87Z"/><path d="M57,27.74a5.13,5.13,0,1,0,5.13,5.13A5.14,5.14,0,0,0,57,27.74ZM57,35a2.13,2.13,0,1,1,2.13-2.13A2.14,2.14,0,0,1,57,35Z"/><path d="M55.85,41.8a1.5,1.5,0,0,0-1.5,1.5c0,1.93-2,3.5-4.35,3.5s-4.35-1.57-4.35-3.5a1.5,1.5,0,0,0-3,0c0,3.58,3.3,6.5,7.35,6.5s7.35-2.92,7.35-6.5A1.5,1.5,0,0,0,55.85,41.8Z"/></svg>
