<?xml version="1.0" encoding="UTF-8"?>
<svg width="39px" height="39px" viewBox="0 0 39 39" version="1.1" xmlns="http://www.w3.org/2000/svg" xmlns:xlink="http://www.w3.org/1999/xlink">
    <!-- Generator: Sketch 46.2 (44496) - http://www.bohemiancoding.com/sketch -->
    <title>Group 2</title>    
    <defs>
        <polygon id="path-1" points="18.8275 17.99995 18.8275 0.08945 0.2112 0.08945 0.2112 17.99995 18.8275 17.99995"></polygon>
        <polygon id="path-3" points="6.72271297e-21 0 6.72271297e-21 39 32 39 32 7.09637493e-15"></polygon>
    </defs>
    <g id="Design" stroke="none" stroke-width="1" fill="none" fill-rule="evenodd">
        <g id="Artboard" transform="translate(-97.000000, -25.000000)">
            <g id="Group-2" transform="translate(97.000000, 25.000000)">
                <g id="Page-1" transform="translate(43.000000, 6.000000)">              
                    <g id="Group-19" transform="translate(57.000000, 5.000000)">
                        <mask id="mask-2" fill="white">
                            <use xlink:href="#path-1"></use>
                        </mask>                                                
                    </g>
                </g>
                <g id="Page-1">
                    <mask id="mask-4" fill="white">
                        <use xlink:href="#path-3"></use>
                    </mask>
                    <g id="Clip-2"></g>
                    <path d="M21.210975,27.1302177 L21.210975,18.5162612 L10.7939854,18.5162612 L10.7939854,27.1302177 C10.7939854,27.2650448 10.7195784,27.3898848 10.6054875,27.4548015 C10.5459619,27.4897567 10.4814757,27.5047375 10.4219501,27.5047375 C10.3525035,27.5047375 10.2880174,27.4847631 10.2284917,27.4498079 L7.74825608,25.9517286 C7.6336692,25.8868118 7.56967912,25.7619718 7.56967912,25.6321383 L7.56967912,7.40550576 C7.56967912,7.20076825 7.73337467,7.03098592 7.94171446,7.03098592 L10.4219501,7.03098592 C10.6253294,7.03098592 10.7939854,7.20076825 10.7939854,7.40550576 L10.7939854,15.2704225 L21.210975,15.2704225 L21.210975,7.40550576 C21.210975,7.20076825 21.3746706,7.03098592 21.5830104,7.03098592 L24.063246,7.03098592 C24.2666253,7.03098592 24.4352814,7.20076825 24.4352814,7.40550576 L24.4352814,15.2704225 L28.7756937,15.2704225 L28.7756937,3.24583867 L3.22430631,3.24583867 L3.22430631,27.6195903 L16.3204464,35.6542894 L28.7756937,27.6395647 L28.7756937,22.7608195 C28.7756937,22.5560819 28.9443497,22.3862996 29.147729,22.3862996 L31.6279647,22.3862996 C31.8363044,22.3862996 32,22.5560819 32,22.7608195 L32,27.9491677 C32,28.8729834 31.5436366,29.7169014 30.7698031,30.2112676 L17.7629515,38.5755442 C17.3318865,38.8551857 16.8358394,39 16.3298713,39 C15.8437452,39 15.3625794,38.8651729 14.9409394,38.6104994 L1.27980158,30.2262484 C0.491086653,29.7418694 0,28.8629962 0,27.9341869 L0,2.6815621 C0,1.20345711 1.19497752,0 2.66377306,0 L29.3362269,0 C30.8045264,0 32,1.20345711 32,2.6815621 L32,18.1417414 C32,18.3464789 31.8363044,18.5162612 31.6279647,18.5162612 L24.4352814,18.5162612 L24.4352814,25.6321383 C24.4352814,25.7619718 24.3658348,25.8868118 24.2512479,25.9517286 L21.7710122,27.4498079 C21.7119826,27.4847631 21.6474965,27.5047375 21.5830104,27.5047375 C21.5185243,27.5047375 21.4540381,27.4897567 21.3994729,27.4548015 C21.2809177,27.3898848 21.210975,27.2650448 21.210975,27.1302177" id="Fill-1" fill="#E54146" mask="url(#mask-4)"></path>
                </g>
            </g>
        </g>
    </g>
</svg>