<?xml version="1.0" encoding="utf-8"?>
<!-- Generator: Adobe Illustrator 22.0.1, SVG Export Plug-In . SVG Version: 6.00 Build 0)  -->
<svg version="1.1" id="Layer_1" xmlns="http://www.w3.org/2000/svg" xmlns:xlink="http://www.w3.org/1999/xlink" x="0px" y="0px"
	 viewBox="0 0 800 457" style="enable-background:new 0 0 800 457;" xml:space="preserve">
<style type="text/css">
	.st0{fill:#193C48;}
	.st1{fill:#73342E;}
	.st2{fill:#79B4C9;}
	.st3{opacity:0.18;fill:#F29999;enable-background:new    ;}
	.st4{fill:#8C4743;}
	.st5{fill:#232837;}
	.st6{fill:#F2A978;}
	.st7{fill:#DE4154;}
	.st8{fill:#3B2D30;}
	.st9{fill:#F8D895;}
	.st10{fill:#F36B57;}
	.st11{fill:#F6CD73;}
	.st12{fill:#232938;}
	.st13{fill:#7AB3C8;}
	.st14{fill:#DD4054;}
	.st15{fill:#F2A878;}
	.st16{fill:#3192A4;}
	.st17{fill:#F2A979;}
	.st18{fill:#8E4B47;}
	.st19{fill:#F26C57;}
	.st20{fill:#6F342E;}
	.st21{fill:#3B2C30;}
	.st22{fill:#F6EEDB;}
	.st23{fill:#4688AA;}
	.st24{fill:#81844B;}
	.st25{fill:#7F8147;}
	.st26{fill:#7D8045;}
	.st27{fill:#7C7F44;}
	.st28{fill:#DD4153;}
	.st29{fill:#1B3D49;}
	.st30{fill:#F7D8DB;}
	.st31{fill:#F36F59;}
	.st32{fill:#914C48;}
	.st33{fill:#232937;}
	.st34{fill:#1F697A;}
	.st35{fill:#252A39;}
	.st36{fill:#242938;}
	.st37{fill:#82AF71;}
	.st38{fill:#797C40;}
	.st39{fill:#7E7F40;}
	.st40{fill:#7D7E40;}
	.st41{fill:#DB5061;}
	.st42{fill:#498AAC;}
	.st43{fill:#3C2D31;}
	.st44{fill:#F26B57;}
	.st45{fill:#EDA676;}
	.st46{fill:#3D2E31;}
	.st47{fill:#F37059;}
	.st48{fill:#F36E58;}
	.st49{fill:#2F303B;}
	.st50{fill:#924A47;}
	.st51{fill:#954745;}
	.st52{fill:#3F3A40;}
	.st53{fill:#EFC469;}
	.st54{fill:#1A2130;}
	.st55{fill:#74352E;}
	.st56{fill:#89534B;}
	.st57{fill:#D3CAC4;}
	.st58{fill:#F3D9CD;}
	.st59{fill:#EEBE62;}
	.st60{fill:#73352E;}
	.st61{fill:#4A8AAC;}
	.st62{fill:#F1A978;}
	.st63{fill:#78B3C8;}
	.st64{fill:#F2AA79;}
	.st65{fill:#F2A777;}
	.st66{fill:#F2D9CD;}
	.st67{fill:none;stroke:#F26B57;stroke-linecap:round;stroke-linejoin:round;stroke-miterlimit:10;}
	.st68{fill:#F36C57;}
</style>
<g>
	<path class="st0" d="M553.8,262.8c5.7,21.3,8.8,42.9,9.5,64.9c0,1.6,0.4,3.5,1.4,4.6c10.6,12,15.5,26.6,18.9,41.8
		c3.5,15.7,6.2,31.6,5.3,47.9c-1.6,3-4,2.5-6.5,1.7c-4.9-5.5-6.4-12.7-9.2-19.2c-19.4-44.5-37.8-89.5-55.5-134.7c-1-2.6-1.4-6-5-6.9
		c-8.9-0.4-16.8-2.9-23.1-9.7c-2.9-3.2-5.1-6.5-5.2-10.9c0.2-4,3.3-6.4,5.2-9.4c3.2-4.8,5.9-10.1,10.5-13.8c6.1-2.4,12.6-3,19.1-3.8
		c1.4,0.2,2.4,1.1,3.3,2c6.6,6.5,13.2,13,19.7,19.7c2.1,2.2,3.7,4.7,4.9,7.5c1.1,2.2-0.3,4.5,0,7
		C552.2,253.4,552.1,258.6,553.8,262.8z"/>
	<path class="st1" d="M200.1,304.8c-1.8-1.1-3.7-2.2-5.4-3.4c-7.1-4.9-8.3-14.9-2-20.7c12.6-11.6,25.5-22.9,38.4-34.2
		c2.8-2.5,6.4-3.8,10.2-2.9c2.4,0.6,4-0.3,6-1.4c3.2-1.7,6.6-2.9,10-4.4c4.8,0.1,2.8,3.5,2.7,5.8c-0.4,5.6,1.3,9.1,5.7,10.9
		c5.7,2.4,10.7-0.3,13.2-6.7c0.8-2,0.3-5.4,4.1-4.8c3.1,3.3,6.1,6.7,9.2,10c5.2,5,5.1,11.6,4.9,18c-0.2,4.4-1.5,8.8-2.1,13.3
		c-2.7,13.5-4.9,27.1-7.9,40.6c-0.4,1.1-1,2-2,2.7c-4.7,0.9-9.1-0.9-13.6-1.6c-5-0.9-10.1-1.6-14.9-3.1c-1.5-8.5-7.5-14-13.3-19.5
		c-0.1-4.9-4-8.7-4-13.6c2.3-7.1,5.7-13.8,8.2-20.8c-3.1,4.2-7.7,7-11.4,10.7c-2.4,2.2-4.6,4.8-7.3,6.6c-1.9,1.3-2.5,3-1.9,5.1
		c-3.3,7.6-8.7,13.7-13.9,20.1c-0.6,0.8-1.7,1-2.7,1c-2.7-2.1-5.4-4.2-8.1-6.3c0-3,2.3-4.7,3.8-6.8c2.7-3.9,5.7-7.6,8.9-12.6
		c-4,5.6-7.2,10.2-10.6,14.7C203,302.7,202.1,304.5,200.1,304.8z"/>
	<path class="st2" d="M256.3,321.8c9.6,1.7,19.1,3.5,28.7,5.2c4.2,9.1-1.2,25.7-9.5,29.2c-0.7-0.1-0.1,0.8-0.1,0.2
		c0-0.1,0.2-0.1,0.5-0.1c1,0,2,0.2,2.4,1.3c-1.2,2.2-3.3,2.1-5.2,2c-3.5-0.2-4.5,1.3-4.4,4.7c0.3,13.9-0.2,27.8,0.9,41.7
		c0.5,5.8,0.4,11.6,0,17.4c-0.2,4.2-0.9,8.4-5.3,10.5c-18.9,0.1-37.8,0.1-56.7,0.2c-8.1,0-16.2-0.1-24.4-0.2c-1.1-1-1.4-2.2-1.4-3.6
		c-0.1-6.3-0.1-12.5,0-18.8c0-1.4,0.5-2.6,1.4-3.6c17.5,0,34.9,0,52.7,0c0.1-1.6,0.4-2.7,0.3-3.8c-0.3-16.6-0.6-33.2-1.1-49.8
		c0-1.5-1-3-1.7-4.4c-1.3-3-2.8-5.9-4.1-8.9c4.8-1.7,9-5.5,13.3-6.7c7-1.8,9.3-6.5,12.3-11.5C255.1,322.3,255.6,321.9,256.3,321.8z"
		/>
	<path class="st3" d="M542.9,98.1c1.7-0.4,3.4-1,5.1-1c13.7-0.1,27.3,0,42.2,0c-1.6-1.7-2.6-2.9-3.7-4c-3.4-3.6-3.6-9.8-0.5-13.6
		c2.2-2.6,5-3.5,8.4-3.5c23,0.1,46,0,69,0.1c6.8,0,10.1,3.5,10.7,9.8c0.6,7.1-4.1,11-10.4,11.2c-10.7,0.2-21.3,0.1-32,0.1
		c-1.6,0-3.3,0-5.7,0c1.4,1.7,2.3,2.8,3.3,3.8c2.9,2.9,3.6,6.5,2.1,10.1c-1.7,4-4.6,7-9.4,7.1c-4.8,0.1-9.7,0-14.5,0
		c-19.5,0-39,0-58.5,0c-1.7,0-3.4-0.7-5.1-1c-0.8-0.8-1.1-1.8-0.8-2.7C544.5,108.8,541.9,103.5,542.9,98.1z"/>
	<path class="st3" d="M206.6,86c-14.1,0-28.3-0.1-42.4,0.1c-4.9,0.1-8.4-1.5-10.5-5.9c-2.1-4.5-1.7-8.5,1.8-12.2
		c1.1-1.1,1.6-2.8,2.2-4.3c5-13,14.1-20.9,28-23.8c15.5-3.2,33.7,6.6,38.9,21.3c1.1,3.1,3,4.2,6.4,4c6.3-0.3,12.6-0.1,19-0.1
		c9.9,0,11.6,6.3,11.1,12.9c-0.3,3.7-5.9,8.1-9.9,8.1C236.2,86,221.4,86,206.6,86z"/>
	<path class="st4" d="M610.9,433.1c-0.7-0.9-1.7-1.7-2-2.7c-1.8-6.1-3.5-12.3-5.2-18.4c0.3-2.6,2.6-2.8,4.4-3.3
		c11.4-3.3,22.9-6.6,34.5-9.5c2.3-0.6,4.6-0.6,6.9,0c13,3.3,25.9,6.8,38.7,10.9c0.5,0.3,0.9,0.7,1.1,1.2c-0.3,7-3.1,13.4-5.2,20
		c-0.6,2-2.3,3.2-4.6,3.2c-21.1,0-42.1,0-63.2,0C614.5,434.5,612.4,435.2,610.9,433.1z"/>
	<path class="st5" d="M302.8,221.1c-0.8,4.4-1.6,8.7-2.5,13.1c-0.9,4.2-2.5,5.2-6.7,4.5c-3.4-0.6-6.9-1.3-10.3-2
		c-11,1.9-18.5-4-17.4-13.6c0.1-1.3,1.6-2.8-0.3-3.9c-1.2,0.5-2.2,1.5-3.5,1.8c-0.8,0.6-1.6,1.1-3,2.1c-0.3-4.1-0.6-7.8-0.8-11.5
		c-0.4-6.6-0.6-13.3-1-19.9c-0.3-4.3,1.2-7.4,4.4-10.5c2.6-2.5,4.5-4,7.9-2.2c0.2,0.1,0.7,0,0.9-0.2c5.1-4.5,11.4-2.6,17.2-3.2
		c4.4-0.4,8.8-0.1,13.2-1.5c5.9-1.9,11,2.3,10.6,9.5c-0.3,5.6-0.8,11.5-3.8,16.7c-1.5-0.3-1.7-1.4-1.5-2.5c-7.8,5.7-14,0-21.4-3.7
		c0.6,6.5-6.1,9.6-5.4,15.8c1,8,5.8,11.7,13,10C296.1,218.5,299.7,217.7,302.8,221.1z"/>
	<path class="st6" d="M388,274c-1.7-3.6-3.5-6.5-8.3-7c-6.9-0.6-9.2-6.4-5.2-12.1c0.4-0.5,0.5-1.2,0.7-1.8c3-0.4,4.7-1.9,5-5
		c0.2-2,1.2-3.8,2.2-5.5c4.4-7.6,6.4-8,14.2-4c9,4.6,18.4,6.6,28.3,2.5c0.9-0.4,1.9-0.7,2.9-0.6c3.7,2.1,4.3,5.9,5.3,9.5
		c0.5,1.7,0.6,3.6,2.8,4.1c3.2,1.2,5.6,3.1,5.3,6.9c-0.3,4.1-2.7,6.9-6.6,7.7c-4,0.8-6.9,2.9-9.5,5.7c-2.6,2.9-5.8,4.8-9.6,5.9
		c-1.5,0.4-3.3,0.7-3.9,2.7c-0.5,3.5-2.4,5.8-6.1,6c-4.4,0.1-5.5-3.4-6.7-6.7c0.2-2.3,1.5-1.9,2.6-1.6
		C396,280.9,391.3,278.7,388,274z"/>
	<path class="st7" d="M483,185.3c1-0.7,2-1.4,2.9-2.2c0.7-3.9,3-6.8,6.1-9.2c1.3-1.4,2.7-2.8,4-4.2c0.4-0.2,1-0.5,1.4-0.3
		c3.5,2.2,6.3,2.3,8.1-2.1c0.4-1,1.5-1.1,2.6-0.7c4.5,0.7,9,1,13.3,2.3c2.5,0.8,4.4,3.2,6.6,4.9c-0.9,5.2-5.2,7.5-8.9,10.3
		c-1.4,0.1-2.4-0.7-2.5-1c2.1,3.9,4.8,8.6,6.7,13.8c0.5,3.9-0.6,7.6-0.9,11.4c-0.2,3.5-2.9,4.5-5.7,5.3c-4.3,1.5-8.9,1.5-13.2,2.9
		c-8.7-0.5-9.7-1.2-10.8-7.8c3.2-3.9,8.2-3.9,12.3-5.7c-4.6,1.6-9.3,2.8-14,4.2c-2.4,0.2-4.6-0.7-6.7-1.6c-6.1-4.6-7.3-9.7-3.7-16.3
		C481.4,188.1,481.8,186.5,483,185.3z"/>
	<path class="st6" d="M256.3,321.8c-2,3.8-3.8,7.7-6.1,11.3c-0.6,1-2.9,1.9-3.6,1.5c-2.5-1.3-3.8-0.1-5.1,1.5
		c-3.2,4.1-7.4,5.4-12.4,4.9c-7.5-4-10.5-10-8.5-18.4c0.3-1.2-0.8-3.1-1.8-4c-2.7-2.3-5.8-4.2-8.7-6.3c5.3-7.1,10.7-14.2,16-21.3
		c2.6-0.6,4.3,1.3,6.1,2.6c4.1,3,8.5,5.6,11.9,9.5c1.4,1.2,2.6,2.5,4.1,3.4C253.8,310.1,256.9,314.9,256.3,321.8z"/>
	<path class="st8" d="M294,283.7c0.3-3.4,0.4-6.8,1.1-10.1c1.4-6.3,0-12.1-2-17.9c-0.3-0.9-0.7-1.9-1.1-2.8c5,2.5,10.1,4.9,15.1,7.5
		c9,4.7,17.8,9.7,26.8,14.4c1.5,0.8,3.5,0.9,5.2,1.4c2.6,1.3,2.6,3.8,2.2,6c-0.8,4.8-0.7,9.5-0.8,14.3c-0.1,6.2-0.9,6.8-9.1,6.8
		c-2.6,0.1-4.9-0.6-7.2-1.9c-8.8-5-18-9.4-26.9-14.4C295.9,286.3,294.3,285.7,294,283.7z"/>
	<path class="st6" d="M494.8,158c-6.8,0.6-11.9-3.1-16.8-7c-4.9-2.2-6.1-7-6.9-11.5c-1.8-9.4,1.4-17.3,8.6-23.6
		c1.3-1.1,2.7-2.1,4.5-1.2c0.5,0.4,1,1,1.2,1.6c3.5,11.4,8,10.3,17.4,10.1c1.2,0,2.3-0.3,3.4-0.5c6.4-0.9,7.2-0.5,10.2,5
		c2.1,0.7,5.2-1.3,6.5,2c3,5.1,1.6,9.3-3.9,11.9c-1.2,0.6-2.7,0.9-3.3,1.9c-2.8,4.7-7.2,7.5-11.8,10.2
		C501.1,159.4,498.2,160.3,494.8,158z"/>
	<path class="st3" d="M302.6,65c6.8,0,13.6,0,20.5,0c5.9,0,10.9,4.7,10.9,10c0,6.2-4.7,11-11,11c-13.5,0-27-0.2-40.4,0.1
		c-8.4,0.2-13.5-9-10.6-14.6c2-3.8,5.3-6.5,9.7-6.5C288.6,65,295.6,65,302.6,65z"/>
	<path class="st6" d="M553.8,262.8c-1.6-3-3.2-5.9-5-9.1c-3.8,0.5-4.2,0-3.1-4.2c0.4-1.4,0.4-2.9,0.6-4.3c0.2-8.9-2.3-17.4-3-26.2
		c-0.5-7.3-3.3-12.8-9.1-17.4c-4.3-3.4-7.9-7.6-11.6-11.6c-0.6-0.8-1.1-1.7-1.1-2.8c2.4-3.9,5.3-7.3,9.6-9.3
		c7.5,7.1,15,14.2,22.3,21.4c1.2,1.2,2.2,3.1,2.5,4.7c2.7,17.2,5.2,34.4,7.7,51.6c0.5,3.7-2.6,7.1-6.5,7.4
		C556.1,263,554.9,262.9,553.8,262.8z"/>
	<path class="st1" d="M428,241c-9.1,5.3-21.5,5.8-38.3-4.6c-5.6,4.2-7,6.9-9.5,18.3c-1.7-0.5-3.3-1.1-4.9-1.6
		c-0.6-3.1-1.6-6.1-1.8-9.3c-0.4-5.8,2.9-9,10.5-10.6c-1.7-0.9-2.9-1.6-4.1-2.3c0-0.3,0.1-0.7,0.1-1c1.7,0,3.3,0,5.3,0
		c0.3-1.3,0.7-2.7,1.1-4.1c0.4,0,0.9-0.1,1.3-0.1c0.4,1.5,0.7,3.1,1.2,5c1.3-1.9,2.3-3.8,3.8-5.2c2.5-2.4,5-5.1,8-6.4
		c6.4-2.8,10.7-0.4,13,6.7c4.1-2,8.1-5.3,12.8-3c2.2,1.1,3.9,3.3,5.8,5c2.8,2.3,1.7,5.2,1.2,8C431.9,237.9,430.8,240.3,428,241z"/>
	<path class="st9" d="M542.9,98.1c2.6,6.2,2.7,12.5,1,18.8c-3.8,8.2-10,13.3-18.9,15c-1-1.3-1.3-2.7,0-4c0.4-0.4,1.1,0.8,1.7-0.5
		c2.8-7.4,1.2-15.6-4.3-19.9c-5.4-4.3-13.2-4.2-19.8,0.2c0.5,0.6,1.5,0.8,1.6,1.8c-0.9,1.5-2,1.3-3.2,0.5c-2.8-0.2-2.5-2.5-2.3-4.1
		c0.8-7.8,4.8-13.7,11.5-17.6c12-6.8,25.5-2.1,31.3,7.7C541.9,96.8,542.5,97.4,542.9,98.1z"/>
	<path class="st10" d="M388,274c0.9,0.4,1.9,0.7,2.7,1.2c1.8,1.2,3.3,2.8,5.3,3.6c1.9,0.8,4.2,1,6.5,1.5c-1.3,0.7-2.3,1.2-3.4,1.8
		c-0.9,2.8-2.8,4.3-5.6,3.2c-3.7-1.4-6,0.2-8,3c-1.4,2-3.2,3.8-4.7,5.7c-2.2,2.9-4.2,5.8-6.6,8.5c-1.5,1.7-3.1,2.9-5.4,3
		c-4.9,0.4-9.9,0.3-14.8,0.2c-1.9,0-4,0-5.1-2.1c2.7-6.6,1.3-13.6,2.6-20.4c0.4-2.1,0.1-4.3,1.6-6c7.1,0.3,14.2,0.4,21.2,0.9
		C379.4,278.4,384,277.3,388,274z"/>
	<path class="st10" d="M432.9,236c-0.2-2.7-0.5-5.4-0.7-8.1c3.3-1.4,6.8-2.5,10-4.1c7.1-3.6,14.1-7.4,21-11.3c1.6-0.9,3.1-2.5,4.2-4
		c4.4-6.8,8.6-13.8,12.9-20.7c0.6-1,1.8-1.6,2.7-2.4c-0.3,1.4-0.3,2.9-1,4.1c-3.7,6.9-2.9,11,3.2,15.7c-1.3,7.3-5,13.8-10.8,17.7
		c-10.6,7.1-22.3,12.3-33.7,18.2c-1,0.5-2.2,0.8-3.4,0.6C435,240.4,433.7,238.5,432.9,236z"/>
	<path class="st9" d="M522.8,133c-2.6-0.1-5.2-0.1-8.5-0.2c-0.2-1.1-0.4-3.2-0.7-5.6c-2.3,0-4.6-0.1-6.9,0c-4.4,0.2-9,1.1-13.3,0.5
		c-2.4-0.3-5.1-2.4-6.5-4.5c-1.6-2.3-2-5.5-3-8.3c-0.5-0.6-1.6-0.9-1-2c6-0.7,12-1.4,18-2.1c2.3-0.3,4.3-1.8,6.5-2.1
		c6.5-0.8,11.9,1.8,15.5,7.1c3.2,4.8,4.2,10.1,0.1,15.1C523,131.7,522.9,132.4,522.8,133z"/>
	<path class="st11" d="M483,113c0.3,0.7,0.6,1.3,1,2c-9.7,4.4-13.9,16.8-11.3,25c1.2,3.9,3.5,7.4,5.4,11c-6.1,2.1-11.8,1.6-16.6-3
		c-4.6-4.5-5.4-10.1-3.8-16.1C460.5,121.2,469.7,112.6,483,113z"/>
	<path class="st6" d="M302.8,221.1c-3.6-0.9-7.2-2-10.8,0c-1.3,0.3-1.9-0.7-2.1-1.6c-1.1-5.4-4.9-7.6-9.9-8.3
		c-0.8-0.1-1.5-0.6-2.2-1.1c-0.1-3.3-0.2-6.5,3.2-8.7c1.2-0.8,1.4-3.1,1.9-4.8c0.5-1.5,0.9-2.9,1.3-4.4c1.4,0.7,2.8,1.4,4.3,2
		c3.4,1.5,6.7,3.4,10.3,4.2c2.7,0.6,6,0.4,7.6-3.3c0.4,1.9,0.8,3.5,1.1,5c-0.9,3.1-2.4,6.2-2.5,9.3s1.1,6.3,1.8,9.8
		C305.7,219.8,304.2,220.5,302.8,221.1z"/>
	<path class="st0" d="M599.3,404.2c-2-2.1-0.4-2.9,1.4-3.4c4-1.2,8-2.3,12-3.5c9.1-2.7,18.2-5.4,27.3-8c0.9-0.3,2-0.2,2.9-0.3
		c2.5-1.2,1.6-3.4,1.6-5.3c0.3-9.6-0.5-19.2,0.5-28.8c0.8-1.9,2-3.1,4.4-3c5.4,0.1,10.8-0.4,16.2-0.3c5.9,0.1,6.6,0.9,8.4,6.4
		c-0.4,0.3-0.8,0.6-1.3,0.6s-1-0.2-1.4-0.3c-0.7-0.3-1.4-0.7-2-1c-5.3-2.1-10.8-1.8-16.3-1.7c-2.8,0.1-4.3,1.5-4.3,4.4
		c-0.1,7.7-0.1,15.3,0,23c0,2.5,1.2,4.1,3.5,4.9c11.6,3.9,23.6,6.6,35.2,10.4c1.3,0.4,2.6,0.7,3.8,1.2c1.5,0.7,3.3,1.4,3.2,3.3
		c-0.1,2.5-2.3,2.3-4.1,2.6c-9.7-1.8-18.9-5.2-28.4-7.8c-3.2-0.9-6.4-1.7-9.7-2.6c-1.3-0.3-2.7-0.8-3.8,0.2c-1.9,1.7-3.5,1.4-5.3,0
		c-1.3-1-2.9-0.5-4.3-0.1c-9.9,2.9-19.9,5.5-29.8,8.6C605.7,404.8,602.6,405.3,599.3,404.2z"/>
	<path class="st4" d="M599.3,404.2c5.6-1.4,11.2-2.6,16.8-4.1c9.1-2.5,18.1-5.2,27.2-7.8c0.8,1.2,1.5,2.4,2.6,4.2
		c0.8-1.7,1.3-2.7,1.9-4.2c4.5,1.2,9,2.4,13.6,3.7c9.5,2.7,19.1,5.4,28.6,8c0.7,0.4,1.4,0.8,1.7,1.5c1,2.5,3.3,1.9,5.2,1.9
		c3.5,0.1,7,0,10.5,0.1c1.8,0.1,3.7-0.1,5,1.7c0.2,1,0.1,1.8-0.8,2.4c-7.6,1.4-15.1,2.3-22.6-0.6l-0.1-0.1c-8-3.8-16.9-4.6-25-7.9
		c-12.5-5-24.7-4.2-37.1,0.4c-6,2.2-12.3,3.7-18.6,5.3c-1.7,0.5-3.5,1.3-5.3,0.3C602,407.2,601.9,404.7,599.3,404.2z"/>
	<path class="st6" d="M262.1,220.9c1-1,2-2,3-3c2.7,0.6,1.4,2.5,1.1,3.9c-1.6,9.2,0.1,12,9.2,14.8c2.2,0.7,4.5,1.2,6.5,2.4
		c0.3,1.3,0.6,2.6,0.9,4c-3,0.6-2.1,3.4-2.7,5.2c-1.6,5.2-5.7,8.8-10.7,8.8c-4.7,0-9.6-3.3-10.7-8.1c-0.6-2.3,0.1-4.9,0.1-7.3
		c0-1.5,1.1-3.5-1.6-3.8c0.9-0.8,2.5-1.5,2.7-2.4C260.7,230.6,261.3,225.7,262.1,220.9z"/>
	<path class="st12" d="M691,405c-0.3-0.3-0.7-0.6-1-1c1.2-0.2,2.4-0.3,3.7-0.5c0.1-0.4,0.2-0.7,0.3-1.1c-1.2-0.6-2.3-1.4-3.5-1.7
		c-11.2-3.3-22.4-6.5-33.6-9.8c-1.7-0.5-3.3-1.3-4.9-2c2.7-2.3,6-1.7,9.1-1.7c8,0,8.3-0.2,8.4-8.4c0-5.3-0.1-10.6,0-15.9
		c0-2.1-0.2-4.4,1.7-6c0.3,0.3,0.6,0.7,0.9,1c1.2,9.9,0,19.8,0.5,27.7c0.5-7.9-0.7-17.9,0.5-27.7c0.3,0,0.6,0,0.9,0
		c0,9.9,0,19.9,0,30.1c12,3.5,23.6,6.8,35.2,10.2c1,0.2,2,0.4,3,0.7c1.5,1.7,1.4,3.6,0.5,5.6c-0.9,1.3-2.3,1.9-3.8,1.9
		C702.8,406.3,696.7,408.2,691,405z"/>
	<path class="st8" d="M353,277c-0.3,7.8-0.7,15.7-0.9,23.5c0,1.9-0.8,2.6-2.5,2.7c-2.5,1.7-5,1.5-7.6,0.3c-1.7-1.2-2-2.9-1.8-4.8
		c0.8-5.2,0.2-10.5,0.8-15.7c0.7-6.9,0.5-7,7.4-6.3C349.8,276.9,351.4,276.9,353,277z"/>
	<path class="st13" d="M181,433.8c-3.3,0-6.5,0-9.8,0.1c-0.9-0.8-1.6-1.8-1.6-3c0.1-7-1.9-14.2,1.4-21c0.4-0.7,0.8-1.3,1.2-2
		c0.9-0.5,1.8-0.8,2.6,0c2,0,4.1,0.1,6.1,0.1c2.2,6,0.7,12.1,1,18.2C182.1,428.7,182.8,431.5,181,433.8z"/>
	<path class="st14" d="M602.9,409c13.8-3.8,27.7-7.6,41.5-11.3c1.3-0.4,2.9-0.1,4.3,0.2c12.1,3.2,24.2,6.6,36.3,9.9
		c1.6,0.5,3.8,0.4,3.9,3c-6.2-1.6-12.5-3.1-18.7-4.8c-7.2-1.9-14.4-4-21.6-5.8c-1.7-0.4-3.7-0.4-5.4,0.1c-11.5,3.1-23,6.3-34.5,9.5
		c-1.7,0.5-3.3,1.3-5,2C603.5,411,603.2,410,602.9,409z"/>
	<path class="st15" d="M171,409.8c0.1,8,0.1,16,0.2,24.1c-4.4,0-8.8,0.1-13.1,0.1c2.6-8,5.1-15.9,7.7-23.9
		C167.5,410,169.3,409.9,171,409.8z"/>
	<path class="st16" d="M597.8,432c-0.9,0.7-1.7,1.9-2.6,1.9c-5.7,0.1-11.5,0-17.2-0.1c-0.5-4.4,1.3-7.9,4.4-10.8
		c2.1-0.3,4.2-0.7,6.4-1C591.8,425.3,594.8,428.7,597.8,432z"/>
	<path class="st17" d="M508,166.8c-0.7,0.6-1.7,1.1-2,1.8c-2.1,5.3-4.4,5.9-8.4,2.1c-0.4-0.4-1.1-0.6-1.7-0.9c0-2.3,0.1-4.5,0.1-6.8
		c2.2-2.2,4-5.1,7.9-4c0.3,1.2,1,2.5,0.9,3.7C504.8,165.1,506,166.1,508,166.8z"/>
	<path class="st18" d="M174.9,407.8c-0.9,0-1.8,0-2.6,0c6.7-16.6,15.9-33.6,20.4-36.2C186.4,384.2,180.6,396,174.9,407.8z"/>
	<path class="st19" d="M281.9,239c-5.7-0.2-11.2-1.1-15.3-5.3c-2.4-2.5-3.3-6-2.1-9.8c0.6-1.9,0.4-4,0.6-6c0.6-0.7,1.3-1.3,1.9-2
		c0.3,0.1,0.7,0.2,1,0.2c-0.2,2-0.1,4-0.5,6c-1.4,7.3,1.2,11.4,8.5,13c2.4,0.5,4.8,1,7.2,1.5C282.8,237.4,282.3,238.2,281.9,239z"/>
	<path class="st20" d="M348.3,276.8c-1.8,0.1-3.6,0.3-6.3,0.4c0,2.2,0.1,4.5,0,6.7c-0.3,5.2-0.7,10.4-0.9,15.7
		c0,1.1,0.5,2.2,0.8,3.3c-4.6,2.7-8.9,2.5-12.2-0.7c1.5-0.1,3-0.1,4.5-0.2c1.3-0.1,2.6-0.1,4.2-0.2c0.2-1.2,0.4-2.3,0.5-3.4
		c0.4-5.3,0.8-10.6,0.9-15.8c0.1-2.1-0.5-4.2-0.8-6.3C342.1,276.4,345.2,276.6,348.3,276.8z"/>
	<path class="st21" d="M200.1,304.8c5.2-7,10-14.3,16.3-20.4c-3.5,8.1-9,14.9-14.4,21.7C201.3,305.6,200.7,305.2,200.1,304.8z"/>
	<path class="st22" d="M523.1,131.1c4.1-13.6-4.2-22.8-18.2-20.3c-1.3,0.2-2.6,0.1-3.9,0.1c0-0.3,0-0.6,0-0.9c1-0.3,2.1-0.7,3.1-1
		c5.9-3.1,12.7-1.8,18,3.4c5.2,5,6.4,10.1,3.8,15.4c-0.3,1.4-0.6,2.7-0.8,4.1C524.4,131.7,523.8,131.4,523.1,131.1z"/>
	<path class="st23" d="M181,433.8c0-8.6,0-17.3,0-25.9c0.7,0,1.4,0,2.1,0c0,8.6,0,17.3,0,25.9C182.4,433.8,181.7,433.8,181,433.8z"
		/>
	<path class="st24" d="M203.9,371.6c-3.1,5-5,5.7-9.8,4C195.4,370.6,198.4,369.3,203.9,371.6z"/>
	<path class="st25" d="M188.8,385.7c3.3-5,4.8-5.6,9.9-3.9C197,386.9,194.4,388,188.8,385.7z"/>
	<path class="st26" d="M198.6,359.5c1.3,5.5,0.4,7.3-4.8,9.3C192.1,363.6,193.3,361.2,198.6,359.5z"/>
	<path class="st25" d="M193.1,392.5c-2.8,5.4-4.6,6-10,4C185.4,391.6,187.1,390.9,193.1,392.5z"/>
	<path class="st27" d="M180,371c3.9,4.6,4,6.1,1.4,10.8C177.1,379.1,176.6,376,180,371z"/>
	<path class="st26" d="M187.1,372.6c-4.1-3.5-4.4-5.6-1.4-10.3C190,365.4,190.4,368.3,187.1,372.6z"/>
	<path class="st27" d="M174.1,382.8c3.9,4.1,4.1,6.3,1,10.4C171,390,170.6,387.2,174.1,382.8z"/>
	<path class="st28" d="M531.2,177.9c-3,3.1-6.1,6.1-9.1,9.2c-1.6,0.4-2.2-0.6-2.4-2c3-3.5,5.2-8,10.3-9.1
		C530.4,176.7,530.8,177.3,531.2,177.9z"/>
	<path class="st29" d="M645,354.9c0,10,0.1,19.9,0,29.9c0,1.6,0.9,3.9-2.1,4.1c0.4-1.5,1.2-3,1.2-4.5c0.1-8.4,0.1-16.9,0.2-25.3
		C644.2,357.7,644.7,356.3,645,354.9z"/>
	<path class="st30" d="M530,176.1c-3.3,3.1-6.6,6.2-10,9.3c-0.8-0.1-1.3-0.5-1.3-1.4c3.1-3.3,6.1-6.7,9.2-10
		C528.6,174.7,529.3,175.4,530,176.1z"/>
	<path class="st31" d="M504,159c-2.6,1.3-5.3,2.7-7.9,4c-0.4-1.6-0.8-3.3-1.2-4.9c3-0.3,6-0.7,9.1-1C503.9,157.7,504,158.3,504,159z
		"/>
	<path class="st32" d="M492,174c-2,3.1-4,6.1-6.1,9.2c-0.6-0.5-1.7-1.4-1.6-1.6C486.3,178.5,487.2,174.2,492,174z"/>
	<path class="st33" d="M308.1,434c-3.4-0.8-6.8-1.5-10.6-2.4c1.9-4.5,3.8-9.1,5.7-13.6c0.7-0.5,1.4-1.1,2.2-1.1
		c8.4,0.3,16.8,1.3,25,3.4c0.6,0.2,1,0.9,1.3,1.4c4.7,3.8,9.5,7.7,14.2,11.5c-7.2,0.1-14.4,0.2-21.6,0.3c-2.3,0-4.5,0-6.8,0.1
		c-1.6,0-3.3,0-4.9,0.1C311.2,433.8,309.7,433.9,308.1,434z"/>
	<path class="st34" d="M493.7,433.9c5-3,10-6.1,15-9.2c0.8-0.5,1.5-1.1,2.3-1.7c1.9-1.8,4.3-2,6.8-1.8c4.2,3.2,6.6,7.3,6.4,12.7
		c-9.7,0.1-19.5,0.2-29.2,0.3C494.6,434.1,494.1,434,493.7,433.9z"/>
	<path class="st35" d="M415,424c2.4,3.3,4.8,6.6,7.1,9.9c-6.4-0.1-12.7-0.2-19.1-0.3c-1.9-1.6-2.2-3.7-2.2-6
		c0.4-2.3,0.9-4.5,3.3-5.6C408.1,421,411.7,421.7,415,424z"/>
	<path class="st36" d="M402,427.9c0.3,1.9,0.7,3.9,1,5.8c-6,0.1-12,0.2-18.1,0.3c1.4-3.3,2.8-6.6,4.1-9.9c3.6-2.6,7.5-1.9,11.4-0.9
		C402.6,424.2,401,426.5,402,427.9z"/>
	<g>
		<path class="st37" d="M144.8,432.9c-1.4,0.4-2.8,1.1-4.2,1.1c-43,0-86,0-129,0c-0.2,0-0.3,0-0.5-0.1c-0.1-0.7-0.1-1.3-0.2-2
			c-0.6-7.9,2.4-11,10.8-10.4c-0.4-2.6-0.7-5.2-1-7.8c-1.2-10,7.1-14.9,15.1-13c4.8,1.2,6.2,2.1,12.1,7.6c0.4-4,0.8-8.2,1.2-12.4
			c-0.6-0.9,0.1-1.7,0.3-2.6c1.5-2.9,3.1-5.7,6-7.3c0.4-0.3,0.8-0.5,1.2-0.6c0.4-0.2,0.9-0.2,1.3-0.1c3.3-1,6.6-2,10.5-3.2
			c3.2-10.7,10.5-17.8,22.4-18.7c8-0.6,13.4,4,16.6,11.4c4.6-1.7,8.9-3.9,13.9-2.1c4.8,1.8,7.4,5.2,8.2,9.7
			c4.8-1.2,9.1-2.7,13.6-3.4c7.4-1.1,15,5.5,12,14.8c-0.4,1.2-0.6,2.5-1,4c6.2,1.7,11.6,4.1,11,11.9c-2.4,1.2-3.6-1-5.2-1.8
			c-1.9-1-3.5-2.6-5.7-2.9c-1.7,0.8-1.7,2.5-2,3.8c-1.7,6.3-3.1,12.6-4.8,18.9C147,429.6,146.8,431.7,144.8,432.9z"/>
		<path class="st38" d="M95.5,415.7c7.3-4.7,12.4-5,16.7-1.1c3.4,3,4.1,5.5,2.6,8.8c-1.7-2.5-3.1-5.5-5.3-7.5
			c-3-2.8-6.8-1.8-9.6,0.4c-2.4,1.9-4,4.9-6.8,8.4c0.4-7.2-0.4-13.2-7.9-14.6c-4.9-1-9.8,1.1-11.7,5.6c-1.2,2.9-1.8,6.8-0.8,9.5
			s4.3,4.5,6.9,7.1c-5.2,0.4-8.7-2.8-10.1-8.6c-1.4-5.8,2.9-12.7,9.1-15.4C84.5,405.6,92,408.2,95.5,415.7z"/>
		<path class="st39" d="M137.4,400.4c0.7,6-1.3,8.7-7.6,10.2C128.1,404.3,131.1,400.3,137.4,400.4z"/>
		<path class="st40" d="M47.4,418.4c3.6,2,4.3,4.5,3.4,7.8C46.6,424.7,46.5,424.6,47.4,418.4z"/>
	</g>
	<path class="st5" d="M513.1,262.2c-6,18.2-11.9,36.3-17.9,54.4c-2,6-3.9,12-6.1,17.9c-0.9,2.4-0.3,4.5,0.5,6.7
		c9.1,25.2,18.2,50.3,27.2,75.5c0.6,1.7,0.8,3.5,1.2,5.3c-2.3,0.3-4.7,0.6-7,1c-14.4-17.1-27.3-35.2-36-56
		c-4.1-9.9-6.2-20.1-5.2-31.1c0.8-9.2,0-18.6,0.5-27.9c0.8-17.1,2.5-34.2,7.9-50.6c1.7-5.3,4.5-10.3,6.9-15.4
		c2.5,9.7,9.2,15.2,18.2,18.2c1.7,0.6,3.6,0.5,5.3,0.9C510.1,261.3,511.6,261.8,513.1,262.2z"/>
	<path class="st41" d="M516,213c1.6,0.6,4.9-0.7,3.7,3.2c-6.5,1.3-13.1,2.5-19.6,3.8c-0.4-0.7-0.8-1.3-1.2-2.1
		c1.7-0.8,3.2-1.4,4.6-2.1C507.7,214.8,511.9,213.9,516,213z"/>
	<path class="st42" d="M310.9,396c5.2-11.9,10.4-23.7,15.6-35.6c0.5-1.2,1-2.4,1.9-4.4c-17.2,0.4-33.7,0.8-50.2,1.2
		c-1.5-0.1-2.9-0.2-5.2-0.4c8.9-4.3,11-11.5,11.1-19.9c0-3.3,0.6-6.5,0.9-9.8c0.2-0.6,0.4-1.2,0.6-1.8c5.5-1.4,11.3-1.4,16.8-1.5
		c16.3-0.3,32.6-0.8,48.8-1.2c5.8-0.1,11.3,1.1,14.6,6.7c0.8,7.6,2.2,15.3-0.8,22.8c-6.7,14.7-13.4,29.5-20.1,44.2
		c-1.8,4-3.8,8-5.7,12c-1.3,0.8-2.5,0.5-3.8,0c-7.3-3-14.5-6.5-21.8-9.5C312.4,398.2,311.3,397.4,310.9,396z"/>
	<path class="st43" d="M239.8,289.1c-1.6-3.3-3.3-6.6-4.9-10c4.6-4.4,9.2-8.8,13.8-13.2c0.4,0.2,0.7,0.4,1.1,0.7
		C246.5,274.1,243.1,281.6,239.8,289.1z"/>
	<path class="st1" d="M712.1,411c0,3.9,0,7.9,0,11.8c-0.5,3.5-0.4,7.3-3.3,10c-2.6,0.4-5.1,1-7.7,1.1c-6.7,0.1-13.4,0-20.2,0
		c1.3-3.1,2.8-6.2,3.9-9.4c1.5-4.5,2.8-9,4.1-13.5C696.7,411,704.4,411,712.1,411z"/>
	<path class="st44" d="M277.9,210.1c7.5-0.1,11.8,2.3,13,7.4c0.3,1.2,0.7,2.4,1.1,3.7C285,223.3,278.7,218.3,277.9,210.1z"/>
	<path class="st45" d="M269.8,210.6c-4.5-2-6.3-4.8-5.2-8c1-2.8,3-3.6,7.3-2.5C271.3,203.6,270.6,207.1,269.8,210.6z"/>
	<path class="st46" d="M437.2,241.3c-0.7,4.6-1.5,9.2-2.2,13.8c-1.8,0.9-2.4,0.2-2.9-1.7c-1.1-4.2-2.7-8.2-4.1-12.3
		c1.7-1.7,3.3-3.3,5-5C434.4,237.8,435.8,239.5,437.2,241.3z"/>
	<path class="st47" d="M425.2,266.1c-1.5-2.3-3-3.7-3-5c0-1,2-2.8,3.1-2.8c1.2,0,3.2,1.8,3.2,2.7
		C428.4,262.5,426.8,263.8,425.2,266.1z"/>
	<path class="st48" d="M390.2,265.4c-1.5-2.2-2.7-3.3-3.1-4.6c-0.6-2,0.8-3.3,2.6-3.5c2-0.2,3.7,1,3.3,3.3
		C392.7,262,391.6,263.1,390.2,265.4z"/>
	<path class="st49" d="M399.8,261c5.2,3.2,9.9,3.4,15.6,0.2C410.9,266.9,403.3,266.7,399.8,261z"/>
	<path class="st50" d="M523.3,189.1c-0.4,2.3-0.8,4.6-1.2,6.9c-2.7-5-5.5-9.9-8.2-14.9c0.2-0.2,0.5-0.4,0.7-0.6
		c1.4,1.2,2.8,2.3,4.2,3.5c0.4,0.5,0.9,0.9,1.3,1.4c0.7,0.6,1.4,1.1,2,1.7C522.5,187.8,522.9,188.4,523.3,189.1z"/>
	<path class="st51" d="M492.8,209.1c-0.6-0.8-1.3-1.5-1.9-2.3c0.2-0.4,0.4-1.2,0.6-1.3c4.8-1,9.6-1.9,14.7-2
		C501.7,205.4,497.3,207.2,492.8,209.1z"/>
	<path class="st31" d="M511.3,140.4c-1.9,1.5-3.3,3.3-4.2,3.1c-1.2-0.3-2.6-2-2.8-3.2c-0.1-0.8,1.7-2.8,2.7-2.8
		C508.1,137.5,509.3,139,511.3,140.4z"/>
	<path class="st48" d="M478.8,139.9c2.3,1.6,4.3,2.8,2.2,5.6c-1.3,1.7-2.9,1.7-4.2,0.3C474.8,143.3,476.7,141.7,478.8,139.9z"/>
	<path class="st52" d="M499,139.8c-1,5.7-5.4,7.9-11.6,5.6C492.2,144.5,496.6,144.1,499,139.8z"/>
	<path class="st53" d="M525.9,127.9c0.3-9.6-2.8-15.4-10.6-18c-3.4-1.1-7.5-0.6-11.2-0.8c-1.1-0.1-2.3-0.2-3.5-0.3
		c4.8-7,14.6-8.1,22.5-2.8c6.8,4.5,8.3,15.5,3.3,23.3C526.2,128.8,526,128.3,525.9,127.9z"/>
	<path class="st6" d="M380,293c2,1.9,3.8,4,6.1,5.5c2.6,1.6,3.9,3.7,3.8,6.7c-3.5-0.9-5.8,0.5-8,3.2c-3.1,4-5.8,7.7-5.1,13.3
		c0.6,4.4,0.1,8.9,0,13.4c-0.1,3.5,0,6.9,2.3,9.9c1.3,1.6,1.9,3.6-1,4.7c-0.6,0.2-1.2,1.3-1.2,2.1c-0.2,3.2-1.7,5.6-4.9,5.9
		c-3,0.3-5.3-1.3-6.2-4.5c-0.1-0.4-0.5-0.8-0.8-1.2c0-7.6,0-15.2,0-22.8c0.3-4.1,0.9-8.2,0.7-12.3c-0.1-4,0.4-7.5,3.4-10.5
		c0.5-0.5,0.5-1.5,0.7-2.2c3-3.2,6-6.4,8.9-9.7C379.2,294,379.6,293.5,380,293z"/>
	<path class="st54" d="M673,358c0,9.7,0,19.4,0,29.2c-0.3,0-0.7,0-1,0c0-9.7,0-19.5,0-29.2C672.3,358,672.7,358,673,358z"/>
	<path class="st55" d="M712.2,404c0,1.7,0,3.4-0.1,5c-7.2,0-14.3,0-22.2,0c0.5-1.7,0.8-2.9,1.1-4c5.5,0,11,0,16.5-0.1
		C709,404.9,710.6,404.3,712.2,404z"/>
	<path class="st56" d="M708.9,432.9c1.1-3.3,2.2-6.7,3.3-10c0.2,0.9,0.7,1.9,0.4,2.7c-0.9,3.4,0.6,6,2.6,8.4
		C713.1,433.6,711,433.2,708.9,432.9z"/>
	<path class="st2" d="M731.8,393.4c0-2.4-0.8-5.3-2.3-6.9c-2.1-2.3-2.8-3.9-1.8-6.9c1.1-3.3-0.2-4.4-3.8-4.6c-2-0.1-4-0.1-6-0.1
		c-0.4,1.2-1.3,2.5-1.1,3.6c0.6,3.5-0.1,6.3-2.7,9c-1.4,1.5-1.4,4.3-1.8,6.5c-0.3,1.6-0.1,3.3-0.2,4.9c0.1,1.7,0.1,3.3,0.1,5
		c0.3,1.6-2.4,3.3-0.1,5c0,0.7,0,1.3,0,2c-2.1,3.9-0.3,8-1,12c0.5,4-1.3,8.9,4.1,11c0.3,0,0.5,0.1,0.8,0.2c4.6-0.1,9.2-0.1,13.8-0.1
		c0.7-2.6,2-5.1,2-7.6C732.1,415.4,732,404.4,731.8,393.4z M729.7,408c-4.2,0-8,0-11.7,0c-0.4-7-3.3-14,0-21c0.9-1.6,1.8-3.3,3-5.6
		c1.2-0.2,3.4-1.6,3.4,2.4c0,1,1.5,2,2.1,3.1c1.1,2,2.9,3.9,3.1,6C730.1,397.7,729.7,402.6,729.7,408z"/>
	<path class="st57" d="M718,387c0,3.1,0,6.3,0,9.4c0,0.7-0.3,1.6,0.1,2c2.6,3.3,1.1,6.4,0,9.6c-2,0.2-3.1-0.5-3-2.7
		c0.1-4.3,0.1-8.7,0-13C714.9,389.9,715.8,388.1,718,387z"/>
	<path class="st8" d="M415.8,351.3c-1.2,0-2.5-0.1-3.7-0.1c-1.3,0.6-2.6,0.4-3.9,0.3c-2-0.1-4.7,0.9-5.3-2.2c-0.6-3-1.2-6.4,1.9-8.1
		c4.4-2.4,8.1-5.6,11.2-9.3c2.1,0.7,2.5,2.1,3,3.5c0.1,5.2,2.1,10.5-0.2,15.7l0.1-0.1C417.9,351,416.9,351.2,415.8,351.3z"/>
	<path class="st58" d="M404.1,411.8c3.6,0.3,7.1,0.6,10.7,0.9c0,3.8,0.1,7.5,0.1,11.3c-3.7-0.3-7.3-0.6-11-0.9
		C401.6,420.1,401.6,416.2,404.1,411.8z"/>
	<path class="st59" d="M424.9,298.9c-2.6,0.7-5.3,1.4-7.9,2.2c-0.3-2.7-0.6-5.4-1.1-8.1s-1.3-5.3-1.9-7.9c3.2-0.3,5.3,1.2,6.6,4
		C422.1,292.3,423.5,295.6,424.9,298.9z"/>
	<path class="st60" d="M417.8,334.9c-0.4-0.7-0.8-1.4-1.3-2.3c-2.4,5.3-6.8,8.1-12.3,9.9c0,2.6,0,5.2,0,8.2c2.7,0.2,5.3,0.3,7.9,0.4
		c-2.7,0.3-5.3,0.6-8,0.9c-1,0.8-2.1,1.3-3.4,1.3c-4,0-8.1,1.2-11.7-1.5c-0.8-0.1-1.6-0.2-2.9-0.3c0-9.5,0-19.1,0-28.7
		c1.4-0.4,2.8-1.1,4.1-1c8.8,0.7,17.5,1.5,26.5,2.3c0.3,1.3,0.7,2.6,1,3.8C420,330.4,419.9,332.6,417.8,334.9z"/>
	<path class="st61" d="M307.5,407.9c-0.2-1.1-1-2.4-0.7-3.3c0.8-2.3,2.1-4.4,3.2-6.6c4-0.2,7,2.4,10.4,3.7c5,1.8,9.5,4.5,14.4,6.4
		c1.3,0.5,3.5,0.5,3.2,3c-0.9,2.1-1.7,4.3-2.9,6.3c-0.5,0.8-2,1.1-3.1,1.6C323.3,416.6,315,413.1,307.5,407.9z"/>
	<path class="st62" d="M307.5,407.9c8.2,3.7,16.4,7.3,24.7,11c-0.1,1-0.2,1.9-0.4,2.9c-9.5-1.3-19-2.5-28.5-3.8
		C304.6,414.6,306,411.3,307.5,407.9z"/>
	<path class="st63" d="M338.1,411c-9.3-4.3-18.7-8.7-28-13c0.3-0.7,0.6-1.4,0.9-2c9.4,4.1,18.9,8.1,28.3,12.2
		C338.8,409.1,338.4,410.1,338.1,411z"/>
	<path class="st64" d="M399.9,413c1.2-6.5,0.2-13.1,0.6-19.7c0.1-2.8-0.5-5.6,0.4-8.4c0-11,0-21.8,0-32.8c-3.9-0.1-7.9-0.1-11.8-0.1
		c0,19.9,0,39.9,0,60c3.1,4.1,7,2.7,10.8,1.6c0,0,0,0,0,0C399.9,413.4,399.9,413.2,399.9,413z"/>
	<path class="st65" d="M408,381.9c-0.3-2.4,0.9-4.2,3.4-4.3c2.4-0.1,3.7,1.7,3.6,4.3c-0.1,2.8-1.6,5.3-3.6,4.9
		C408.9,386.4,407.9,384.6,408,381.9z"/>
	<path class="st10" d="M398,382.3c0,2.2,0.1,4.6-3,4.6c-3.1,0.1-3.1-2.2-3.1-4.5s0.1-4.5,3.2-4.4C397.9,378.2,398.1,380.2,398,382.3
		z"/>
	<path class="st66" d="M400.9,384.9c0,8.2,0.1,16.3,0.1,24.5c0,1.2-0.7,2.4-1,3.6c0-7.6,0-15.2,0.1-22.9
		C400.1,388.4,400.6,386.6,400.9,384.9z"/>
	<ellipse transform="matrix(0.9881 -0.1535 0.1535 0.9881 -14.7241 75.6885)" class="st0" cx="482.8" cy="133.2" rx="3" ry="3.7"/>
	<ellipse transform="matrix(0.9881 -0.1535 0.1535 0.9881 -14.5511 77.5281)" class="st0" cx="494.8" cy="133" rx="2.8" ry="3.5"/>
	<path class="st46" d="M401,255.4L401,255.4c-1.4,0-2.6-1.2-2.6-2.6v-2.9c0-1.4,1.2-2.6,2.6-2.6l0,0c1.4,0,2.6,1.2,2.6,2.6v2.9
		C403.6,254.3,402.4,255.4,401,255.4z"/>
	<path class="st46" d="M418,254.6L418,254.6c-1.4,0-2.6-1.2-2.6-2.6v-2.2c0-1.4,1.2-2.6,2.6-2.6l0,0c1.4,0,2.6,1.2,2.6,2.6v2.2
		C420.5,253.4,419.4,254.6,418,254.6z"/>
	<path class="st46" d="M295.2,207.3L295.2,207.3c-1.3-0.5-2-2-1.6-3.3l0.7-2c0.5-1.3,2-2,3.3-1.6l0,0c1.3,0.5,2,2,1.6,3.3l-0.7,2
		C298,207.1,296.5,207.8,295.2,207.3z"/>
	<path class="st67" d="M301.4,228.6c0,0-9.3,0-11-2.8"/>
	<path class="st68" d="M433.8,319.9c0-1.1-0.1-2.4-0.6-3.4c-2.7-5.9-5.5-11.7-8.3-17.6c-3.3-1.7-5.6,0.1-7.9,2.2c0.3,3,0.5,6,0.8,9
		c3.5,6.1,5,12.5,4.5,19.6c-0.4,5-0.3,10,0,14.9c0.2,3-0.7,5.1-3.3,6.4c-0.8,2.9,0.5,4.3,2.7,4.3c1.3,2.5,1.9,5.1,3.5,6.4
		c1.2,1,3.8,0.9,5.5,0.3c2.6-0.9,3.4-3.4,3.3-6.1C433.9,343.8,433.9,331.9,433.8,319.9z"/>
	<path class="st9" d="M417.3,315.3c0-1.7,0.4-3.5,0.6-5.2c0.3,0.4,0.5,0.9,0.7,1.4c0-0.4,0.1-0.9,0.2-1.3c-0.1-3.1-0.3-6.2-0.5-9.3
		c-0.5-3-0.8-5.9-1-8.9c-0.2-2.7-0.6-5.4-3.3-6.8c-1.3-1.1-2.6-2.1-4-3.2c0.3,3.2-1,5.5-4.3,6s-4.6-1.7-5-4.6
		c-0.1-0.5-1.2-0.8-1.8-1.2c-1.3,1-2.6,1.9-3.8,2.8c-5-2.7-6.4-2.5-9.9,1.6c-1.8,2.1-3.5,4.4-5.2,6.6c-0.6,2.3,1.3,3.2,2.6,4.3
		c2.9,2.2,5.7,4.4,7.3,7.9c-1.3,5.9-2.5,11.9-3.8,17.8c1,0.6,2.2,0.5,3.4,0.6c9.5,0.9,19.2,0.3,28.2,4.1
		C417.6,323.5,417.3,319.4,417.3,315.3z"/>
	<path class="st10" d="M415.8,351.3c-0.9-1.6-2.5-1.4-4.1-1.2c-2.6,1.1-5.8-0.3-8.1,2c0.2,0,0.4,0,0.6,0c0.5,8.3,1.4,16.6,1.5,24.9
		c0.1,8.5-0.6,16.9-1,25.4c-0.1,3.1-0.4,6.3-0.5,9.4c0,0.2,0,0.4,0,0.6c3.5,1.7,6.9,2,10.6,0.4c0.7-11.9,1.6-23.8,1.9-35.7
		C416.9,368.5,416.1,359.9,415.8,351.3z"/>
	<path class="st66" d="M389.1,411.9c0,4.1,0,8.1-0.1,12.2c3.9,0.1,7.9,0.1,11.8,0.2c-0.3-3.8-0.6-7.5-0.9-11.3
		C396.3,412.6,392.7,412.3,389.1,411.9z"/>
	<path class="st33" d="M136.3,438.8c7.9-15.7,15.8-31.1,24-47.4c3.6,6.2,6.8,11.7,9.9,17.3c0.1,0.4,0.3,0.6,0.5,0.8
		c0.3,0.6,0.7,1.4,0.3,2c-6,12-11.6,24.5-20.7,33.5c-3.6-1.1-7.3-2.1-10.8-3.3C138.5,441.2,137.4,439.8,136.3,438.8z"/>
</g>
</svg>
