<?xml version="1.0" encoding="utf-8"?>
<!-- Generator: Adobe Illustrator 22.0.1, SVG Export Plug-In . SVG Version: 6.00 Build 0)  -->
<svg version="1.1" id="Layer_1" xmlns="http://www.w3.org/2000/svg" xmlns:xlink="http://www.w3.org/1999/xlink" x="0px" y="0px"
	 viewBox="0 0 1369 549" style="enable-background:new 0 0 1369 549;" xml:space="preserve">
<style type="text/css">
	.st0{fill:#1D3CD6;}
	.st1{clip-path:url(#SVGID_2_);fill:#FF80C9;}
	.st2{fill:#FF80C9;}
	.st3{clip-path:url(#SVGID_4_);fill:#1D3CD6;}
	.st4{fill:#6FD877;}
	.st5{fill:#E03620;}
	.st6{clip-path:url(#SVGID_6_);fill:#FF80C9;}
	.st7{clip-path:url(#SVGID_8_);}
	.st8{clip-path:url(#SVGID_10_);fill:#1D3CD6;}
</style>
<g>
	<defs>
		<rect id="SVGID_7_" y="42.6" width="1369" height="506.4"/>
	</defs>
	<clipPath id="SVGID_2_">
		<use xlink:href="#SVGID_7_"  style="overflow:visible;"/>
	</clipPath>
	<g style="clip-path:url(#SVGID_2_);">
		<g id="F9R9hj.tif_1_">
			<g>
				<path class="st0" d="M874.6,423.5c0.6-0.9,1.4-1.3,2.4-0.7c0.2,0.1,0.4,0,0.7-0.1c1.4-0.3,2.8-0.3,4.2-0.6
					c0.3-0.1,0.8,0.4,1.3,0.6c1.5-1.1,1.6-1.1,3.2,0.3c0.2,0.1,0.5,0.2,0.7,0.1c0.8-0.6,1.3-0.1,1.9,0.4c0.3,0.3,0.7,0.5,1.1,0.7
					c0.6,0.5,1.1,0.9,1.8,1.6c0.7-0.1,1.2,0.4,1.6,1.3c0.1,0.3,0.6,0.5,0.8,0.7c0.4,0.3,0.7,0.7,1,1c0.4,0.4,0.8,0.8,1.1,1.2
					c0.3,0.4,0.7,0.8,0.8,1.2c0.2,0.6,0.4,1.2,1.1,1.3c0.1,0,0.3,0.2,0.4,0.3c0.8,1.1,1.7,2.2,2.5,3.3c0.2,0.2,0.6,0.4,0.9,0.5
					c0.7,0.2,1.5,0.4,2.2,0.4c1,0,2.1,0.1,3.1-0.1c1.3-0.3,2.7-0.8,3.9-1.3c0.5-0.2,0.9-0.9,1.4-1.3c0.2-0.2,0.5-0.4,0.6-0.6
					c0.3-0.7,0.6-1.4,1-2c0.6-0.8,1.2-1.8,2.1-2.2c1-0.5,2.2-0.7,3.4-0.6c2.1,0.1,4.2,0.5,6.2,0.8c0.2,0,0.4,0,0.6-0.1
					c1.8-0.6,3.1-0.3,4.4,1.3c0.8-0.5,1.1,0,1.6,0.6c0.8,1,1.6,1.8,3,2.2c1.6,0.4,3.1,1.2,4.7,1.7c0.3,0.1,0.7,0.3,1,0.4
					c0.8,0.3,1.7,0.5,2.4,0.8c1.2,0.5,1.4,1.7,0.7,2.7c-0.3,0.4-0.6,0.8-1,1.3c-0.1-0.3-0.1-0.4-0.2-0.8c-0.2,0.4-0.3,0.7-0.5,0.9
					c-0.1-0.1-0.1-0.1-0.2-0.2c0-0.3-0.1-0.5-0.2-1c-0.3,0.3-0.5,0.5-0.7,0.7c-0.3-0.6-0.6-0.6-1.1-0.4c-0.3,0.2-0.8,0.8-1-0.1
					c-0.5,0.2-1,0.4-1.5,0.6c-0.1-0.1-0.2-0.3-0.3-0.6c-0.2,0.3-0.4,0.6-0.7,1c0-0.5,0.1-0.8,0.1-1.2c-0.2,0.3-0.4,0.4-0.4,0.4
					c-0.5-0.2-0.9-0.4-1.2-0.4c-0.4,0-0.7,0.3-1,0.5c0.1,0.1,0.1,0.2,0.2,0.3c0.2-0.1,0.3-0.3,0.5-0.5c0,0.3,0,0.6,0.1,0.9
					c0.2-0.2,0.4-0.4,0.7-0.6c-0.1,0.4-0.2,0.7-0.3,1.1c0.3-0.2,0.5-0.3,0.7-0.4c0,0.2,0.1,0.4,0.1,0.7c0.2-0.1,0.3-0.2,0.5-0.4
					c0,0.2,0.1,0.4,0.1,0.5c0.9,0.2,1.8,0.4,2.6,0.5c0-0.1,0.1-0.2,0.1-0.3c0.1,0.3,0.2,0.5,0.3,0.9c0.2-0.3,0.3-0.5,0.5-0.8
					c0.1,0.3,0.2,0.5,0.3,0.9c0.2-0.2,0.3-0.4,0.7-0.9c0,0.9,0.2,1.6,0,2.2c-0.2,0.8-1.6,1.3-2.5,1.1c-0.8-0.2-1.6-0.4-2.4-0.7
					c-2.9-1.1-5.9-1.8-9-1.8c-1.1,0-2.3-0.4-3.4-0.4c-0.9,0-2-0.1-2.7,0.4c-3.2,2.2-6.8,3.3-10.5,4.4c-2.6,0.8-4.4,2.7-5.9,4.9
					c-1.2,1.8-2.3,3.7-4,5.1c-0.2,0.2-0.3,0.4-0.4,0.7c-0.1,0.2,0,0.4-0.1,0.6c-1.1,2.7-0.2,5.1,1.3,7.4c0.7,1.1,0.7,2.2,0.1,3.3
					c-0.7,1.3-1.4,2.7-2.1,4c-1,1.7-3,2.3-4.7,1.5c-0.4-0.2-0.9-0.4-1.6-0.7c1-0.2,1.7-0.4,2.4-0.5c0-0.1,0-0.2,0-0.3
					c-0.7-0.3-1.4-0.6-2.1-0.7c-0.9-0.3-1.9-0.4-2.8-0.6c-0.8-0.2-1.3-0.6-1.2-1.3c1,0,2.1,0.3,3,0c1.8-0.6,2.4-2.3,3.2-3.8
					c0.1-0.2,0-0.5-0.1-0.7c-0.5-1-1-1.9-1.5-2.9c-0.3-0.7-0.7-1.3-1-2.1c-1.4,0.4-3,0.8-4.5,1.2c0,2.3,0.1,4.6,0,6.8
					c-0.1,1.5-0.5,2.9-0.8,4.4c-0.5,2.6-1.3,5.1-1.6,7.7c-0.2,1.7-0.1,3.6,0.4,5.3c0.4,1.5,1.3,2.9,2.2,4.3c0.2,0.3,1.1,0.3,1.6,0.2
					c2.2-0.3,4.4-0.1,6.4,0.9c1,0.5,1.7,1.5,2.6,2.3c-0.1,0.1-0.1,0.2-0.2,0.3c-0.3-0.1-0.7-0.2-1-0.3c-1.2-0.3-2.3-0.3-3.5,0.3
					c-1.1,0.5-2.5,0.6-3.7,0.8c-1.4,0.1-2.9,0.1-4.4,0c-0.9,0-1.3-0.8-1.6-1.6c-0.9-2.6-1.7-5.3-2.6-7.9c-0.4-1.1-0.5-2.3-1.7-3.1
					c-0.3-0.2-0.4-1.1-0.3-1.6c0.5-2.4,0.5-4.7-0.3-7.1c-0.7-2.3-0.7-4.6,0.3-6.9c0.3-0.6,0.1-1.1-0.4-1.5c-1.1-0.9-2.3-1.7-3.5-2.7
					c-1.2,3.4-4.1,5.3-6.4,7.6c-1,1-2.2,1.3-3.5,1.6c-4.3,0.8-8.1-1.1-12.1-2.1c-0.4-0.1-0.9-0.2-1.4-0.3c-0.7-0.1-1.1,0.2-1.6,0.7
					c-1.8,1.6-2.2,4-3.1,6c-0.4,0.8-0.1,1.4,0.5,1.9c0.8,0.7,1.9,1.3,2.5,2.2c0.8,1.2,1.6,2.6,1.4,4.2c0,0.2-0.2,0.3-0.4,0.6
					c-0.2-0.4-0.3-0.7-0.5-0.9c-0.5-0.6-1-1.4-1.6-1.6c-2-0.7-3.4-2.2-4.8-3.6c-0.3-0.3-0.6-0.6-1-0.9c-0.9-0.7-1-1.3-0.5-2.3
					c1.5-2.7,3.1-5.4,4.6-8.1c0-0.1,0.1-0.1,0.1-0.2c1.2-2.6,1.2-2.5,3.9-2.4c2,0,3.9-0.4,5.9-0.5c1.6,0,3.2,0.1,4.8,0.3
					c0.8,0.1,1.1,0,1.2-0.7c0.2-1.8,0.5-3.6,0.6-5.4c0-0.2-0.3-0.6-0.5-0.7c-3-1.8-6.2-2.6-9.6-1.8c-5,1.3-10,2.5-14.8,4
					c-5.6,1.7-11,3.9-16.6,5.6c-4.6,1.4-9.2,2.6-13.9,3.5c-4.1,0.8-8.3,0.8-12.5,0.4c-1.3-0.1-2.7-0.2-4-0.4c-0.3,0-0.5-0.4-0.7-0.6
					c0.3-0.2,0.6-0.4,0.9-0.5c0.4-0.1,0.8-0.1,1.2-0.2c0.7-0.1,1.4-0.3,2-0.4c0.6-0.1,1.1-0.1,1.8-0.2c0.4-0.1,0.8-0.2,1.2-0.3
					c0.2,0,0.4,0,0.6,0c0.4,0,0.9,0,1.4-0.1c0.4-0.2,0.8-0.4,1.2-0.5c0.8-0.2,1.5-0.3,2.3-0.5c0.7-0.2,1.3-0.4,2-0.6
					c0.8-0.2,1.6-0.4,2.3-0.6c0.2-0.1,0.4-0.2,0.6-0.3c0.2-0.1,0.5-0.2,0.7-0.3c0.2-0.1,0.5-0.2,0.7-0.4c0.2-0.1,0.5-0.3,0.7-0.4
					c0.5-0.2,0.9-0.3,1.3-0.6c0.8,0.2,1.3-0.2,1.6-0.9c0.7,0.3,1.2,0.4,1.6-0.4c0.1-0.2,0.7-0.2,1.3-0.3c0.1-0.2,0.2-0.4,0.4-0.8
					c0.7,0.4,1.3,0.4,1.5-0.6c0.8,0.3,1.4,0.2,1.5-0.7c0.4,0.1,0.7,0.1,1,0.2c0.2-0.3,0.3-0.6,0.5-0.9c0.3,0.1,0.7,0.1,1,0.2
					c0.1-0.3,0.2-0.6,0.3-1c0.6,0,1.3,0.2,1.5-0.7c0-0.1,0.6-0.1,0.9-0.2c0.1-0.3,0.2-0.6,0.3-0.9c0.4,0,0.7,0.1,1.1,0.1
					c0.1-0.8,0.4-1.4,1.2-1.2c0.4-0.2,0.9-0.3,1.3-0.6c0.3-0.2,0.6-0.6,1-1c0.5,0.1,1.2,0.2,1.3-0.9c0-0.1,0.7-0.1,1.3-0.2
					c0.2-0.6,0.6-0.9,1.4-0.5c0.1-0.8,0.5-1.3,1.3-0.9c0.1-0.8,0.4-1.3,1.3-0.9c0.2,0.1,0.6-0.4,0.9-0.6c0.2-0.2,0.5-0.5,0.7-0.7
					c0.4-0.3,0.8-0.9,1.2-0.8c0.9,0.1,1-1.4,1.9-0.9c0.2-0.7,1.3-0.4,1.5-1.2c0-0.2,0.7-0.3,1.3-0.5c0-0.1,0.1-0.4,0.1-0.8
					c0.4,0.1,0.7,0.3,1,0.4c-0.1-1.2-0.1-1.2,1.6-0.8c0.3-1.3,0.3-1.3,1.8-0.9c0.1-0.2,0.1-0.5,0.2-0.7c0.2-0.5,0.5-0.8,1-0.5
					c0.6,0.3,1,0.3,1.1-0.5c0.1-0.8,0.5-0.9,1.7-0.3c0.3-0.5,0.5-1.1,0.9-1.3c0.5-0.2,1.1,0.1,1.5,0.1c0.8-0.7,1.5-1.3,2.1-2
					c0.4-0.5,0.9-1,0.9-1.6c0.1-1.3,1.4-2.1,1.5-3.5c0.1-1.1,1.2-2.2,1.8-3.2c0.2-0.4,0.4-0.9,0.7-1.2c1-0.9,2.2-1.6,2.6-2.9
					c0-0.1,0.3-0.2,0.4-0.2c0.8,0,1.3-0.3,1.8-1c0.2-0.3,0.9-0.3,1.4-0.4c0.3-0.1,0.8,0,1-0.3C872.8,422.8,873.1,422.7,874.6,423.5z
					 M895.4,472.6c2.2,0.1,3.5-0.4,4-1.8c0.3-1.1,0.6-2.4,0-3.7C898.7,469.5,897,471.1,895.4,472.6z"/>
			</g>
		</g>
		<g>
			<polygon class="st0" points="944,303.1 952.1,310.8 966,314.9 966.5,315.4 966.5,315 977.7,309.8 983.7,303.7 986.2,311 
				992.4,320.1 991.6,324.4 988.4,326.6 988.8,326.6 993,324.4 1006.3,321.5 1022.4,323.2 1012.9,331.7 1011.1,341.9 1004.6,345.6 
				991.8,343.5 982.8,348.3 979,348.2 971.2,344.5 968.7,343.7 963.5,344.5 956,341.7 957.3,337.8 946,333.1 943,325.1 943.1,321.8 
				942.7,312 			"/>
			<polygon class="st0" points="910.4,346.9 917.9,347.4 925,344.7 925.5,344.7 925.2,344.6 925.6,339.1 923.8,334.9 929.2,337 
				936.9,338.6 939.3,340.5 939.7,342.3 939.7,342.2 939.8,340.1 942.3,334.8 948.7,330.5 950.9,336.7 956.6,341.3 956.8,344.7 
				951.3,347.8 951.4,352.4 950.1,353.6 945.2,354.6 943.9,355 942.7,356.9 938.5,358.2 936.4,356.2 929.9,357.9 923.9,355.7 
				921.8,354.4 915.6,350.7 			"/>
			<polygon class="st0" points="1007.7,319.1 1007.6,326.3 1013.7,333.4 1013.6,333.9 1013.9,333.6 1024.7,334.4 1032.8,333 
				1029.3,338.1 1027,345.4 1023.5,347.6 1019.9,347.8 1020.2,347.9 1024.4,348.1 1035,351 1044.1,357.5 1032.1,359.1 1023.9,364.3 
				1017.1,364.2 1010.4,358.6 1001.3,358.3 999,357 996.4,352.2 995.4,350.9 991.6,349.6 988.7,345.4 992.2,343.6 988.2,337 
				991.9,331.4 994.2,329.5 1000.7,323.8 			"/>
			<g>
				<path class="st0" d="M970.5,480.2c-8,0-16.1-0.2-24.2-0.4c2.4-21.8,22.6-138.6,25.9-141.9c9.2,2.7,18.9,4.6,27.1,8.7
					C978.4,399.1,973,435.3,970.5,480.2z"/>
			</g>
			<polygon class="st0" points="954.8,310.6 963.8,314.5 975.2,314.5 975.8,314.8 975.6,314.5 981.1,308.3 982.6,302.5 987.5,307.3 
				995.9,312.7 997.1,316 995.9,318.3 996.1,318.2 998.1,315.7 1006.1,310.7 1018,308.5 1015.1,316.8 1018.3,324.7 1015.4,328.8 
				1005.6,330 1001.5,335.5 998.8,336.2 991.8,335.2 989.7,335.2 986.5,336.9 980,336.4 979.2,333.2 969.3,332.3 963.8,327 
				962.3,324.5 957.8,317.4 			"/>
			<polygon class="st0" points="917,352.5 925.9,348.6 930.4,341.1 931,340.8 930.6,340.8 924.4,333.9 917.3,329.8 925.8,329.2 
				936.3,326.5 941.2,327.4 943.8,329.5 943.7,329.3 941.2,326.6 937.7,318.7 939.5,309.7 949.4,316 961.2,318.1 965.6,322.2 
				963.3,329.3 968.9,334.9 968.9,337 964.8,341.2 963.8,342.5 964.8,345.5 961.6,349.5 957,348.4 951.8,354.4 942.5,355.3 
				938.7,354.9 927.3,354.1 			"/>
			<polygon class="st0" points="1037.6,379.9 1032.4,374.2 1022.8,371 1022.5,370.6 1022.5,370.9 1014.3,374.2 1009.7,378.2 
				1008.4,373 1004.6,366.5 1005.4,363.6 1007.8,362.1 1007.5,362.1 1004.4,363.5 994.8,365.1 983.6,363.4 990.9,357.8 992.8,350.7 
				997.6,348.4 1006.5,350.2 1013.1,347.2 1015.8,347.3 1021,350.1 1022.7,350.8 1026.4,350.4 1031.5,352.6 1030.4,355.3 
				1038,358.9 1039.6,364.6 1039.4,366.9 1039,373.7 			"/>
			<polygon class="st0" points="920.6,371.8 929.8,368.2 934.3,361 935,360.8 934.5,360.8 927.7,354.2 920,350.4 928.9,349.8 
				939.9,347.2 945.1,348.1 948,350 947.9,349.8 945.1,347.3 941.1,339.8 942.6,331.3 953.4,337.2 965.9,339.2 970.7,343 
				968.5,349.8 974.7,355 974.7,357.1 970.5,361 969.6,362.3 970.7,365.1 967.6,368.9 962.7,367.9 957.4,373.6 947.6,374.4 
				943.6,374.1 931.6,373.4 			"/>
			<polygon class="st0" points="942.3,300.4 950.4,305.9 961.7,307.4 962.3,307.8 962.1,307.5 968.8,301.6 971.5,295.6 975.4,301.5 
				982.6,308.4 983.2,312.1 981.5,314.4 981.7,314.3 984.2,311.9 993.2,307.7 1005.4,306.9 1000.9,315.4 1002.4,324.3 998.8,328.4 
				988.8,328.3 983.6,333.5 980.8,334 974,331.9 972,331.6 968.4,332.9 962.1,331.6 961.9,328.1 952.3,325.6 947.9,319.2 
				946.9,316.4 943.8,308.1 			"/>
		</g>
		<g id="auiSZ7.tif_1_">
			<g>
				<path class="st0" d="M168.6,450.7c0.4-1,1-1.7,0.9-2.3c-0.6-3.1-0.2-5.6,2.6-7.7c0.9-0.7,1-3.6,0.4-5.1
					c-2.1-5.2-2.8-10.3-1.3-15.8c0.7-2.7,0.4-5.6,0.5-9c4.3,1.4,8,2.6,11.7,3.7c3,0.9,6.1,2.4,9,2.2c10.6-0.7,18.6,5.1,27.2,9.8
					c3.8,2.1,8.1,3.1,12.1,4.9c1.5,0.7,3.3,2,3.8,3.4c2.1,6,5.9,9.8,11.7,12.6c4.7,2.3,8.7,6.3,12.7,9.9c2.1,1.9,2.9,4.5,0.9,7.3
					c-1.1,1.5-1.9,3.2-2.6,4.9c-0.4,0.9-3,2.7,0.7,2.9c0,0,0.3,1.3,0,1.8c-1.5,3.5-3,6.4-7.8,6.5c-3.6,0.1-7.2,1.7-8.4,6.1
					c1.2,0,3-0.4,3.2-0.1c1.6,3.4,4,2.3,6.5,1.6c0.9-0.2,2.4-0.2,3,0.4c2.8,2.4,5.4,2.8,8,0.5c1.7-1.5,3.3-2.4,5.1-0.5
					c2.1,2.3,5.1,1.9,6.5,0.6c1.1-1,1.2-4.9,0.1-6.2c-4.9-6.2-3.1-12.9-2.7-19.6c0.2-2.9,0.4-6.1-0.4-8.8
					c-2.1-6.6-4.6-13.1-7.3-19.5c-0.7-1.7-2.4-3.2-3.9-4.4c-2.8-2.3-2.7-4.4,0.5-5.9c9.6-4.2,32.6-21.6,38.8-29.5
					c10.2-13.2,12.2-27.5,5.7-42.9c-2.8-6.7-5.6-13.5-3.8-21c1-4.1,2.5-8.2,4.2-12c5-10.9,2.9-24.4-6-32.6c0.4,0.9,0.8,1.8,1.3,2.7
					c6,9.3,6,18.7,0.6,28.2c-1,1.7-1.9,3.5-3.1,5.1c-7.1,8.9-8.2,19.1-6.3,29.9c0.1,0.8,0.4,1.7,0.5,2.5
					c2.2,16.6-11.5,28.6-27.9,24.2c-6.2-1.7-11.7-4.4-15.1-10.3c-1.3-2.2-3-4.3-5-5.8c-3.7-2.7-5.2-6.6-6.4-10.7
					c-3.7-12.4-7.8-24.6-13.7-36.2c-4.9-9.6-7.9-20.2-8.5-31.4c-0.4-7.5-4.1-14.2-8.7-20c-4.5-5.7-13.5-6.8-21.3-3.5
					c-4.2,1.8-9.3,1.5-12.5,5.7c-0.3,0.4-1.3,0.3-2,0.2c-3-0.5-4.2,1.5-5.8,3.5c-2.2,2.9-4.7,5.5-7,8.3c-2.8,3.4-5.9,6.5-8.1,10.3
					c-2.7,4.6,0.9,11.6,6.1,12.7c1.1,0.2,2.5-0.6,3.6-1.1c1.9-0.8,3.7-2.4,5.6-2.5c3.7-0.2,5.5-2.9,8-4.8c1-0.7,2.2-1.1,3.4-1.6
					c-0.2,1.2,0,2.8-0.7,3.7c-1.7,2.4-3.8,4.7-5.8,6.9c-1.4,1.5-3.5,2.7-1.9,5.3c0.2,0.4-0.2,1.2-0.5,1.7c-1.4,1.9-1.4,3.4,0.2,5.5
					c1.6,2.1,3.3,2.3,5.5,1.8c4.5-0.9,7.6-3.4,10-7.3c1.9-3.1,4.1-5.9,6.2-8.8c0.3,0.2,0.7,0.4,1,0.5c-0.1,1.1,0,2.1-0.2,3.2
					c-0.7,4.5-0.9,9.1-2.4,13.3c-1.7,4.9-2.4,10.3-6.4,14.3c-1.8,1.8-3.8,2.5-5.7,1.5c-6.3-3.3-11.8,0.3-17.1,1.5
					c0.5,2.6,0.9,4.8,1.3,7.1c2.7-1.8,5.6-4.1,8.8-5.5c1.6-0.7,4-0.1,5.9,0.3c2.4,0.5,4.7,1.5,7.1,2.3c-1,10.4-2,21.7-3.2,32.9
					c-0.1,0.9-1.5,1.9-2.5,2.3c-9.2,3.8-17.2,9.4-24.4,16.2c-3.6,3.3-4.8,6.9-3.5,11.8c2.3,8.5,4,17.1,5.9,25.7
					c0.9,4.3-4.6,11.1-9,10.9c-1.1-0.1-2.1-1.3-3-2.1c-3.8-3.4-5.6-4.1-8.9-3.2c0,0.2-0.1,0.5,0,0.7c0.7,1.1,1.5,2.2,2.3,3.3
					c-1.5-0.2-3.2,0-4.4-0.7c-3.5-2.2-7.1-3.8-11.4-3.8c-0.1,0.6-0.2,0.9-0.1,1.1c1.1,1.3,2.1,2.7,3.2,4c-1.7,0.5-3.4,1-5.2,1.5
					c-1.4,0.4-2.9,0.6-4.3,0.9c1.5,1.6,2.5,3.2,4,4.2c1.8,1.2,3.9,2,6,2.7c2.9,1,6.1,1.3,8.7,2.8c5.8,3.4,14.9,3,20.1-1.4
					C158.2,445.6,162.4,446,168.6,450.7z"/>
			</g>
		</g>
		<g>
			<path class="st0" d="M904,477.3c0.6,0.6,0.8,1.4,0.9,2.4c0.1-0.1,0.1-0.3,0.1-0.4C905,478.3,906,477.3,904,477.3z"/>
			<path class="st0" d="M123.7,462.8c-0.1-0.6-0.4-1.1-0.7-1.4C123.2,461.8,123.4,462.3,123.7,462.8z"/>
			<path class="st0" d="M904.9,479.7c-0.4,0.8-1.6,1.6-1.1,2.4c0.3,0.1,0.7,0.2,1.2,0.2C905,481.4,905,480.5,904.9,479.7z"/>
			<path class="st0" d="M1030,415.3l1-1c-0.6,0.3-1.1,0.7-1.6,1.2c0.2,0.3,0.4,0.6,0.7,0.9C1030,416,1030,415.7,1030,415.3z"/>
			<path class="st0" d="M1031,417.3c-0.3-0.3-0.7-0.7-1-1C1030.1,416.9,1030.4,417.3,1031,417.3z"/>
			<path class="st0" d="M1016,418.3c-1.5,1.5-1.3,3.6-1.1,5.8C1016.7,422.9,1017.8,421.4,1016,418.3z"/>
			<path class="st0" d="M123.9,463.4c-0.2-0.1-0.5-0.1-0.9-0.1c0.3,0.2,0.6,0.4,0.9,0.6c0,0.3,0,0.7,0.1,1.1
				c0.1-0.3,0.3-0.6,0.3-0.8c0.3,0.2,0.6,0.4,0.9,0.6c-0.5-0.7-1.1-1.4-1.5-2.1C123.8,463,123.8,463.2,123.9,463.4z"/>
			<path class="st0" d="M1029,414.3c0,0.6-0.1,1.1-0.2,1.7c0.2-0.2,0.4-0.4,0.6-0.5C1029.1,415.1,1029,414.7,1029,414.3z"/>
			<path class="st0" d="M52,468.3c0,2,0,3,0,5c1.3-0.4,2.5-1.1,3.5-1.8C54.4,470,52.8,469.2,52,468.3z"/>
			<path class="st0" d="M71,464.3c-2-2-5-2-8-2c2,2,3.9,3.1,5.9,4.2C69.8,465.6,71,465,71,464.3z"/>
			<path class="st0" d="M108,455.3c-1.1,0.6-1,1.7-1,3c0,0,0,0,0,0C108,457.3,108,456.3,108,455.3z"/>
			<path class="st0" d="M68,468.3c0.7-0.4,1.5-0.7,2.2-1.1c-0.4-0.3-0.9-0.5-1.3-0.7C68.4,467,68,467.6,68,468.3z"/>
			<path class="st0" d="M124,466.3c0-0.4,0-0.9,0-1.3C123.8,465.5,123.7,466,124,466.3z"/>
			<path class="st0" d="M107,458.3c-2,2-3,3-3,5l1,1c1.2-0.3,2.3-0.3,3.3-0.3c-0.7-1.1-1.7-2.1-2.3-2.7
				C106.9,460.4,107,459.4,107,458.3z"/>
			<path class="st0" d="M41,482.3c-0.7-0.2-1.4-0.3-2.1-0.3c0.7,0.4,1.4,0.6,2.1,0.6C41,482.6,41,482.5,41,482.3z"/>
			<path class="st0" d="M1045,395.3l-1,1c1,0,2,0,2,0c0.7,1.3,1.3,3,1.4,4.7C1048.2,398.2,1049.8,396.1,1045,395.3z"/>
			<path class="st0" d="M1365.3,271.7c-0.7,2.3-1.6,4.7-0.3,6.6C1365.6,276.4,1365.5,274.2,1365.3,271.7z"/>
			<path class="st0" d="M38.9,482.1c-0.3-0.2-0.6-0.4-0.9-0.7c-2-3-2-7-3-10c-2.4,2.4-2.2,5.3-3.1,8c-1.9,0.4-4.1,1.6-5.9,1
				c1.1,1.7,3.2,1.8,5.1,2.3c0.1,0.4,0.4,0.7,0.9,0.7c0.3,0,0.7,0,1-0.1c0.4,0.2,0.7,0.5,1.1,0.8c0.1-0.3,0.2-0.7,0.3-1
				C35.9,482.7,37.4,482.1,38.9,482.1z"/>
			<path class="st0" d="M1358,266.4c0.6-0.5,0-2.6,0-4.1c-1,0-3.7,0.9-4,1.9c0.3,0.3,0.5,0.6,0.8,0.8
				C1355.7,265.6,1356.8,266,1358,266.4z"/>
			<path class="st0" d="M1234,324.9c-0.4-2.6-4.1-3.7-6-6.5c1.9,2.9,1.1,6.7,4.6,8.8c0.2,0,0.4-0.1,0.6-0.2
				C1233.5,326.3,1233.7,325.6,1234,324.9z"/>
			<path class="st0" d="M1369,299.3v-17l-3.8,1.7c-0.6-0.4-1.2-0.8-1.2-1.7c0-4,3-3,5-3c-1-2,0-4-2-5c-2,0-1,5-2,4c-2,5-4,0-7-1
				c0-1.7,1.4-2.7,1.8-4.1c-2.1-0.7-4.6-1-5.8-2.9c2-2,5,0,8-1c-1-1.5-2.5-2.3-4-2.9c-0.2,0.1-0.5,0.1-1-0.1
				c-0.8-0.3-1.5-0.7-2.2-1.3c-0.3-0.2-0.6-0.4-0.8-0.7c0,0,0-0.1,0-0.1c-1.5-1.7-2.8-4-4-5.9c-2,4,0,8-1,12c-2-2,0-5-1-7
				c-1,0-1,1-1,2c-2.6-0.9-5.2-1-5.9-4.3c-2.5-1-4.4-2.6-7.1-1.7c0,0,0,0-0.1,0.1c-3.1,0.1-6.6,0.4-9-1.3c0,0.1,0.1,0.2,0.1,0.3
				l-1,1c-1-1-3-2-4-1c-3,3,1,6,0,9c-4-2-6-5-2-9c-1.3,0-2.4,0.4-3.5,0.9c0,1,0,2.1-0.5,3.1c-2,2-4,4-6,7c-2-2,0-6-2-7c-4-1-5,5-8,5
				c-4,1-2-4-4-7c0,4,0,7,0,11c-2-1-5-3-7-4c-1,1-1,3-2,4c2,0,4,2,6,2c-3,2-7,3-10,4c2,3,6,5,7,8c1,2-2,5-5,6c0-4-1-8-1-12
				c-2,2-2,7-5,7s-3-6-5-8c-2-1-5,2-7,1c-2,7,2,13,10,12c-2,2-7,2-7,5c-1,2,4,1,5,3c0,1-2,2-3,3c-5,1-7,5-10,8c1-4-1-8,1-12
				c0,0-1-1-1-2c-2,4-9,5-8,10c0,1,4-2,2,1s-10,1-11,7c3,0,7,2,10,1c-1,2-4,1-6,3c-3,3-1,8-3,11c0-4-5-7-2-11c0-1,0-3-1-3
				c-4.9,0.8-5.8,5.6-7,9.5c0,0.2,0,0.3,0,0.5c0.4,0.8,0,1.3-0.8,1.6c-0.1,0.1-0.1,0.3-0.2,0.4c-0.2-0.1-0.3-0.2-0.4-0.2
				c-1.1,0.2-2.6,0.2-3.6,0.2c1,5-5,5-9,6c2,3,6,2,9,4c-2,4-4,6-8,8c-1,0-1,0-2-3c-2-4-4-7-2-11c-3,2-5,5-7,8
				c-0.4-0.4-0.7-0.8-0.8-1.2c-1.5,0.6-4.2-0.6-4.2,0.2c-2,4-3,8-2,12c-4,3-7,0-10-3c-1-1-3,3-5,0c-1-2,4-4,3-6c-2-1-6,5-7,0
				c0-4,0-8,0-12c-3,1-7,3-6,6c0,2,4,5,4,8c-4,0-7-2-10-4c-1-1-1,0-1,1c3,2,4,5,7,7c1,2-1,5-2,5c-4,2-9-2-7-7c-3,2-5,5-8,5
				c2-4,2-8,3-12c-3,0-5,3-8,5c-1-2-3-1-4-1c1,1,2,3,3,4c0,0,0,1,0,2c-3-1-7-4-10-2c-1,0,2,2,3,4l-1,1c-3-1-5-4-8-3c1,0,2,0,2,1
				c-2,1,0,4-2,4s-4,1-6-2c-1-2,1-5-3-7c-1,0-3,1-4,2c-1,2,2,2,2,4c-1,3-3,0-5,0c-3,1,1,6-2,8c-2,1-5-2-7-1v2c0,0-1,0-2,0
				c0-1,0-3-1-3c-2,0-4,3-6,4c0-3,2-7,3-10c-4,3-6,6-9,9c0-2,0-4-2-5c-4-1-8,0-8,5c1,3,4,5,4,8c-1,4,0,7-2,11c-1-4-3-8-4-12
				c-4,2-3,7-6,10l-1-1c1-2,1-5,1-7c-3,1-4,6-8,5c-2-1-1-5-4-5c2,3,4,5,2,8c-2.5,1.7-5.8,2.7-8.6,4.8c-1.8,0.1-4.1,4.2-6.4,4.2
				c-3,1-4-4-7-5c0,3,1,6,3,8c1,2,5-2,8-1c1,1,1,4,0,5c-2,2-5,1-7,1c0.9,4.5-1.4,7.4-4.8,9.3c0-0.4,0-0.9-0.2-1.3
				c-0.2,0.2-0.4,0.3-0.6,0.5c0-0.3,0-0.5,0-0.8c-0.1,0.3-0.2,0.6-0.2,0.9c-1.9,0.9-4.4-1-6.2-3.6c-1-1-4,1-7,1c3,2,5,5,8,7
				c-3,2-2,5-6,7c0,0.1,0,0.2,0,0.3c-1.6,1.1-2.5,4-4,4.7c-1,1-2,2-3,1c-0.7-0.7-0.4-1.9-0.2-3.3c-0.9,0.9-1.7,1.7-2.8,2.3
				c2,1,4,2,6,3c-3,2-6,4-9,7c-3,1-5-3-8-2c0-0.7-0.1-1.5-0.1-2.2c-1.2,0.8-2.7,1.4-3.9,2.2c4,2,9,4,6,7c-2,3-4-2-6-4c-2,3-2,7-5,7
				c-5,0-3-7-3-11c-1,0-2,1-3,3l-2,1c-1,2,1,6-1,6c-3,0-6-2-9-4c0,1,0,2,0,2c3,3,4,6,6,9c1,1,4,1,4,2c-1,2-6,0-7,2
				c-0.5,1,0.6,1.8,1.6,2.6l-4.1,1.8c-0.6,0-1.1,0.2-1.5,0.6c0,0-0.1,0.1-0.1,0.1l-10.8,4.8c0.3-3.7,0.9-7,0.9-10.9c-2,3-5,5-8,8
				c-3-3-7-6-10-1c0,2-2,4,0,8c0,1-2,2-2,3c0.3,0.3,0.7,0.6,1.1,0.9l-7.8,3.5c-0.1-0.4-0.2-0.9-0.3-1.4c-0.7,0.7-1.5,2-2.6,2.6
				l-0.3,0.1c-0.3,0.1-0.7,0.2-1.1,0.2c-2-1-3-1-6,0c-1,0-2-2-3-3c-3-1-8,1-10,5c1.7,1.7,3.3,3,5,4.4l-4,1.8c-1.3-0.2-2.7-0.2-4-0.2
				c0.4,0.4,0.9,0.9,1.3,1.4l-2.5,1.1c-0.5-0.5-0.8-0.9-0.8-0.5c-0.2,0.3-0.3,0.7-0.4,1l-0.8,0.4c0.1-0.1,0.1-0.3,0.2-0.4
				c-4,2-9,5-13,4c-1,0,2-3,1-5c-2,1-2,4-5,3c-0.1-0.1-0.1-0.1-0.2-0.2c-1.9-0.7-2.1-3-3.8-3.8c-6-1-3,4-3,7c-3-2-6-3-9-6
				c1,3,2,6,3,9c0,1,0,2-1,1c-2-3,0-7-3-10c-2,2-3,4-4,7c0-1,0-3-1-4c-2-1-4,0-6,2l-1-1c0-3,3-4,4-6c-1-1-2-1-3-1c1-3,1-6,3-8
				c-2-1-5-3-7-2c-2,3-1,7-2,11c-4-2-3,2-6,1c-3,0-6-7-10-4c-1,0,0,3,0,5c0,1-2,3-4,4c-1-2,2-5,1-6c-2-2-6,3-7,1c-3-2,4-3,3-6
				c0-5-5-2-9-1c0-2,1-3,3-4c4-3,1-7-2-9c-2,3-1,7-4,10c-2,1-2-4-4-3l-1,1c1,2,1,4,1,6c-3-1-4-4-7-6c0,2,1,5-1,5s-3-4-5-5s-5,2-7,0
				c2-2,4-3,6-6c-1,0-2,0-3,0c-3,1-6,2-9,2c1-3,4-5,2-8c-1-1-4,2-5,2c-1-1,0-5-2-5c-2-1,1,4-2,5c-1,0-3-1-4-1c-2-2-3-5-6-6
				c0,4,1,7-3,9c-6,2-9-3-11-8c-1,0-3,0-4,0c-1-1,1-2,3-4c1-2,3-4,2-7c-3,2-5,6-8,7c0-5-3-8-6-10s-7,1-7,6c-3-2-4,2-5,4c0-3,4-6,1-7
				s-6-1-10-1c0-3,3-7-3-8c-1,3-3,4-4,7c-3-3-3-11-9-7c2,3,2,6,3,9c-3,1-4-6-8,0c-1,3,3,7,1,8c-2,2-4-2-6-4c-1-3,2-5,1-8
				c-1,2-2,1-3,3c-3,2-5,4-8,6c2-4,3-9,5-13c1-3-2,0-4,0c-3,1-6-2-8-4l-1,1c1,2,2,4,0,7c-2-4-6-5-10-4c1,4-2,5-5,4c0,3,2,4,2,7
				c-2-2-2-6-4-5c-3,0-1,5-4,7c-2,1-1-1-1-2c2-3,1-6,1-9l-3-1c-2,4-5,7-8,11c-1,1-1,0-1-1c2-3,2-7,4-10c0-1,1-3-1-2c-3,1-3,6-6,6
				c-2-1-2-5-5-5c-1,0-2,2-3,2c-4-1,1-8-7-5c-1,0,2,5-1,7c-2-3-4-6-6-8c-1-1-2,1-2,2s1,2,1,2c-2,3-6,0-7,4c-1,1-3,0-4-1
				c1,5,4,9,4,14c-3-2-5-6-9-7c-2,0-1,3-6,3c-3-1-5,5-9,2c1-4,2-7,3-11l-1-1c-3,2-5,2-8,3c-1-3,2-7-1-8c-1-1-2,3-3,4c-2,1-5-3-6,0
				c0,1,0,3,0,4s-1,2-2,1c-3-4-9-5-12-2c-1,1,2,4,1,6c-1,3-4,2-6,2c-1,0-1,1-2,2c-3,2-2-3-4-2c-3,2-3,5-3,9c0,1-1,2-2,3
				c-1-3-1-5-1-8c-4,0-3,6-7,6c0-4,1-7-2-10c-2,2-4,6-6,6c-5,2-4-5-7-8c-2,3,0,8-2,8c-4,1-7-3-11-4c1,3,2,6,3,9c-2-2-4-3-7-4
				c0,1,0,3-1,4c-3,0-4-6-7-4c-2,3,2,6,2,9c-4,0-2-6-6-6c-2,0,0,3-1,4c-3,2-6,4-8,7c-1-4,2-8,1-12c-5,3-10,4-14,8c0-4,2-8,2-12
				c-3,0-3,5-5,4c-2,0,0-5-2-7c-3,3-3,9-8,6c-1,3,2,6,1,9c-1,0-2,1-3,1c-3-3-6-5-8-8c-5,3,1,9,0,13c0,1-3-2-4-1c-1,2,1,6,0,6
				c-3,2-4-3-7-4c-4-1-4,5-6,4c-2,0,0-5-2-6c-3-1-5-3-7-5c-1-1-3,0-4,1c-1-1-1-3-2-4c-3-1-3,6-6,5c-2-2-5-4-8-3c-3,2,1,5,0,7
				c0,1-1,2-2,1c-1-2-2-4-3-5c-2-1-5,2-7,3c-1,0-3,0-4,0c1,4,2,7,2,11c-3-3-6-8-10-8c-2-1,0,4-2,5c-1-1-1-3-2-4c-2-1-3,4-5,3
				c-1-2,1-5,2-7c0-2-1-3-2-4c-3,0-4-2-6-2c-3-1-6,0-9,0c-2,0-1-4-2-4c-4-2-7,4-7,7c-1,1-1,4,1,6l-1,1c-5-1-8-5-12-9c0,4,2,8,2,12
				c-1-2-3-2-5-3c0,6-6,6-11,8c-1-4-6-5-9-8c2-3,4-6,4-10c-4,2-5,6-9,8c-1,0-2,0-3-1c0-2,0-4,1-5c-2-1-1-5-3-5c-5-1-8,6-7,11
				c-4,3-6-1-9-2c-2,0,0,5-3,4c-1-1-3-3-4-5c-2,2,0,5-1,7c-2-1-2-3-4-5c0-1,1-3-2-3c-2,1-4,3-6,5c0-2,0-3-1-5c-1,2-4,3-4,2
				c-2-3,1-8-2-9c-2-1-5-1-7,2s0,7-3,7c-2,1-1-4-3-5c0,1,0,3-1,4c-4,2-6-2-10-4c0,3,1,5,2,7c0,1,0,2,0,3c-4-2-5-5-10-4c-1,0-2-2-3-2
				c0,1,0,2-1,2c0-1-1-2-1-2c-4,3-5,7-7,11c-3-1-1-7-4-7c-4-1-5-2-8-5c-1,1-3,3-4,4c-1-4-4-1-6-2c-3,0-3-5-7-6c0,2,1,4,0,6
				c-1,1-2,0-3-1s-1-3-3-3l-1,1c0,4,3,7,3,11c-3-2-4-7-7-8c0,0-1,1-2,2c-2,4,0,9-3,12c1-5-1-9-2-13c-4,2-7,5-11,5c0-3,3-5,3-8
				c-3,0-4,4-7,5c-2,0-1-1-1-2c1-4,4-6,4-10c-3,1-4,7-7,7c-3,1-2-4-2-7c-5,1-4,6-6,10c-1-2-2-4-3-6c-1-1-2,0-2,1c0,2,3,7-1,5
				c-1,0-3-2-4-4c-3,2-3,10-8,6c-1,3,2,6-1,8c-3,1-9-1-9-4c-1-3,4-4,6-7c-2.9,0.7-4.8-0.1-6.8-1.5c1.3,1.8,2.2,3.6-0.2,5.5
				c-2,1-5-2-8-1s-1,5-3,6c-2,0-4-2-5-4c0-3,5-4,6-7c-2.1,0.7-4.2-0.1-6.7-0.3c0.4,0.7,0.7,1.5,0.7,2.3c-3.9-0.8-7.2-1.5-10.8-1.4
				c0-0.2-0.1-0.4-0.2-0.6c-2-1-5,1-7,2c-1,0-2,0-3,0c0-3,3-3,2-6c-1-2-4-2-5,0s-1,6,1,8c-2.1,0-4.2-1-6.3-1.2
				c-3.1-2.1-6.3-1.3-9.4,0.1c0.6,0.3,1.2,0.7,1.8,1.1c-2,4-5,8-10,9c-3,0-2-3-3-4c2-2,1-5,3-6c-1,0-2,0-3,1
				c-1.1,1.1-2.2,2.2-3.5,3.2c0.2,0.3,0.4,0.5,0.5,0.8c0,1,0,2-1,3c-4,1-8,1-12,2c0.5,1.8,1.9,2.2,3.6,2.3c-1.9,1.5-3.8,3-5.6,3
				c-0.1,1.8-1,2.8-2,4.7c0-1-1-1-2-1c0,1,1,1,1,2c-2,0-2-2-4-1c-0.1-0.1-0.1-0.3-0.2-0.4c-2.6,3.7-3.9,7.3-2.3,11l-1.9,1l-1.3,0.7
				c-0.5-0.3-1-0.7-1.2-1.2c-1-3,2-6,2-9c-3.9,2.9-5.9,6.7-9.7,9.7c1,0.1,2,0.7,2.7,2.3c0,1.5-1.6,0.8-2.1,1.1
				c-0.2-1.2-0.6-2.3-1.2-3.4c0,0,0.1,0,0.1,0c-1.8-3-1.9-6.8-2.8-10.7c-2,3-4,8-2,11c0.3,0.6,1.1,0.6,2,0.3c0,1,0,2-0.1,2.9
				c-2.5,2.3-5.2,3.6-6.8,6.5c0,0.1,0.1,0.2,0.1,0.2c0.1,0,0.2,0,0.4,0l-0.3,0.2c0,0,0-0.1-0.1-0.1c-0.1,0-0.2,0-0.3,0
				c0-0.1,0.1-0.2,0.1-0.3c-1-1.7-2.5-2.8-3.1-4.7c-2,3-5,5-9,5c2.5,0.6,4.3,2.1,6.2,3.3L0,514.3l-37.6,38H1066c0,0.3,0,0.7,0,1
				c1,0,3-1,4-1h25.1c0.1,1.1,0.4,2.2,0.9,3c4-2,6-4,10,0c0.4-1,0.7-2,0.9-3h20.4c0.2,0.9,0.7,1.7,1.7,2c0.2-0.6,0.3-1.3,0.3-2h8.7
				c0.9,0.2,1.7,0.2,2.4,0H1369V303.2C1369.7,302.4,1369.8,301.2,1369,299.3z M1061.7,383c0.1,0.1,0.2,0.2,0.3,0.3
				c-0.3,0-0.7-0.1-1.1-0.1C1061.2,383.2,1061.4,383.1,1061.7,383z M1048.1,403.6c1.3,0.6,1.9,2.2,1.9,3.7c0,1-2,2-3,2
				C1046.3,407.1,1047.7,405.5,1048.1,403.6z M18,500.3c-0.4,0.5-0.8,1-1.2,1.4C17.1,501.1,17.4,500.6,18,500.3z M253,482.3
				c0.1,0.1,0.1,0.1,0.1,0.2l-2.8,0C251.2,481.9,252,481.7,253,482.3z M77.3,470.1c0.8,3.8,2.9,7,3.7,10.2c-3-2-3-5-4-8
				C76.7,471.5,76.9,470.8,77.3,470.1z M50.2,480.1c0.7,0.2,1.3,0.6,1.8,1.2c0,1.9,0.4,3.8,0.2,5.7l-0.9,0.5
				C51.2,485.1,50.6,482.5,50.2,480.1z"/>
			<path class="st0" d="M19.3,499c-0.2,0-0.3,0-0.5,0c0.1,0.1,0.1,0.2,0.2,0.3C19.1,499.2,19.2,499.1,19.3,499z"/>
			<path class="st0" d="M34.1,484c-0.3,1-0.5,2-0.2,2.8c0.4-0.5,0.8-1,1.2-1.6C34.7,484.8,34.4,484.4,34.1,484z"/>
			<path class="st0" d="M1365,267.3c0,1.5,0.1,3,0.3,4.4c0.4-1.2,0.7-2.3,0.7-3.4L1365,267.3z"/>
			<path class="st0" d="M1324,257.3c0.3,0.3,0.6,0.5,0.9,0.7c-0.2-0.4-0.3-0.9-0.5-1.3C1324.3,257,1324.1,257.1,1324,257.3z"/>
			<path class="st0" d="M1311,254.3c0,2,0,4-2,5c0,0-1,2,1,2c1.7-0.6,3.1-1.4,4.5-2.1c0-1,0-1.9,0.5-2.9
				C1315,254.3,1312,256.3,1311,254.3z"/>
			<path class="st0" d="M1363,275.3c-0.5-0.8-1.3-1.3-2.2-1.7C1361.2,274.5,1361.7,275.3,1363,275.3z"/>
			<path class="st0" d="M1210,337.3c0-1-1-3-1-5c0,1.6-0.7,3.9,0.2,5.8C1209.5,337.9,1209.8,337.7,1210,337.3z"/>
			<path class="st0" d="M1360,272.3c0,0.3-0.1,0.6-0.2,0.9c0.3,0.1,0.7,0.2,1,0.4C1360.6,273.2,1360.3,272.7,1360,272.3z"/>
			<path class="st0" d="M1346,260.3c-3-1-5-2-7-3c1,1,2,1,2,2c0,0.6,0,1.2,0.1,1.7c0.3,0.1,0.6,0.2,0.9,0.3
				C1343,262.3,1344,260.3,1346,260.3z"/>
		</g>
		<path class="st0" d="M174,439.6l-58.6,1.1c0,0-26.4,10.2-24,16.4c2.4,6.2,2.9,32.3,2.9,32.3s2.6,31,6.6,31.4
			c4,0.4,5.9-14.7,15.3-11.7c9.4,2.9,26.3,38.7,26.3,38.7s15,4.9,20.8,0.8c5.8-4.1,28.7-46.8,28.7-46.8l8.8-33.1L174,439.6z"/>
		<g>
			<polygon class="st0" points="940.3,270.2 931.8,279.9 917.9,283.7 917.3,284.4 917.4,283.9 907.1,275.1 901.8,265.8 898.7,275.7 
				891.8,287.6 892.2,293.6 895.1,297.1 894.8,297 890.8,293.5 878.1,287.6 862.4,287.9 870.9,301 871.7,315.4 877.6,321.4 
				890.3,320.1 898.5,328 902.2,328.4 910.2,324.3 912.7,323.5 917.6,325.3 925.1,322.4 924.3,316.7 935.6,311.8 939.3,301 
				939.5,296.4 940.8,282.8 			"/>
			<polygon class="st0" points="968.9,335.6 961.6,335.3 955,330.6 954.5,330.6 954.7,330.4 954.9,322.8 957,317.1 951.6,319.3 
				943.9,320.6 941.5,322.9 940.9,325.4 940.9,325.2 941,322.2 939,314.6 933.3,307.8 930.6,316.2 924.6,321.7 924.1,326.4 
				929.1,331.5 928.7,337.9 929.8,339.7 934.4,341.7 935.7,342.5 936.6,345.3 940.6,347.6 942.8,345.2 949,348.4 955,346.1 
				957.2,344.6 963.5,340.3 			"/>
			<polygon class="st0" points="863.1,266.3 862.6,276.4 856,285.4 856,286.1 855.8,285.7 845.2,285.5 837.5,282.4 840.4,289.9 
				842,300.4 845.2,303.9 848.6,304.7 848.4,304.7 844.3,304.5 833.7,307.1 824.3,314.9 835.8,318.7 843.3,327.1 849.8,327.9 
				856.9,321 865.7,321.7 868.1,320.2 871,313.9 872.1,312.2 876,310.8 879.2,305.4 875.9,302.4 880.4,293.9 877.3,285.5 
				875.3,282.6 869.5,273.8 			"/>
			<g>
				<path class="st0" d="M909.1,512.3c5.6-6.3,10.8-12.8,16.3-19.2c-35.9-26.2,19.9-104.6-13.1-170.7c-7.1,3.7-14.2,7.4-21.3,11.1
					C924.3,402.2,856.5,468.3,909.1,512.3z"/>
			</g>
			<polygon class="st0" points="929.2,279.2 920.1,283.5 909,282 908.4,282.3 908.6,282 903.9,272.5 902.9,264.3 897.7,270.4 
				889.1,276.8 887.6,281.2 888.6,284.6 888.4,284.4 886.6,280.7 879.4,272.6 868,268 870.1,279.9 866.3,290.5 868.7,296.6 
				878.1,299.6 881.6,307.7 884.1,309.1 891,308.7 893,308.9 896,311.6 902.3,311.9 903.4,307.6 913.1,307.5 919,300.9 920.6,297.7 
				925.6,288.4 			"/>
			<polygon class="st0" points="962,342.5 953.7,336 950,324.9 949.4,324.5 949.9,324.5 956.5,315.7 963.8,311 955.6,308.9 
				945.7,303.9 940.8,304.5 938.1,307 938.2,306.7 940.9,303.4 945,292.8 944.1,280 933.9,287.5 922.2,288.8 917.6,293.9 
				919.2,304.1 913.2,311.2 913.1,314.2 916.7,320.5 917.5,322.5 916.3,326.5 919,332.5 923.5,331.6 928,340.6 937,343 940.8,343 
				951.8,343.5 			"/>
			<polygon class="st0" points="838.4,294.3 849.1,302.6 854,316.8 854.7,317.4 854.1,317.4 845.7,328.7 836.3,334.9 846.9,337.4 
				859.7,343.9 865.9,343 869.5,339.8 869.3,340.2 865.9,344.5 860.7,358.1 861.9,374.5 875,364.8 890,363 895.9,356.4 893.8,343.3 
				901.4,334.2 901.6,330.3 896.9,322.3 895.9,319.7 897.4,314.5 893.9,306.8 888,308.1 882.1,296.5 870.6,293.4 865.7,293.4 
				851.5,293 			"/>
			<polygon class="st0" points="956.7,369 948.1,362.7 944.4,352.2 943.8,351.7 944.3,351.8 951.4,343.6 959.3,339.2 950.7,337.2 
				940.3,332.2 935.1,332.7 932.2,335 932.3,334.7 935.2,331.6 939.8,321.7 939.1,309.6 928.1,316.5 915.8,317.6 910.8,322.3 
				912.3,332 905.8,338.5 905.6,341.3 909.3,347.3 910.1,349.2 908.7,353 911.4,358.8 916.3,357.9 920.9,366.5 930.3,369 
				934.2,369.1 945.9,369.7 			"/>
			<polygon class="st0" points="942.3,266.7 933.9,273.3 922.8,274 922.2,274.4 922.3,274 916.4,264.8 914.4,256.1 910,263.8 
				902.4,272.5 901.5,277.6 902.9,281.1 902.7,280.9 900.5,277.2 892.2,270.1 880.4,267.5 884,279.9 881.7,292.1 884.9,298.2 
				894.6,299.4 899.1,307.4 901.8,308.4 908.6,306.4 910.6,306.2 913.9,308.5 920.1,307.5 920.7,302.6 930.2,300.5 935.1,292.1 
				936.3,288.3 940,277.3 			"/>
		</g>
		<g>
			<defs>
				<rect id="SVGID_9_" x="1103" y="92.3" width="266" height="456.7"/>
			</defs>
			<clipPath id="SVGID_4_">
				<use xlink:href="#SVGID_9_"  style="overflow:visible;"/>
			</clipPath>
			<path class="st3" d="M1358.6,434.5l-30.7,49.7l-21.3-13.2c0,0,12.3-12,15.4-24.8s18.9-22.6,1.2-33.6
				c-17.7-11-29.7-23.3-31.9-19.7s-34.3,47.5-34.3,47.5s-4.3,2.3-9.3-0.8c-7.1-4.4-4.9-7.9-4.9-7.9s14.5-15.5,21.9-35.5
				c5.8-15.6,14.9-20.2,15.4-24.8c0.8-9.3-18.8-41-25-54.7c-6.3-13.7-30.4-92.8-47.6-92.3c-17.2,0.5-30.3,1.9-28.5-6.2
				c1.8-8.1,7.6-16.7,20.8-16.8c12.4-0.1,23.1-6.9,26.7,14.4c1,5.8,55.9,88.4,74.2,114.4c12.2,17.4,38.5,9.1,52.7,17.9
				s40.4,29.9,50.2,45.7c9.8,15.9,20.4,22.5,39.5,39.2S1605.4,543,1605.4,543s2.7,11.5-11.5,2.7c0,0-112.2-64.5-144.1-84.2
				c-19.1-11.8-42.1-11.3-58.4-16.5C1375,439.7,1358.6,434.5,1358.6,434.5z"/>
		</g>
	</g>
</g>
<g>
	<path class="st2" d="M211.1,28.1l-6.1-0.5l7.5-11.4l4.2,0.3L211.1,28.1z M220.3,28.7l-6.1-0.5l7.5-11.4l4.2,0.3L220.3,28.7z"/>
	<path class="st2" d="M230,17.5l10.5,0.8c2.5,0.2,4.3,0.9,5.5,2.2c1.2,1.3,1.7,3.1,1.6,5.3c-0.1,1.4-0.4,2.5-1,3.3
		c-0.6,0.9-1.4,1.6-2.4,2.1c1,0.3,1.8,0.6,2.5,1.1c0.7,0.4,1.2,1,1.6,1.6c0.4,0.6,0.7,1.3,0.8,2s0.2,1.5,0.1,2.3
		c-0.1,1.3-0.4,2.4-0.9,3.3c-0.5,0.9-1.2,1.7-2.1,2.3c-0.9,0.6-1.9,1-3,1.3c-1.2,0.3-2.5,0.3-3.9,0.2L228,44.6L230,17.5z
		 M235.5,39.6l1.5,0.1c1.8,0.1,3.1,0,3.9-0.4c0.8-0.4,1.2-1.1,1.3-2.1c0.1-1-0.3-1.8-1-2.3c-0.7-0.5-2-0.8-3.8-1l-1.5-0.1
		L235.5,39.6z M236.3,28.6l1.3,0.1c2.2,0.2,3.4-0.6,3.5-2.4s-0.9-2.7-3.1-2.9l-1.3-0.1L236.3,28.6z"/>
	<path class="st2" d="M258.7,38.7c-0.2,2.8,1,4.3,3.6,4.5c1.4,0.1,2.5-0.4,3.3-1.5l6.3,0.5c-1.6,4.1-4.9,6-10,5.6
		c-1.6-0.1-3-0.5-4.2-1c-1.3-0.6-2.3-1.3-3.2-2.2c-0.9-0.9-1.5-2-1.9-3.2c-0.4-1.2-0.6-2.6-0.5-4.1c0.1-1.5,0.5-2.9,1-4.1
		c0.6-1.2,1.3-2.2,2.3-3c0.9-0.8,2.1-1.4,3.4-1.8s2.7-0.5,4.3-0.4c1.6,0.1,2.9,0.5,4.1,1c1.2,0.6,2.2,1.3,3,2.3s1.4,2.1,1.7,3.4
		c0.4,1.3,0.5,2.8,0.4,4.4l-0.1,0.7L258.7,38.7z M266.6,35.5c-0.1-0.9-0.5-1.7-1.2-2.3c-0.6-0.6-1.4-0.9-2.4-1
		c-1-0.1-1.8,0.1-2.5,0.6c-0.7,0.5-1.1,1.2-1.4,2.1L266.6,35.5z"/>
	<path class="st2" d="M290.3,36.6c-1.1-0.8-2.2-1.3-3.3-1.4c-0.6,0-1.2,0-1.8,0.2c-0.6,0.2-1,0.4-1.5,0.8c-0.4,0.4-0.8,0.8-1.1,1.3
		c-0.3,0.5-0.4,1.1-0.5,1.8c0,0.6,0,1.2,0.2,1.8c0.2,0.6,0.5,1,0.8,1.5c0.4,0.4,0.8,0.8,1.4,1c0.5,0.3,1.1,0.4,1.7,0.5
		c1.2,0.1,2.4-0.2,3.5-1l-0.4,5.5c-1.7,0.6-3.2,0.8-4.6,0.7c-1.3-0.1-2.6-0.4-3.8-1c-1.2-0.5-2.2-1.3-3.1-2.2c-0.9-0.9-1.5-2-2-3.2
		c-0.5-1.2-0.6-2.6-0.5-4c0.1-1.5,0.5-2.8,1.1-3.9c0.6-1.2,1.4-2.2,2.4-3c1-0.8,2.1-1.4,3.4-1.8c1.3-0.4,2.7-0.5,4.1-0.4
		c1.6,0.1,3,0.6,4.3,1.3L290.3,36.6z"/>
	<path class="st2" d="M308.7,32l6.5,0.5l-1.4,18.4l-6.5-0.5l0.2-2c-1.5,1.6-3.5,2.4-5.8,2.2c-1.3-0.1-2.6-0.4-3.6-1
		c-1.1-0.6-2-1.3-2.8-2.3c-0.8-0.9-1.3-2-1.7-3.3c-0.4-1.2-0.5-2.6-0.4-4c0.1-1.3,0.4-2.5,1-3.7s1.3-2.1,2.1-3s1.9-1.5,3.1-1.9
		c1.2-0.4,2.4-0.6,3.8-0.5c2.3,0.2,4.1,1.1,5.5,2.8L308.7,32z M299.8,40.5c0,0.6,0,1.2,0.2,1.7c0.2,0.5,0.4,1,0.8,1.4s0.8,0.7,1.3,1
		c0.5,0.3,1,0.4,1.6,0.4c0.6,0,1.1,0,1.7-0.2c0.5-0.2,1-0.4,1.4-0.8s0.7-0.8,1-1.3c0.3-0.5,0.4-1,0.5-1.6c0-0.6,0-1.1-0.2-1.7
		s-0.5-1-0.8-1.4s-0.8-0.7-1.3-1c-0.5-0.3-1-0.4-1.6-0.4c-0.6,0-1.2,0-1.7,0.2c-0.5,0.2-1,0.4-1.4,0.8s-0.7,0.8-1,1.2
		C300,39.4,299.9,40,299.8,40.5z"/>
	<path class="st2" d="M326.1,33.3l-0.8,10.4c-0.2,2.3,0.8,3.5,3.1,3.7c2.2,0.2,3.4-0.9,3.6-3.2l0.8-10.4l6.5,0.5l-0.9,11.6
		c-0.2,2.5-1.1,4.3-2.9,5.4c-1.7,1.1-4.2,1.6-7.5,1.3c-3.3-0.2-5.7-1-7.2-2.4c-1.5-1.4-2.2-3.3-2-5.8l0.9-11.6L326.1,33.3z"/>
	<path class="st2" d="M355.5,40.2c-1.2-0.7-2.3-1.1-3.5-1.2c-0.6,0-1.1,0-1.5,0.3s-0.6,0.5-0.6,0.9c0,0.2,0,0.4,0.1,0.5
		c0,0.1,0.2,0.3,0.4,0.4s0.5,0.3,0.9,0.4c0.4,0.1,0.9,0.3,1.5,0.5c1.8,0.5,3.1,1.2,3.9,2.2c0.8,1,1.2,2.2,1.1,3.6
		c-0.1,1.1-0.4,2-0.9,2.9c-0.5,0.8-1.1,1.5-2,2c-0.8,0.5-1.8,0.9-2.9,1.2c-1.1,0.2-2.3,0.3-3.6,0.2c-2.5-0.2-4.9-1.1-7.2-2.7L344,47
		c1.7,1.4,3.4,2.1,5,2.2c0.6,0,1.1-0.1,1.5-0.3c0.4-0.2,0.6-0.6,0.6-1c0-0.2,0-0.4,0-0.6c0-0.2-0.2-0.3-0.3-0.5
		c-0.2-0.1-0.5-0.3-0.8-0.4s-0.8-0.3-1.4-0.4c-2-0.6-3.3-1.3-4.1-2.1c-0.7-0.9-1.1-2-1-3.4c0.1-1,0.3-1.9,0.8-2.7
		c0.4-0.8,1-1.5,1.8-2c0.8-0.5,1.7-0.9,2.7-1.1c1-0.2,2.2-0.3,3.4-0.2c2,0.1,4,0.7,5.8,1.6L355.5,40.2z"/>
	<path class="st2" d="M367,46.7c-0.2,2.8,1,4.3,3.6,4.5c1.4,0.1,2.5-0.4,3.3-1.5l6.3,0.5c-1.6,4.1-4.9,6-10,5.6
		c-1.6-0.1-3-0.5-4.2-1c-1.3-0.6-2.3-1.3-3.2-2.2s-1.5-2-1.9-3.2c-0.4-1.2-0.6-2.6-0.5-4.1c0.1-1.5,0.5-2.9,1-4.1
		c0.6-1.2,1.3-2.2,2.3-3c0.9-0.8,2.1-1.4,3.4-1.8s2.7-0.5,4.3-0.4c1.6,0.1,2.9,0.5,4.1,1s2.2,1.3,3,2.3c0.8,0.9,1.4,2.1,1.7,3.4
		c0.4,1.3,0.5,2.8,0.4,4.4l0,0.7L367,46.7z M374.9,43.4c-0.1-0.9-0.5-1.7-1.2-2.3c-0.6-0.6-1.4-0.9-2.4-1c-1-0.1-1.8,0.1-2.5,0.6
		c-0.7,0.5-1.1,1.2-1.4,2.1L374.9,43.4z"/>
	<path class="st2" d="M402.9,54.9l-7.7-16.6l7.5,0.6l4.2,9.8l5.5-9.1l7.5,0.6L403,66.7l-7.3-0.5L402.9,54.9z"/>
	<path class="st2" d="M419.7,49.3c0.1-1.4,0.5-2.6,1.1-3.8c0.6-1.1,1.5-2.1,2.5-2.9c1-0.8,2.3-1.4,3.7-1.8c1.4-0.4,2.9-0.5,4.5-0.4
		c1.6,0.1,3,0.5,4.3,1.1c1.3,0.6,2.4,1.4,3.4,2.3c0.9,0.9,1.6,2,2.1,3.3c0.5,1.2,0.6,2.6,0.5,4.1s-0.5,2.8-1.1,3.9
		c-0.7,1.2-1.5,2.2-2.5,3s-2.3,1.4-3.7,1.8c-1.4,0.4-2.9,0.5-4.5,0.4c-1.6-0.1-3-0.5-4.3-1s-2.4-1.3-3.3-2.3c-0.9-1-1.6-2.1-2-3.3
		C419.8,52.2,419.6,50.8,419.7,49.3z M426.6,49.9c0,0.6,0,1.2,0.2,1.7c0.2,0.5,0.5,1,0.8,1.4s0.8,0.7,1.3,1c0.5,0.3,1,0.4,1.6,0.4
		c0.6,0,1.1,0,1.7-0.2c0.5-0.2,1-0.4,1.4-0.8c0.4-0.4,0.7-0.8,1-1.3s0.4-1,0.5-1.6c0-0.6,0-1.1-0.2-1.7c-0.2-0.5-0.5-1-0.8-1.4
		s-0.8-0.7-1.3-1c-0.5-0.3-1-0.4-1.6-0.4s-1.1,0-1.7,0.2c-0.5,0.2-1,0.4-1.4,0.8s-0.7,0.8-1,1.3C426.7,48.8,426.6,49.3,426.6,49.9z"
		/>
	<path class="st2" d="M452.7,42.6L451.9,53c-0.2,2.3,0.8,3.5,3.1,3.7c2.2,0.2,3.4-0.9,3.6-3.2l0.8-10.4l6.5,0.5L465,55.2
		c-0.2,2.5-1.1,4.3-2.9,5.4c-1.7,1.1-4.2,1.6-7.5,1.3s-5.7-1-7.2-2.4s-2.2-3.3-2-5.8l0.9-11.6L452.7,42.6z"/>
	<path class="st2" d="M482.4,44.8l6.5,0.5l-0.2,2.3c1-1,1.9-1.7,2.9-2c0.9-0.3,2-0.4,3.2-0.3c1.3,0.1,2.4,0.4,3.3,0.9
		c0.9,0.5,1.6,1.1,2.2,2c0.5,0.7,0.8,1.4,0.9,2.2s0.2,1.7,0.1,2.6l-0.9,11.7l-6.5-0.5l0.7-9.3c0.1-0.9,0.1-1.6,0-2.2
		c-0.1-0.6-0.3-1-0.6-1.4c-0.3-0.3-0.6-0.5-0.9-0.7c-0.3-0.1-0.7-0.2-1.1-0.3c-1.1-0.1-2,0.2-2.6,0.8c-0.6,0.6-1,1.5-1.1,2.8
		l-0.7,9.8l-6.5-0.5L482.4,44.8z"/>
	<path class="st2" d="M511.4,57.3c-0.2,2.8,1,4.3,3.6,4.5c1.4,0.1,2.5-0.4,3.3-1.5l6.3,0.5c-1.6,4.1-4.9,6-10,5.6
		c-1.6-0.1-3-0.5-4.2-1c-1.3-0.6-2.3-1.3-3.2-2.2c-0.9-0.9-1.5-2-1.9-3.2c-0.4-1.2-0.6-2.6-0.5-4.1c0.1-1.5,0.5-2.9,1-4.1
		s1.3-2.2,2.3-3c0.9-0.8,2.1-1.4,3.4-1.8c1.3-0.4,2.7-0.5,4.3-0.4c1.6,0.1,2.9,0.5,4.1,1s2.2,1.3,3,2.3c0.8,0.9,1.4,2.1,1.7,3.4
		c0.4,1.3,0.5,2.8,0.4,4.4l0,0.7L511.4,57.3z M519.3,54.1c-0.1-0.9-0.5-1.7-1.2-2.3c-0.6-0.6-1.4-0.9-2.4-1c-1-0.1-1.8,0.1-2.5,0.6
		s-1.1,1.2-1.4,2.1L519.3,54.1z"/>
	<path class="st2" d="M533.7,48.6l3.7,9.8l5.1-9.1l7.3,0.5l-10.9,17.7l-4.3-0.3l-8.1-19.1L533.7,48.6z"/>
	<path class="st2" d="M556.3,60.6c-0.2,2.8,1,4.3,3.6,4.5c1.4,0.1,2.5-0.4,3.3-1.5l6.3,0.5c-1.6,4.1-4.9,6-10,5.6
		c-1.6-0.1-3-0.5-4.2-1c-1.3-0.6-2.3-1.3-3.2-2.2c-0.9-0.9-1.5-2-1.9-3.2s-0.6-2.6-0.5-4.1c0.1-1.5,0.5-2.9,1-4.1s1.3-2.2,2.3-3
		c0.9-0.8,2.1-1.4,3.4-1.8s2.7-0.5,4.3-0.4c1.6,0.1,2.9,0.5,4.1,1s2.2,1.3,3,2.3s1.4,2.1,1.7,3.4c0.4,1.3,0.5,2.8,0.4,4.4l-0.1,0.7
		L556.3,60.6z M564.2,57.4c-0.1-0.9-0.5-1.7-1.2-2.3c-0.6-0.6-1.4-0.9-2.4-1c-1-0.1-1.8,0.1-2.5,0.6c-0.7,0.5-1.1,1.2-1.4,2.1
		L564.2,57.4z"/>
	<path class="st2" d="M574.4,51.6l6.5,0.5l-0.2,3c0.8-1,1.7-1.8,2.7-2.3c1-0.5,2.2-0.7,3.6-0.6c0.2,0,0.4,0,0.6,0s0.4,0.1,0.7,0.1
		l-0.5,6.2c-0.8-0.5-1.7-0.8-2.8-0.9c-1.5-0.1-2.7,0.3-3.5,1.1c-0.8,0.8-1.3,2.1-1.4,3.8l-0.6,7.9l-6.5-0.5L574.4,51.6z"/>
	<path class="st2" d="M610.7,42.8l-1.3,18l7.3-6.1l8.9,0.7l-9.9,7.8l9,10.6l-9.1-0.7l-6.6-8l-0.6,7.5l-6.5-0.5l2.2-29.8L610.7,42.8z
		"/>
	<path class="st2" d="M628.4,55.6l6.5,0.5l-0.2,2.3c1-1,1.9-1.7,2.9-2c0.9-0.3,2-0.4,3.2-0.3c1.3,0.1,2.4,0.4,3.3,0.9s1.6,1.1,2.2,2
		c0.5,0.7,0.8,1.4,0.9,2.2c0.1,0.8,0.2,1.7,0.1,2.6l-0.9,11.7l-6.5-0.5l0.7-9.3c0.1-0.9,0.1-1.6,0-2.2c-0.1-0.6-0.3-1-0.6-1.4
		c-0.3-0.3-0.6-0.5-0.9-0.7c-0.4-0.1-0.7-0.2-1.1-0.3c-1.1-0.1-2,0.2-2.6,0.8c-0.6,0.6-1,1.5-1.1,2.8l-0.7,9.8L627,74L628.4,55.6z"
		/>
	<path class="st2" d="M650.8,66.3c0.1-1.4,0.5-2.6,1.1-3.8c0.6-1.1,1.5-2.1,2.5-2.9s2.3-1.4,3.7-1.8c1.4-0.4,2.9-0.5,4.5-0.4
		c1.6,0.1,3,0.5,4.3,1.1c1.3,0.6,2.4,1.4,3.4,2.3s1.6,2,2.1,3.3c0.5,1.2,0.6,2.6,0.5,4.1c-0.1,1.5-0.5,2.8-1.1,3.9
		c-0.7,1.2-1.5,2.2-2.5,3c-1,0.8-2.3,1.4-3.7,1.8c-1.4,0.4-2.9,0.5-4.5,0.4c-1.6-0.1-3-0.5-4.3-1c-1.3-0.6-2.4-1.3-3.3-2.3
		c-0.9-1-1.6-2.1-2-3.3C650.9,69.2,650.7,67.8,650.8,66.3z M657.7,66.9c0,0.6,0,1.2,0.2,1.7s0.5,1,0.8,1.4s0.8,0.7,1.3,1
		c0.5,0.3,1,0.4,1.6,0.4c0.6,0,1.1,0,1.7-0.2c0.5-0.2,1-0.4,1.4-0.8s0.7-0.8,1-1.3c0.3-0.5,0.4-1,0.5-1.6c0-0.6,0-1.1-0.2-1.7
		s-0.5-1-0.8-1.4s-0.8-0.7-1.3-1c-0.5-0.3-1-0.4-1.6-0.4c-0.6,0-1.1,0-1.7,0.2c-0.5,0.2-1,0.4-1.4,0.8s-0.7,0.8-1,1.3
		C657.9,65.8,657.7,66.3,657.7,66.9z"/>
	<path class="st2" d="M681.4,59.5l3.7,10l5.3-9.4l4.1,0.3l3.9,10.3l5.4-9.6l7.2,0.5l-11,17.7l-4.3-0.3l-3.9-10.4l-5.1,9.8l-4.4-0.3
		L674.2,59L681.4,59.5z"/>
	<path class="st2" d="M207.4,67.8l3.7,10l5.3-9.4l4.1,0.3l3.9,10.3l5.4-9.6L237,70l-11,17.7l-4.3-0.3L217.8,77l-5.1,9.8l-4.4-0.3
		l-8.1-19.1L207.4,67.8z"/>
	<path class="st2" d="M240,58.8l6.5,0.5l-1,13.7c1-1,1.9-1.7,2.9-2c0.9-0.3,2-0.4,3.2-0.3c2.3,0.2,4,0.9,5.1,2.3
		c1.1,1.4,1.6,3.1,1.4,5.3L257.3,90l-6.5-0.5l0.7-9.3c0.1-0.9,0.1-1.7,0-2.3c-0.1-0.6-0.3-1-0.6-1.4c-0.5-0.5-1.2-0.8-2-0.9
		c-1.1-0.1-2,0.2-2.6,0.8c-0.6,0.6-1,1.5-1.1,2.8l-0.7,9.8l-6.5-0.5L240,58.8z"/>
	<path class="st2" d="M268.1,82.7c-0.2,2.8,1,4.3,3.6,4.5c1.4,0.1,2.5-0.4,3.3-1.5l6.3,0.5c-1.6,4.1-4.9,6-10,5.6
		c-1.6-0.1-3-0.5-4.2-1c-1.3-0.6-2.3-1.3-3.2-2.2c-0.9-0.9-1.5-2-1.9-3.2s-0.6-2.6-0.5-4.1c0.1-1.5,0.5-2.9,1-4.1
		c0.6-1.2,1.3-2.2,2.3-3s2.1-1.4,3.4-1.8c1.3-0.4,2.7-0.5,4.3-0.4c1.6,0.1,2.9,0.5,4.1,1s2.2,1.3,3,2.3c0.8,0.9,1.4,2.1,1.7,3.4
		c0.4,1.3,0.5,2.8,0.4,4.4l0,0.7L268.1,82.7z M276,79.5c-0.1-0.9-0.5-1.7-1.2-2.3c-0.6-0.6-1.4-0.9-2.4-1c-1-0.1-1.8,0.1-2.5,0.6
		c-0.7,0.5-1.1,1.2-1.4,2.1L276,79.5z"/>
	<path class="st2" d="M286.3,73.6l6.5,0.5l-0.2,3c0.8-1,1.7-1.8,2.7-2.3c1-0.5,2.2-0.7,3.6-0.6c0.2,0,0.4,0,0.6,0
		c0.2,0,0.4,0.1,0.7,0.1l-0.5,6.2c-0.8-0.5-1.7-0.8-2.8-0.9c-1.5-0.1-2.7,0.3-3.5,1.1s-1.3,2.1-1.4,3.8l-0.6,7.9l-6.5-0.5
		L286.3,73.6z"/>
	<path class="st2" d="M308.3,85.6c-0.2,2.8,1,4.3,3.6,4.5c1.4,0.1,2.5-0.4,3.3-1.5l6.3,0.5c-1.6,4.1-4.9,6-10,5.6
		c-1.6-0.1-3-0.5-4.2-1c-1.3-0.6-2.3-1.3-3.2-2.2c-0.9-0.9-1.5-2-1.9-3.2s-0.6-2.6-0.5-4.1c0.1-1.5,0.5-2.9,1-4.1
		c0.6-1.2,1.3-2.2,2.3-3c0.9-0.8,2.1-1.4,3.4-1.8c1.3-0.4,2.7-0.5,4.3-0.4c1.6,0.1,2.9,0.5,4.1,1s2.2,1.3,3,2.3
		c0.8,0.9,1.4,2.1,1.7,3.4c0.4,1.3,0.5,2.8,0.4,4.4l0,0.7L308.3,85.6z M316.2,82.4c-0.1-0.9-0.5-1.7-1.2-2.3c-0.6-0.6-1.4-0.9-2.4-1
		c-1-0.1-1.8,0.1-2.5,0.6c-0.7,0.5-1.1,1.2-1.4,2.1L316.2,82.4z"/>
	<path class="st2" d="M345.5,83.5l-1,13L338,96l1-13l-2.2-0.2l0.4-5.4l2.2,0.2l0.4-5.5l6.5,0.5l-0.4,5.5l3.7,0.3l-0.4,5.4
		L345.5,83.5z"/>
	<path class="st2" d="M353.7,67.2l6.5,0.5l-1,13.7c1-1,1.9-1.7,2.9-2c0.9-0.3,2-0.4,3.2-0.3c2.3,0.2,4,0.9,5.1,2.3
		c1.1,1.4,1.6,3.1,1.4,5.3l-0.9,11.7l-6.5-0.5l0.7-9.3c0.1-0.9,0.1-1.7,0-2.3s-0.3-1-0.6-1.4c-0.5-0.5-1.2-0.8-2-0.9
		c-1.1-0.1-2,0.2-2.6,0.8s-1,1.5-1.1,2.8l-0.7,9.8l-6.5-0.5L353.7,67.2z"/>
	<path class="st2" d="M381.8,91.1c-0.2,2.8,1,4.3,3.6,4.5c1.4,0.1,2.5-0.4,3.3-1.5l6.3,0.5c-1.6,4.1-4.9,6-10,5.6
		c-1.6-0.1-3-0.5-4.2-1c-1.3-0.6-2.3-1.3-3.2-2.2c-0.9-0.9-1.5-2-1.9-3.2c-0.4-1.2-0.6-2.6-0.5-4.1c0.1-1.5,0.5-2.9,1-4.1
		s1.3-2.2,2.3-3c0.9-0.8,2.1-1.4,3.4-1.8s2.7-0.5,4.3-0.4c1.6,0.1,2.9,0.5,4.1,1s2.2,1.3,3,2.3c0.8,0.9,1.4,2.1,1.7,3.4
		c0.4,1.3,0.5,2.8,0.4,4.4l0,0.7L381.8,91.1z M389.7,87.9c-0.1-0.9-0.5-1.7-1.2-2.3c-0.6-0.6-1.4-0.9-2.4-1c-1-0.1-1.8,0.1-2.5,0.6
		c-0.7,0.5-1.1,1.2-1.4,2.1L389.7,87.9z"/>
	<path class="st2" d="M404.5,98.4l-7.7-16.6l7.5,0.6l4.2,9.8l5.5-9.1l7.5,0.6l-16.8,26.5l-7.3-0.5L404.5,98.4z"/>
	<path class="st2" d="M435.9,84.7l6.5,0.5l-0.2,2.3c1.9-1.6,3.9-2.3,6.1-2.1c2.7,0.2,4.7,1.5,6,3.9c1.6-2.2,3.8-3.2,6.5-3
		c0.9,0.1,1.7,0.2,2.4,0.6c0.7,0.3,1.4,0.8,1.9,1.3c0.5,0.6,0.9,1.3,1.2,2.2c0.3,0.9,0.3,1.9,0.3,3.2l-0.9,12l-6.5-0.5l0.7-9.1
		c0.1-0.9,0.1-1.7,0-2.3c-0.1-0.6-0.2-1.1-0.5-1.4c-0.2-0.4-0.5-0.6-0.8-0.7c-0.3-0.1-0.7-0.2-1.1-0.3c-2.1-0.2-3.2,1.3-3.5,4.3
		l-0.7,9.1l-6.5-0.5l0.7-9.1c0.1-0.9,0.1-1.7,0-2.3s-0.2-1.1-0.4-1.5s-0.5-0.6-0.8-0.8c-0.3-0.2-0.8-0.3-1.2-0.3
		c-0.4,0-0.8,0-1.2,0.1c-0.4,0.1-0.7,0.3-1,0.6c-0.3,0.3-0.6,0.8-0.8,1.4c-0.2,0.6-0.3,1.4-0.4,2.4l-0.7,9.1l-6.5-0.5L435.9,84.7z"
		/>
	<path class="st2" d="M478,87.8l-1.4,18.4l-6.5-0.5l1.4-18.4L478,87.8z M471.6,80.2c0-0.5,0.2-1,0.4-1.4c0.2-0.4,0.5-0.8,0.9-1.1
		c0.4-0.3,0.8-0.5,1.2-0.7c0.5-0.2,0.9-0.2,1.4-0.2s1,0.2,1.4,0.4s0.8,0.5,1.1,0.9c0.3,0.4,0.5,0.8,0.7,1.2c0.2,0.5,0.2,0.9,0.2,1.4
		c0,0.5-0.2,1-0.4,1.4c-0.2,0.4-0.5,0.8-0.9,1.1c-0.4,0.3-0.8,0.5-1.2,0.7c-0.5,0.2-0.9,0.2-1.4,0.2c-0.5,0-1-0.2-1.4-0.4
		c-0.4-0.2-0.8-0.5-1.1-0.9c-0.3-0.4-0.5-0.8-0.7-1.2C471.6,81.2,471.5,80.7,471.6,80.2z"/>
	<path class="st2" d="M503,89.6l-1.3,17.2c-0.1,1-0.2,1.9-0.4,2.8c-0.2,0.8-0.4,1.5-0.7,2.1c-0.3,0.8-0.8,1.5-1.5,2.1
		c-0.7,0.6-1.4,1.2-2.3,1.6c-0.9,0.4-1.9,0.8-3,1c-1.1,0.2-2.3,0.3-3.6,0.2c-1.4-0.1-2.7-0.4-3.9-0.8c-1.2-0.4-2.2-1-3-1.7
		c-0.9-0.7-1.5-1.5-2-2.4c-0.5-0.9-0.8-1.8-0.9-2.9l7.3,0.5c0.4,1.3,1.3,1.9,3,2.1c1.4,0.1,2.4-0.2,3.2-0.9c0.8-0.7,1.2-1.8,1.3-3.1
		l0.1-1.8c-0.5,0.4-1,0.8-1.5,1s-0.9,0.5-1.4,0.6c-0.5,0.2-1,0.3-1.5,0.3s-1.1,0-1.7,0c-1.3-0.1-2.5-0.4-3.6-0.9
		c-1.1-0.5-2-1.2-2.7-2.1c-0.7-0.9-1.3-1.9-1.7-3.1c-0.4-1.2-0.5-2.4-0.4-3.8c0.1-1.4,0.4-2.7,1-3.9c0.6-1.2,1.3-2.2,2.2-3
		c0.9-0.8,1.9-1.5,3.1-1.9c1.2-0.4,2.4-0.6,3.8-0.5c2.2,0.2,3.9,1.1,5.3,2.8l0.1-1.9L503,89.6z M487.8,97.7c0,0.6,0,1.2,0.2,1.7
		c0.2,0.5,0.4,1,0.8,1.4s0.8,0.7,1.3,1c0.5,0.3,1,0.4,1.6,0.4c0.6,0,1.1,0,1.7-0.2c0.5-0.2,1-0.4,1.4-0.8s0.7-0.8,1-1.3
		s0.4-1,0.5-1.6c0-0.6,0-1.2-0.2-1.7s-0.5-1-0.8-1.4c-0.4-0.4-0.8-0.7-1.3-1c-0.5-0.3-1-0.4-1.6-0.4c-0.6,0-1.1,0-1.6,0.2
		c-0.5,0.2-1,0.5-1.4,0.8s-0.7,0.8-1,1.2C488,96.6,487.8,97.1,487.8,97.7z"/>
	<path class="st2" d="M508.3,78.6l6.5,0.5l-1,13.7c1-1,1.9-1.7,2.9-2c0.9-0.3,2-0.4,3.2-0.3c2.3,0.2,4,0.9,5.1,2.3
		c1.1,1.4,1.6,3.1,1.4,5.3l-0.9,11.7l-6.5-0.5l0.7-9.3c0.1-0.9,0.1-1.7,0-2.3c-0.1-0.6-0.3-1-0.6-1.4c-0.5-0.5-1.2-0.8-2-0.9
		c-1.1-0.1-2,0.2-2.6,0.8c-0.6,0.6-1,1.5-1.1,2.8l-0.7,9.8l-6.5-0.5L508.3,78.6z"/>
	<path class="st2" d="M538.1,97.7l-1,13l-6.5-0.5l1-13l-2.2-0.2l0.4-5.4l2.2,0.2l0.4-5.5l6.5,0.5l-0.4,5.5l3.7,0.3l-0.4,5.4
		L538.1,97.7z"/>
	<path class="st2" d="M564.2,82.7l-1,13.2c1.7-1.5,3.6-2.2,5.9-2c1.4,0.1,2.6,0.5,3.7,1c1.1,0.6,2,1.4,2.8,2.3s1.3,2,1.7,3.2
		c0.4,1.2,0.5,2.5,0.4,3.8c-0.1,1.4-0.4,2.6-1,3.8c-0.6,1.2-1.3,2.2-2.2,3s-1.9,1.5-3.1,1.9c-1.2,0.4-2.4,0.6-3.7,0.5
		c-2.4-0.2-4.2-1.2-5.5-3l-0.2,2l-6.5-0.5l2.2-29.8L564.2,82.7z M570.9,104c0-0.6,0-1.1-0.2-1.7c-0.2-0.5-0.4-1-0.8-1.4
		c-0.4-0.4-0.8-0.7-1.3-1c-0.5-0.3-1-0.4-1.6-0.5c-0.6,0-1.1,0-1.6,0.2c-0.5,0.2-1,0.4-1.4,0.8s-0.7,0.8-1,1.3
		c-0.3,0.5-0.4,1-0.5,1.6c0,0.6,0,1.1,0.2,1.6c0.2,0.5,0.4,1,0.8,1.4c0.4,0.4,0.8,0.7,1.3,1c0.5,0.3,1,0.4,1.6,0.5
		c0.6,0,1.1,0,1.6-0.2c0.5-0.2,1-0.4,1.4-0.8s0.7-0.8,1-1.3S570.8,104.5,570.9,104z"/>
	<path class="st2" d="M587.1,106.2c-0.2,2.8,1,4.3,3.6,4.5c1.4,0.1,2.5-0.4,3.3-1.5l6.3,0.5c-1.6,4.1-4.9,6-10,5.6
		c-1.6-0.1-3-0.5-4.2-1c-1.3-0.6-2.3-1.3-3.2-2.2c-0.9-0.9-1.5-2-1.9-3.2c-0.4-1.2-0.6-2.6-0.5-4.1c0.1-1.5,0.5-2.9,1-4.1
		s1.3-2.2,2.3-3c0.9-0.8,2.1-1.4,3.4-1.8s2.7-0.5,4.3-0.4c1.6,0.1,2.9,0.5,4.1,1s2.2,1.3,3,2.3c0.8,0.9,1.4,2.1,1.7,3.4
		c0.4,1.3,0.5,2.8,0.4,4.4l0,0.7L587.1,106.2z M595,103c-0.1-0.9-0.5-1.7-1.2-2.3c-0.6-0.6-1.4-0.9-2.4-1c-1-0.1-1.8,0.1-2.5,0.6
		c-0.7,0.5-1.1,1.2-1.4,2.1L595,103z"/>
	<path class="st2" d="M618.3,86.7l6.5,0.5l-1,13.7c1-1,1.9-1.7,2.9-2c0.9-0.3,2-0.4,3.2-0.3c2.3,0.2,4,0.9,5.1,2.3
		c1.1,1.4,1.6,3.1,1.4,5.3l-0.9,11.7l-6.5-0.5l0.7-9.3c0.1-0.9,0.1-1.7,0-2.3s-0.3-1-0.6-1.4c-0.5-0.5-1.2-0.8-2-0.9
		c-1.1-0.1-2,0.2-2.6,0.8c-0.6,0.6-1,1.5-1.1,2.8l-0.7,9.8l-6.5-0.5L618.3,86.7z"/>
	<path class="st2" d="M647.8,100.3l-1.4,18.4l-6.5-0.5l1.4-18.4L647.8,100.3z M641.4,92.8c0-0.5,0.2-1,0.4-1.4
		c0.2-0.4,0.5-0.8,0.9-1.1c0.4-0.3,0.8-0.5,1.2-0.7s0.9-0.2,1.4-0.2s1,0.2,1.4,0.4c0.4,0.2,0.8,0.5,1.1,0.9c0.3,0.4,0.5,0.8,0.7,1.2
		c0.2,0.5,0.2,0.9,0.2,1.4c0,0.5-0.2,1-0.4,1.4s-0.5,0.8-0.9,1.1c-0.4,0.3-0.8,0.5-1.2,0.7c-0.5,0.2-0.9,0.2-1.4,0.2s-1-0.2-1.4-0.4
		c-0.4-0.2-0.8-0.5-1.1-0.9c-0.3-0.4-0.5-0.8-0.7-1.2C641.4,93.7,641.4,93.3,641.4,92.8z"/>
	<path class="st2" d="M667.3,90.3l6.5,0.5l-2.2,29.8l-6.5-0.5l0.2-2c-1.5,1.6-3.5,2.4-5.8,2.2c-1.3-0.1-2.6-0.4-3.6-1
		c-1.1-0.6-2-1.4-2.8-2.3c-0.8-0.9-1.3-2-1.7-3.3c-0.4-1.2-0.5-2.5-0.4-3.9c0.1-1.3,0.4-2.6,0.9-3.7c0.5-1.2,1.2-2.1,2.1-3
		s1.9-1.5,3.1-1.9c1.2-0.4,2.4-0.6,3.8-0.5c2.3,0.2,4.1,1.1,5.5,2.8L667.3,90.3z M657.6,110.3c0,0.6,0,1.2,0.2,1.7
		c0.2,0.5,0.4,1,0.8,1.4c0.3,0.4,0.8,0.7,1.3,1c0.5,0.3,1,0.4,1.6,0.4c0.6,0,1.1,0,1.7-0.2c0.5-0.2,1-0.4,1.4-0.8s0.7-0.8,1-1.3
		c0.3-0.5,0.4-1,0.5-1.6c0-0.6,0-1.1-0.2-1.7c-0.2-0.5-0.5-1-0.8-1.4s-0.8-0.7-1.3-1c-0.5-0.3-1-0.4-1.6-0.4c-0.6,0-1.1,0-1.7,0.2
		c-0.5,0.2-1,0.4-1.4,0.8s-0.7,0.8-1,1.2C657.8,109.2,657.7,109.7,657.6,110.3z"/>
	<path class="st2" d="M683.9,103l-1.4,18.4l-6.5-0.5l1.4-18.4L683.9,103z M677.5,95.4c0-0.5,0.2-1,0.4-1.4c0.2-0.4,0.5-0.8,0.9-1.1
		c0.4-0.3,0.8-0.5,1.2-0.7c0.5-0.2,0.9-0.2,1.4-0.2s1,0.2,1.4,0.4s0.8,0.5,1.1,0.9c0.3,0.4,0.5,0.8,0.7,1.2c0.2,0.5,0.2,0.9,0.2,1.4
		s-0.2,1-0.4,1.4c-0.2,0.4-0.5,0.8-0.9,1.1c-0.4,0.3-0.8,0.5-1.2,0.7c-0.5,0.2-0.9,0.2-1.4,0.2c-0.5,0-1-0.2-1.4-0.4
		c-0.4-0.2-0.8-0.5-1.1-0.9c-0.3-0.4-0.5-0.8-0.7-1.2C677.6,96.4,677.5,95.9,677.5,95.4z"/>
	<path class="st2" d="M688.4,103.3l6.5,0.5l-0.2,2.3c1-1,1.9-1.7,2.9-2c0.9-0.3,2-0.4,3.2-0.3c1.3,0.1,2.4,0.4,3.3,0.9
		c0.9,0.5,1.6,1.1,2.2,2c0.5,0.7,0.8,1.4,0.9,2.2c0.1,0.8,0.2,1.7,0.1,2.6l-0.9,11.7l-6.5-0.5l0.7-9.3c0.1-0.9,0.1-1.7,0-2.2
		c-0.1-0.6-0.3-1-0.6-1.4c-0.3-0.3-0.6-0.5-0.9-0.7c-0.3-0.1-0.7-0.2-1.1-0.3c-1.1-0.1-2,0.2-2.6,0.8c-0.6,0.6-1,1.5-1.1,2.8
		l-0.7,9.8l-6.5-0.5L688.4,103.3z"/>
	<path class="st2" d="M732.8,106.6l-1.3,17.2c-0.1,1-0.2,1.9-0.4,2.8c-0.2,0.8-0.4,1.5-0.7,2.1c-0.3,0.8-0.8,1.5-1.5,2.1
		c-0.7,0.6-1.4,1.2-2.3,1.6c-0.9,0.4-1.9,0.8-3,1c-1.1,0.2-2.3,0.3-3.6,0.2c-1.4-0.1-2.7-0.4-3.9-0.8c-1.2-0.4-2.2-1-3-1.7
		c-0.9-0.7-1.5-1.5-2-2.4c-0.5-0.9-0.8-1.8-0.9-2.9l7.3,0.5c0.4,1.3,1.3,1.9,3,2.1c1.4,0.1,2.4-0.2,3.2-0.9s1.2-1.8,1.3-3.1l0.1-1.8
		c-0.5,0.4-1,0.8-1.5,1c-0.5,0.3-0.9,0.5-1.4,0.6c-0.5,0.2-1,0.3-1.5,0.3s-1.1,0-1.7,0c-1.3-0.1-2.5-0.4-3.6-0.9
		c-1.1-0.5-2-1.2-2.7-2.1c-0.7-0.9-1.3-1.9-1.6-3.1c-0.4-1.2-0.5-2.4-0.4-3.8c0.1-1.4,0.4-2.7,1-3.9c0.6-1.2,1.3-2.2,2.2-3
		c0.9-0.8,1.9-1.5,3.1-1.9c1.2-0.4,2.4-0.6,3.8-0.5c2.2,0.2,3.9,1.1,5.3,2.8l0.1-1.9L732.8,106.6z M717.6,114.7c0,0.6,0,1.2,0.2,1.7
		c0.2,0.5,0.4,1,0.8,1.4s0.8,0.7,1.3,1c0.5,0.3,1,0.4,1.6,0.4c0.6,0,1.1,0,1.7-0.2s1-0.4,1.4-0.8c0.4-0.4,0.7-0.8,1-1.3
		c0.3-0.5,0.4-1,0.5-1.6c0-0.6,0-1.2-0.2-1.7c-0.2-0.5-0.5-1-0.8-1.4c-0.4-0.4-0.8-0.7-1.3-1c-0.5-0.3-1-0.4-1.6-0.4
		c-0.6,0-1.1,0-1.6,0.2c-0.5,0.2-1,0.5-1.4,0.8s-0.7,0.8-1,1.2C717.8,113.5,717.6,114.1,717.6,114.7z"/>
	<path class="st2" d="M742.7,98.6l6.1,0.5l-7.5,11.4l-4.2-0.3L742.7,98.6z M751.9,99.3l6.1,0.5l-7.5,11.4l-4.2-0.3L751.9,99.3z"/>
</g>
</svg>
