<?xml version="1.0" encoding="utf-8"?>
<!-- Generator: Adobe Illustrator 22.0.1, SVG Export Plug-In . SVG Version: 6.00 Build 0)  -->
<svg version="1.1" id="Layer_1" xmlns="http://www.w3.org/2000/svg" xmlns:xlink="http://www.w3.org/1999/xlink" x="0px" y="0px"
	 viewBox="0 0 223.5 68.4" style="enable-background:new 0 0 223.5 68.4;" xml:space="preserve">
<style type="text/css">
	.st0{fill:#1D3CD6;}
	.st1{clip-path:url(#SVGID_2_);fill:#FF80C9;}
	.st2{fill:#FF80C9;}
	.st3{clip-path:url(#SVGID_4_);fill:#1D3CD6;}
	.st4{fill:#6FD877;}
	.st5{fill:#E03620;}
	.st6{clip-path:url(#SVGID_6_);fill:#FF80C9;}
	.st7{clip-path:url(#SVGID_8_);}
	.st8{clip-path:url(#SVGID_10_);fill:#1D3CD6;}
	.st9{clip-path:url(#SVGID_12_);fill:#FF80C9;}
</style>
<g>
	<g>
		<g>
			<path class="st0" d="M61.3,34.6c0-0.6,0.2-1.1,0.4-1.7c0.3-0.5,0.6-0.9,1-1.3c0.4-0.4,0.9-0.7,1.4-0.9c0.5-0.2,1.1-0.3,1.7-0.2
				c0.6,0,1.1,0.2,1.6,0.4c0.5,0.3,0.9,0.6,1.3,1c0.4,0.4,0.6,0.9,0.8,1.4c0.2,0.5,0.3,1.1,0.2,1.7c0,0.6-0.2,1.1-0.4,1.7
				c-0.2,0.5-0.6,1-1,1.3c-0.4,0.4-0.9,0.7-1.4,0.9c-0.5,0.2-1.1,0.3-1.7,0.2c-0.6,0-1.1-0.2-1.6-0.4c-0.5-0.3-0.9-0.6-1.3-1
				c-0.4-0.4-0.6-0.9-0.8-1.4C61.3,35.8,61.2,35.2,61.3,34.6z M68.9,43.4c-0.4,8.7-0.7,13-1.1,21.7c-3.1-0.1-4.6-0.2-7.7-0.4
				c0.5-8.7,0.7-13,1.2-21.7C64.3,43.2,65.8,43.3,68.9,43.4z"/>
			<path class="st0" d="M74.1,43.7c3,0.2,4.5,0.2,7.6,0.4c0,1.1-0.1,1.6-0.1,2.7c1.1-1.2,2.2-2,3.3-2.4c1.1-0.4,2.3-0.6,3.8-0.5
				c1.5,0.1,2.8,0.4,3.8,0.9c1.1,0.5,1.9,1.3,2.7,2.2c0.6,0.8,1,1.6,1.2,2.5c0.2,0.9,0.3,1.9,0.2,3.1c-0.2,5.5-0.3,8.2-0.5,13.7
				c-3.1-0.1-4.6-0.1-7.7-0.3c0.2-4.4,0.3-6.5,0.4-10.9c0-1.1,0-1.9-0.1-2.6c-0.1-0.7-0.4-1.2-0.8-1.6c-0.3-0.4-0.7-0.6-1.1-0.8
				c-0.4-0.2-0.9-0.2-1.3-0.3c-1.3-0.1-2.3,0.3-3,1c-0.7,0.7-1.1,1.8-1.2,3.3c-0.2,4.6-0.3,6.9-0.5,11.5c-3.1-0.1-4.6-0.2-7.7-0.3
				C73.4,56.7,73.6,52.3,74.1,43.7z"/>
			<path class="st0" d="M100.7,55.4c0.1-1.6,0.4-3.1,1.1-4.4c0.7-1.4,1.6-2.5,2.8-3.5c1.2-1,2.6-1.7,4.2-2.3
				c1.6-0.5,3.3-0.8,5.2-0.7c1.8,0,3.5,0.4,5.1,1c1.6,0.6,2.9,1.4,4.1,2.5c1.1,1,2,2.3,2.6,3.7c0.6,1.4,0.9,3,0.9,4.7
				c0,1.7-0.4,3.2-1.1,4.6c-0.7,1.4-1.6,2.6-2.8,3.6c-1.2,1-2.6,1.8-4.2,2.3c-1.6,0.5-3.4,0.8-5.3,0.7c-1.9,0-3.6-0.4-5.2-1
				c-1.6-0.6-2.9-1.4-4-2.5c-1.1-1.1-2-2.3-2.6-3.8C100.9,58.8,100.6,57.1,100.7,55.4z M108.7,55.7c0,0.7,0.1,1.4,0.3,2
				c0.2,0.6,0.6,1.1,1,1.6c0.4,0.5,0.9,0.8,1.5,1.1c0.6,0.3,1.2,0.4,1.9,0.4c0.7,0,1.3-0.1,1.9-0.3c0.6-0.2,1.1-0.6,1.6-1
				c0.4-0.4,0.8-1,1.1-1.5c0.3-0.6,0.4-1.2,0.4-1.9c0-0.7-0.1-1.3-0.4-1.9c-0.3-0.6-0.6-1.1-1-1.6c-0.4-0.5-0.9-0.8-1.5-1.1
				c-0.6-0.3-1.2-0.4-1.9-0.4s-1.3,0.1-1.9,0.3c-0.6,0.2-1.1,0.6-1.6,1c-0.4,0.4-0.8,0.9-1.1,1.5C108.9,54.4,108.7,55,108.7,55.7z"
				/>
			<path class="st0" d="M145.4,51.2c-1.4-0.7-2.8-1.1-4.1-1.1c-0.7,0-1.3,0.1-1.7,0.4c-0.4,0.3-0.7,0.6-0.7,1.1c0,0.2,0,0.5,0.1,0.6
				c0.1,0.2,0.2,0.3,0.5,0.4c0.2,0.1,0.6,0.3,1,0.4c0.5,0.1,1.1,0.3,1.8,0.4c2.1,0.4,3.7,1.2,4.7,2.3c1,1.1,1.5,2.4,1.5,4.1
				c0,1.2-0.3,2.4-0.8,3.4c-0.5,1-1.2,1.8-2.1,2.5c-0.9,0.7-2,1.2-3.3,1.6c-1.3,0.4-2.7,0.5-4.2,0.5c-2.9,0-5.8-0.9-8.7-2.5
				c1.2-2.1,1.7-3.2,2.9-5.3c2.1,1.5,4.1,2.2,6.1,2.2c0.7,0,1.3-0.1,1.7-0.4c0.5-0.3,0.7-0.7,0.7-1.2c0-0.3,0-0.5-0.1-0.7
				c-0.1-0.2-0.2-0.3-0.4-0.5c-0.2-0.2-0.6-0.3-1-0.4c-0.4-0.1-1-0.3-1.7-0.4c-2.4-0.5-4-1.2-4.9-2.2c-0.9-0.9-1.4-2.2-1.4-3.9
				c0-1.2,0.3-2.3,0.7-3.2c0.5-1,1.1-1.8,2-2.4c0.8-0.7,1.9-1.2,3.1-1.5c1.2-0.3,2.5-0.5,4-0.5c2.4,0,4.7,0.5,6.9,1.4
				C146.9,48.3,146.4,49.3,145.4,51.2z"/>
			<path class="st0" d="M160.1,45.8c0,4.8,0,7.2,0,12c0,2.6,1.3,3.9,3.9,3.9c2.6,0,3.9-1.3,3.9-4c0-4.8,0-7.2-0.1-11.9
				c3,0,4.6,0,7.6-0.1c0.1,5.3,0.1,8,0.1,13.4c0,2.9-0.9,5-2.8,6.5c-1.9,1.5-4.8,2.2-8.7,2.2c-3.8,0-6.7-0.7-8.7-2.1
				c-1.9-1.4-2.9-3.6-2.9-6.5c0-5.4,0-8.1,0-13.4C155.5,45.8,157,45.8,160.1,45.8z"/>
			<path class="st0" d="M180.5,45.7c3,0,4.6-0.1,7.6-0.1c0,1.4,0,2.1,0.1,3.5c0.8-1.3,1.8-2.3,2.9-3c1.2-0.7,2.5-1.1,4.1-1.1
				c0.2,0,0.4,0,0.6,0c0.2,0,0.5,0,0.8,0.1c0.1,2.8,0.1,4.3,0.2,7.1c-1-0.5-2.1-0.7-3.3-0.7c-1.8,0-3.1,0.6-3.9,1.6
				c-0.9,1-1.3,2.6-1.2,4.5c0.1,3.6,0.1,5.4,0.2,9c-3.1,0.1-4.6,0.1-7.7,0.2C180.7,58.3,180.6,54.1,180.5,45.7z"/>
			<path class="st0" d="M207.5,56.9c0.1,3.2,1.7,4.7,4.8,4.6c1.7-0.1,2.9-0.8,3.7-2.1c3-0.1,4.4-0.2,7.4-0.3c-1.3,4.8-5,7.4-11,7.6
				c-1.8,0.1-3.5-0.1-5.1-0.6c-1.5-0.5-2.9-1.2-4-2.1c-1.1-0.9-2-2.1-2.6-3.4c-0.6-1.3-1-2.9-1-4.6c0-1.7,0.2-3.3,0.7-4.8
				c0.5-1.4,1.3-2.6,2.3-3.6c1-1,2.2-1.8,3.7-2.4c1.5-0.6,3.1-0.9,4.9-0.9c1.8-0.1,3.5,0.2,4.9,0.6c1.5,0.5,2.7,1.2,3.8,2.2
				c1,1,1.9,2.2,2.4,3.6c0.6,1.4,0.9,3.1,1,4.9c0,0.3,0,0.5,0,0.8C217.1,56.5,213.9,56.7,207.5,56.9z M216.3,52.3
				c-0.3-1-0.8-1.8-1.6-2.4c-0.8-0.6-1.8-0.9-2.9-0.8c-1.2,0-2.1,0.4-2.9,1c-0.7,0.6-1.2,1.5-1.3,2.6
				C211,52.4,212.8,52.4,216.3,52.3z"/>
		</g>
	</g>
	<g>
		<path class="st0" d="M0,0h24.3c4.3,0,8.4,0.9,12.1,2.6c3.8,1.7,7.1,4,9.9,6.9c2.8,2.9,5,6.2,6.7,10.1c1.6,3.8,2.4,7.8,2.4,12
			c0,4.1-0.8,8.1-2.4,12c-1.6,3.8-3.8,7.2-6.6,10.1c-2.8,2.9-6.1,5.2-9.9,7c-3.8,1.7-7.8,2.6-12.2,2.6H0V0z M16.5,49.4h3.8
			c2.9,0,5.4-0.4,7.6-1.3s4.1-2.1,5.7-3.7c1.5-1.6,2.7-3.4,3.5-5.6c0.8-2.2,1.2-4.5,1.2-7.1c0-2.5-0.4-4.9-1.3-7.1
			c-0.8-2.2-2-4.1-3.6-5.6c-1.5-1.6-3.4-2.8-5.7-3.7c-2.2-0.9-4.8-1.3-7.6-1.3h-3.8V49.4z"/>
	</g>
	<path class="st0" d="M26.2,62.9l-14.1,0.4l4.1-14.1h6.6c0,0,6.6-0.8,10.7-5l1.7,14.9L26.2,62.9z"/>
	<g>
		<defs>
			<path id="SVGID_5_" d="M57.9,49.4H37.8L29.9,47c0,0-3.5,1.9-6.7,2.2c-0.3,0-0.7,0.1-1.1,0.1c-0.9,0.1-5.6,0-5.6,0l0-47.2h41.4
				v42.8V49.4z"/>
		</defs>
		<clipPath id="SVGID_2_">
			<use xlink:href="#SVGID_5_"  style="overflow:visible;"/>
		</clipPath>
		<path class="st1" d="M49.7,34.2c-2.3-1.7-4.1-3.5-4.4-6.3c3.2-3.9,8.2-4.2,12-7c-3.6,1-7.3,2-10.9,3c-0.1-0.1-0.1-0.3-0.2-0.4
			c2.4-1.3,4.7-2.6,7.1-4c-5.1,1.1-9.8,2.9-13.7,6.1C37.1,24.8,36,22.9,35,21c-0.8-1.5-1.4-3.1-2.4-4.5c-1.3-1.9-2.9-3.4-5.5-3.5
			c-3,0-3.9,2.8-5.9,4.1c0.8,2.4-1.4,3-2.6,4.3c-1.1-0.2-2.2-0.3-3.3-0.5c-0.6-0.1-1.2-0.2-1.8-0.3l3.5,34.4
			c0.8,2.6,1.8,5.1,2.7,7.5c5.5,1.1,6,1,8.8-1.4c-6.1-2-5.5-7-5.4-11.8c1.3,3.3,2.5,6.7,3.7,9.8c3.2,0.4,5.8,1.3,8.6-1.1
			c-4.5-1-5.3-3.9-5.7-7.7c-0.4-3.6,1-6.3,2.1-9.8c1.3,0.3,2.6,0.4,3.7,0.9c2.2,1,4.3,2.3,6.4,3.4c1.9,0.9,3.9,1.8,6.1,0.8
			c-0.2-1.7-2.8-2.4-1.7-4.6c3.1-0.2,3.5,2.7,4.6,4.6c2.9-2.1,3.7-3.3,3.2-6.1c-0.5-2.8-0.7-5.5-0.1-8.3c0-0.2-0.3-0.4-0.5-0.7
			C52.2,31.8,51,33,49.7,34.2z"/>
	</g>
</g>
</svg>
