<svg width="119" height="39" xmlns="http://www.w3.org/2000/svg" xmlns:xlink="http://www.w3.org/1999/xlink"><defs><path id="a" d="M18.83 18V.1H.2V18h18.63z"/><path id="c" d="M0 0v39h32V0z"/></defs><g fill="none" fill-rule="evenodd"><path d="M56.96 27.68v-8.1c0-.17-.14-.3-.32-.3h-8.28c-.18 0-.32.13-.32.3v8.1c0 .18-.14.32-.32.32h-4.4c-.18 0-.32-.14-.32-.32V6.32c0-.18.14-.32.32-.32h4.4c.18 0 .32.14.32.32v7.96c0 .18.14.32.32.32h8.28c.18 0 .32-.14.32-.32V6.32c0-.18.15-.32.32-.32h4.4c.18 0 .32.14.32.32v21.36c0 .18-.14.32-.32.32h-4.4c-.17 0-.32-.14-.32-.32m17.6-12.74c-1.9 0-3.2 1.28-3.67 3.3-.1.2.1.37.3.37h6.6c.2 0 .3-.1.3-.3-.4-2-1.68-3.3-3.6-3.3m8.1 6.78H71.3c-.22 0-.38.2-.32.4.58 1.96 2.07 2.98 4.13 2.98 1.6 0 2.8-.45 4-1.57.2-.1.3-.1.5 0l2.4 2.1c.13.1.15.3.04.4-1.6 1.87-3.87 3-6.9 3-5.2 0-9.04-3.65-9.04-8.93V20c0-4.94 3.52-9 8.56-9 5.8 0 8.46 4.48 8.46 9.4v.05c0 .37 0 .63-.03.94 0 .1-.16.2-.3.2m14.1-5.4c-3.15 0-5.07 2-5.07 6.2v6.2c0 .2-.1.32-.3.32h-4.1c-.14 0-.3-.15-.3-.33v-17c0-.2.16-.33.3-.33h4.1c.2 0 .3.14.3.32v1.87c0 .36.4.47.58.2.95-1.67 2.3-2.7 4.45-2.7.18 0 .3.14.3.32v4.93h-.23z" fill="#404042"/><g transform="translate(100 11)"><mask id="b" fill="#fff"><use xlink:href="#a"/></mask><path d="M14 9.04C14 6.5 12.2 4.3 9.5 4.3c-2.8 0-4.47 2.14-4.47 4.68v.06c0 2.54 1.83 4.76 4.52 4.76 2.8 0 4.46-2.16 4.46-4.7v-.06zM9.5 18C4.15 18 .2 14.05.2 9.1v-.06C.2 4.1 4.2.1 9.56.1c5.33 0 9.28 3.94 9.28 8.88v.06c0 4.96-4 8.96-9.34 8.96z" fill="#404042" mask="url(#b)"/></g><mask id="d" fill="#fff"><use xlink:href="#c"/></mask><path d="M21.2 27.13v-8.6H10.8v8.6c0 .14-.08.26-.2.32-.05.04-.12.05-.18.05-.07 0-.13-.02-.2-.05l-2.47-1.5c-.12-.06-.18-.2-.18-.32V7.4c0-.2.16-.37.37-.37h2.48c.2 0 .37.17.37.38v7.9h10.4V7.4c0-.2.1-.37.3-.37H24c.2 0 .4.17.4.38v7.9h4.34v-12H3.22v24.3l13.1 8.06 12.46-8v-4.9c0-.2.16-.36.37-.36h2.48c.2 0 .37.13.37.33v5.2c0 .9-.46 1.76-1.23 2.25l-13 8.37c-.44.28-.93.42-1.44.42-.5 0-.97-.14-1.4-.4L1.3 30.23c-.8-.5-1.28-1.37-1.28-2.3V2.68C0 1.2 1.2 0 2.66 0h26.68C30.8 0 32 1.2 32 2.68v15.46c0 .2-.16.38-.37.38h-7.2v7.1c0 .14-.06.27-.18.33l-2.48 1.5c-.06.03-.12.05-.2.05-.05 0-.12 0-.17-.05-.12-.06-.2-.18-.2-.32" fill="#E54146" mask="url(#d)"/></g></svg>