<svg xmlns="http://www.w3.org/2000/svg" xmlns:xlink="http://www.w3.org/1999/xlink" version="1.1" x="0px" y="0px" viewBox="0 0 100 125" enable-background="new 0 0 100 100" xml:space="preserve"><path fill="none" stroke="#000000" stroke-width="2" stroke-linecap="round" stroke-miterlimit="10" d="M87.145,32.792  c0,8.386-6.798,14.813-15.185,14.813l0,0c-8.384,0-15.182-6.428-15.182-14.813"/><path fill="none" stroke="#000000" stroke-width="2" stroke-linecap="round" stroke-linejoin="round" stroke-miterlimit="10" d="  M40.762,47.002C46.656,49.4,51,56.82,51,63.976"/><path fill="none" stroke="#000000" stroke-width="2" stroke-linecap="round" stroke-linejoin="round" stroke-miterlimit="10" d="  M10.125,83.244V63.976c0-7.138,3.736-13.402,9.357-16.946"/><g><circle cx="36.521" cy="34.93" r="1.997"/><circle cx="23.614" cy="34.93" r="1.998"/></g><path fill="none" stroke="#000000" stroke-width="2" stroke-linecap="round" stroke-miterlimit="10" d="M32.744,43.715  c-0.351,0.815-1.165,1.631-2.604,1.631s-2.332-0.815-2.604-1.631"/><path fill="none" stroke="#000000" stroke-width="2" stroke-linecap="round" stroke-linejoin="round" stroke-miterlimit="10" d="  M30.108,34.697c0,0-0.997,1.974-0.997,5.108h2.6"/><path fill="none" stroke="#000000" stroke-width="2" stroke-linecap="round" stroke-miterlimit="10" d="M52.401,53.418  c-3.951,0-3.84-5.059-3.84-5.059V30.339c0-10.124-8.208-18.331-18.332-18.331l0,0c-10.124,0-18.329,8.207-18.329,18.331v18.021  c0,0,0.637,5.059-4.513,5.059"/><path fill="none" stroke="#000000" stroke-width="2" stroke-linecap="round" stroke-linejoin="round" stroke-miterlimit="10" d="  M82.76,43.646c5.64,3.549,9.382,9.836,9.366,16.992l-0.012,22.605"/><path fill="none" stroke="#000000" stroke-width="2" stroke-linecap="round" stroke-linejoin="round" stroke-miterlimit="10" d="  M51,63.976c0.015-7.138,2.232-17.803,10.481-20.36"/><g><circle cx="78.518" cy="30.123" r="1.997"/><circle cx="65.61" cy="30.123" r="1.997"/></g><path fill="none" stroke="#000000" stroke-width="2" stroke-linecap="round" stroke-miterlimit="10" d="M75.228,39.522  c-0.426,0.992-1.415,1.982-3.164,1.982c-1.747,0-2.835-0.99-3.164-1.982"/><path fill="none" stroke="#000000" stroke-width="2" stroke-linecap="round" stroke-linejoin="round" stroke-miterlimit="10" d="  M72.53,30.199c0,0-1.443,2.291-1.443,6.008h2.6"/><path fill="none" stroke="#000000" stroke-width="2" stroke-linecap="round" stroke-miterlimit="10" d="M90.296,26.278"/><path fill="none" stroke="#000000" stroke-width="2" stroke-linecap="round" stroke-miterlimit="10" d="M51.664,25.32"/><path fill="none" stroke="#000000" stroke-width="2" stroke-linecap="round" stroke-linejoin="round" stroke-miterlimit="10" d="  M51.718,25.502"/><path fill="none" stroke="#000000" stroke-width="2" stroke-linecap="round" stroke-linejoin="round" stroke-miterlimit="10" d="  M87.146,33.026L87.146,33.026c0,0-0.112-6.334,3.197-6.334l0,0"/><g><path fill="none" stroke="#000000" stroke-width="2" stroke-linecap="round" stroke-linejoin="round" stroke-miterlimit="10" d="   M52.401,28.769v4.135c0,1.543,1.251,2.794,2.793,2.794l0,0"/><line fill="none" stroke="#000000" stroke-width="2" stroke-linecap="round" stroke-linejoin="round" stroke-miterlimit="10" x1="56.445" y1="35.697" x2="55.194" y2="35.697"/></g><g><path fill="none" stroke="#000000" stroke-width="2" stroke-linecap="round" stroke-linejoin="round" stroke-miterlimit="10" d="   M91.188,28.769v4.135c0,1.543-1.251,2.794-2.793,2.794l0,0"/><line fill="none" stroke="#000000" stroke-width="2" stroke-linecap="round" stroke-linejoin="round" stroke-miterlimit="10" x1="88.396" y1="35.697" x2="87.145" y2="35.697"/></g><path fill="none" stroke="#000000" stroke-width="2" stroke-linecap="round" stroke-linejoin="round" stroke-miterlimit="10" d="  M45.17,29.582H32.298c-9.227,0-10.682-7.337-10.682-7.337s-6.57,2.366-6.57,10.351v3.758c0,8.318,6.743,15.062,15.062,15.062l0,0  c8.318,0,15.062-6.744,15.062-15.062V29.582"/><path fill="none" stroke="#000000" stroke-width="2" stroke-linecap="round" stroke-linejoin="round" stroke-miterlimit="10" d="  M90.343,26.692c1.088,0,1.011-1.356,1.011-1.356c0-10.731-8.698-19.429-19.428-19.429l0,0c-10.729,0-19.428,8.697-19.428,19.429  c0,0-0.097,1.607,1.133,1.59c3.146-0.045,3.147,5.866,3.147,5.866"/><path fill="none" stroke="#000000" stroke-width="2" stroke-linecap="round" stroke-linejoin="round" stroke-miterlimit="10" d="  M85.013,30.46V25.4c-3.05,0.317-7.117-4.137-7.117-4.137c-5.509,5.589-18.871,4.007-18.871,4.007v5.189"/><path fill="none" stroke="#000000" stroke-width="2" stroke-linecap="round" stroke-linejoin="round" stroke-miterlimit="10" d="  M75.014,78.545c4.035,2.528,6.716,7.014,6.716,12.125v3.733"/><path fill="none" stroke="#000000" stroke-width="2" stroke-linecap="round" stroke-linejoin="round" stroke-miterlimit="10" d="  M53.13,94.403V90.67c0-5.1,2.669-9.573,6.687-12.104"/><g><circle cx="70.886" cy="70.65" r="1.497"/><circle cx="64.038" cy="70.65" r="1.497"/></g><path fill="none" stroke="#000000" stroke-width="2" stroke-linecap="round" stroke-miterlimit="10" d="M69.414,75.811  c-0.264,0.612-0.874,1.224-1.952,1.224c-1.08,0-1.75-0.611-1.953-1.224"/><path fill="none" stroke="#000000" stroke-width="2" stroke-linecap="round" stroke-miterlimit="10" d="M79.94,78.545  c0,0-1.369,0.963-4.927,0"/><path fill="none" stroke="#000000" stroke-width="2" stroke-linecap="round" stroke-linejoin="round" stroke-miterlimit="10" d="  M84.52,75.811h-3.935v-7.195c0-7.231-5.862-13.094-13.094-13.094l0,0c-7.231,0-13.093,5.862-13.093,13.094v7.195H50.71"/><path fill="none" stroke="#000000" stroke-width="2" stroke-linecap="round" stroke-linejoin="round" stroke-miterlimit="10" d="  M56.645,69.11v1.829c0,5.942,4.817,10.758,10.759,10.758l0,0c5.943,0,10.76-4.815,10.76-10.758v-1.746"/><path fill="none" stroke="#000000" stroke-width="2" stroke-linecap="round" stroke-linejoin="round" stroke-miterlimit="10" d="  M78.163,66.103"/><path fill="none" stroke="#000000" stroke-width="2" stroke-linecap="round" stroke-miterlimit="10" d="M65.199,63.609  c0,0,0,3.836,3.835,3.836"/><line fill="none" stroke="#000000" stroke-width="2" stroke-linecap="round" stroke-miterlimit="10" x1="79.94" y1="78.545" x2="82.094" y2="81.034"/><line fill="none" stroke="#000000" stroke-width="2" stroke-linecap="round" stroke-linejoin="round" stroke-miterlimit="10" x1="83.459" y1="78.545" x2="82.673" y2="78.188"/><path fill="none" stroke="#000000" stroke-width="2" stroke-linecap="round" stroke-miterlimit="10" d="M54.889,78.726  c0,0,1.368,0.961,4.928,0"/><line fill="none" stroke="#000000" stroke-width="2" stroke-linecap="round" stroke-miterlimit="10" x1="54.889" y1="78.726" x2="52.734" y2="81.213"/><line fill="none" stroke="#000000" stroke-width="2" stroke-linecap="round" stroke-linejoin="round" stroke-miterlimit="10" x1="51.369" y1="78.726" x2="52.155" y2="78.367"/><path fill="none" stroke="#000000" stroke-width="2" stroke-linecap="round" stroke-linejoin="round" stroke-miterlimit="10" d="  M41.953,78.545c4.034,2.529,6.716,7.014,6.716,12.126v3.732"/><path fill="none" stroke="#000000" stroke-width="2" stroke-linecap="round" stroke-linejoin="round" stroke-miterlimit="10" d="  M20.07,94.403v-3.732c0-5.1,2.667-9.573,6.684-12.105"/><g><circle cx="37.825" cy="70.651" r="1.498"/><circle cx="30.977" cy="70.651" r="1.498"/></g><path fill="none" stroke="#000000" stroke-width="2" stroke-linecap="round" stroke-miterlimit="10" d="M36.353,75.812  c-0.263,0.612-0.874,1.224-1.951,1.224c-1.079,0-1.751-0.611-1.954-1.224"/><path fill="none" stroke="#000000" stroke-width="2" stroke-linecap="round" stroke-linejoin="round" stroke-miterlimit="10" d="  M23.584,70.94l-2.247-2.324c0-7.231,5.862-13.095,13.093-13.095l0,0c7.232,0,13.095,5.863,13.095,13.095l-2.422,2.324"/><path fill="none" stroke="#000000" stroke-width="2" stroke-linecap="round" stroke-linejoin="round" stroke-miterlimit="10" d="  M23.584,70.94L23.584,70.94c0,5.942,4.817,10.758,10.759,10.758l0,0c5.942,0,10.76-4.815,10.76-10.758l0,0"/><path fill="none" stroke="#000000" stroke-width="2" stroke-linecap="round" stroke-linejoin="round" stroke-miterlimit="10" d="  M45.103,66.104"/><path fill="none" stroke="#000000" stroke-width="2" stroke-linecap="round" stroke-miterlimit="10" d="M32.139,63.61  c0,0,0,3.836,3.834,3.836"/><g><path fill="none" stroke="#000000" stroke-width="2" stroke-linecap="round" stroke-linejoin="round" stroke-miterlimit="10" d="   M44.82,74.534c0,0,3.07,0.322,2.996-3.518"/><path fill="none" stroke="#000000" stroke-width="2" stroke-linecap="round" stroke-linejoin="round" stroke-miterlimit="10" d="   M23.981,74.534c0,0-3.071,0.322-2.996-3.518"/></g></svg>
