<svg xmlns="http://www.w3.org/2000/svg" xmlns:xlink="http://www.w3.org/1999/xlink" version="1.1" x="0px" y="0px" viewBox="0 0 100 125" enable-background="new 0 0 100 100" xml:space="preserve" style="fill:white;"><path d="M78.318,34.993l-1.06-0.244c-7.029-1.622-14.097-2.606-21.174-2.967v-6.4h-4.467c0.398-6.847,3.831-10.788,6.163-12.681  c0.438,0.225,0.927,0.364,1.454,0.364c1.767,0,3.199-1.432,3.199-3.199s-1.432-3.199-3.199-3.199c-1.767,0-3.199,1.432-3.199,3.199  c0,0.074,0.017,0.142,0.022,0.215c-2.855,2.239-7.146,6.986-7.565,15.301h-4.576v6.4c-7.076,0.361-14.144,1.345-21.173,2.967  l-1.06,0.244L16.161,77.8l-0.013,0.2c0,8.454,6.496,15.333,14.479,15.333h38.744c7.984,0,14.48-6.878,14.48-15.333L78.318,34.993z   M47.045,28.51h5.91v3.15c-1.97-0.049-3.94-0.049-5.91,0V28.51z M69.372,90.204H30.628c-6.228,0-11.301-5.421-11.35-12.106  l5.228-40.541c16.924-3.747,34.064-3.747,50.988,0l5.228,40.541C80.674,84.783,75.601,90.204,69.372,90.204z"/><path d="M67.149,68.739c0.206-0.505,0.296-1.051,0.231-1.607c-0.102-0.867-0.536-1.641-1.221-2.182  c-1.415-1.115-3.474-0.873-4.588,0.541c-1.116,1.414-0.874,3.472,0.541,4.59c0.011,0.009,0.024,0.014,0.035,0.023  c-2.257,1.495-3.751,4.055-3.751,6.959c0,4.601,3.743,8.344,8.344,8.344s8.344-3.743,8.344-8.344  C75.085,72.6,71.56,68.954,67.149,68.739z M66.74,82.278c-2.875,0-5.215-2.34-5.215-5.215c0-1.837,0.96-3.447,2.399-4.376  l1.307,4.788c0.19,0.696,0.82,1.153,1.509,1.153c0.136,0,0.275-0.018,0.413-0.056c0.833-0.228,1.325-1.088,1.098-1.922l-1.305-4.782  c2.779,0.11,5.011,2.389,5.011,5.194C71.956,79.938,69.616,82.278,66.74,82.278z"/><path d="M51.956,71.133c0-0.864-0.7-1.565-1.565-1.565s-1.565,0.7-1.565,1.565v7.494h-2.043v3.129h2.043v1.043  c0,0.864,0.7,1.565,1.565,1.565s1.565-0.7,1.565-1.565v-1.043h2.042v-3.129h-2.042V71.133z"/><path d="M69.557,40.172H30.443v21.504h39.114V40.172z M50.855,58.548l-3.348-5.219l-2.634,1.69l2.264,3.529h-6.259  c0.747-4.365,4.547-7.7,9.122-7.7c4.574,0,8.374,3.335,9.121,7.7H50.855z M66.428,58.548h-4.144  C61.51,52.452,56.303,47.719,50,47.719s-11.511,4.733-12.284,10.829h-4.144V43.302h32.855V58.548z"/><path d="M42.529,69.104c0-1.801-1.466-3.267-3.267-3.267s-3.267,1.466-3.267,3.267c0,0.014,0.004,0.028,0.004,0.042  c-0.825-0.274-1.704-0.427-2.619-0.427c-4.601,0-8.344,3.743-8.344,8.344c0,4.601,3.743,8.344,8.344,8.344s8.344-3.743,8.344-8.344  c0-1.803-0.581-3.47-1.557-4.836C41.527,71.831,42.529,70.589,42.529,69.104z M33.38,82.278c-2.875,0-5.215-2.34-5.215-5.215  s2.34-5.215,5.215-5.215c0.593,0,1.153,0.121,1.685,0.304l-2.943,3.982c-0.514,0.695-0.367,1.675,0.328,2.188  c0.28,0.206,0.606,0.306,0.929,0.306c0.479,0,0.952-0.22,1.259-0.635l2.947-3.987c0.628,0.861,1.01,1.912,1.01,3.057  C38.595,79.938,36.256,82.278,33.38,82.278z"/></svg>
