<?xml version="1.0" encoding="utf-8"?>
<!-- Generator: Adobe Illustrator 22.0.1, SVG Export Plug-In . SVG Version: 6.00 Build 0)  -->
<svg version="1.1" id="Layer_1" xmlns="http://www.w3.org/2000/svg" xmlns:xlink="http://www.w3.org/1999/xlink" x="0px" y="0px"
	 viewBox="0 0 129 129" style="enable-background:new 0 0 129 129;" xml:space="preserve">
<style type="text/css">
	.st0{fill:#1D3CD6;}
	.st1{clip-path:url(#SVGID_2_);fill:#FF80C9;}
	.st2{fill:#FF80C9;}
	.st3{clip-path:url(#SVGID_4_);fill:#1D3CD6;}
	.st4{fill:#6FD877;}
	.st5{fill:#E03620;}
	.st6{clip-path:url(#SVGID_6_);fill:#FF80C9;}
	.st7{clip-path:url(#SVGID_8_);}
	.st8{clip-path:url(#SVGID_10_);fill:#1D3CD6;}
	.st9{fill:#FFFFFF;}
</style>
<g>
	<path class="st9" d="M53.1,100.5v21.3c0,1.7,1.4,3,3,3h42.6c1.7,0,3-1.4,3-3v-21.3c0-1.7-1.4-3-3-3H56.1
		C54.4,97.4,53.1,98.8,53.1,100.5z"/>
	<path class="st9" d="M0.5,100.5v21.3c0,1.7,1.4,3,3,3h42.6c1.7,0,3-1.4,3-3v-21.3c0-1.7-1.4-3-3-3H3.5C1.9,97.4,0.5,98.8,0.5,100.5
		z"/>
	<path class="st9" d="M101.8,59.6V38.3c0-1.7-1.4-3-3-3H56.1c-1.7,0-3,1.4-3,3v21.3c0,1.7,1.4,3,3,3h42.6
		C100.4,62.7,101.8,61.3,101.8,59.6z"/>
	<path class="st9" d="M0.5,38.3v21.3c0,1.7,1.4,3,3,3h42.6c1.7,0,3-1.4,3-3V38.3c0-1.7-1.4-3-3-3H3.5C1.9,35.3,0.5,36.6,0.5,38.3z"
		/>
	<path class="st9" d="M76.2,28.5V7.2c0-1.7-1.4-3-3-3H30.5c-1.7,0-3,1.4-3,3v21.3c0,1.7,1.4,3,3,3h42.6
		C74.8,31.6,76.2,30.2,76.2,28.5z"/>
	<path class="st9" d="M72.2,66.3H29.6c-1.7,0-3,1.4-3,3v21.3c0,1.7,1.4,3,3,3h42.6c1.7,0,3-1.4,3-3V69.4
		C75.3,67.7,73.9,66.3,72.2,66.3z"/>
	<path class="st9" d="M82.8,93.7h42.6c1.7,0,3-1.4,3-3V69.4c0-1.7-1.4-3-3-3H82.8c-1.7,0-3,1.4-3,3v21.3
		C79.8,92.4,81.1,93.7,82.8,93.7z"/>
</g>
</svg>
