<svg xmlns="http://www.w3.org/2000/svg" xmlns:xlink="http://www.w3.org/1999/xlink" version="1.1" x="0px" y="0px" viewBox="0 0 64 80" style="enable-background:new 0 0 64 64;" xml:space="preserve"><g><path d="M33,16v-1c1.654,0,3-1.346,3-3s-1.346-3-3-3h-2c-0.551,0-1-0.448-1-1s0.449-1,1-1h2c0.551,0,1,0.448,1,1h2   c0-1.654-1.346-3-3-3V4h-2v1c-1.654,0-3,1.346-3,3s1.346,3,3,3h2c0.551,0,1,0.448,1,1s-0.449,1-1,1h-2c-0.551,0-1-0.448-1-1h-2   c0,1.654,1.346,3,3,3v1H33z"/><path d="M33,35.535l5.328-3.552C43.138,31.809,47,27.852,47,23v-1h-1c-4.775,0-8.683,3.742-8.972,8.446L33,33.132V18.941   c4.493-0.499,8-4.316,8-8.941c0-4.963-4.038-9-9-9s-9,4.037-9,9c0,4.625,3.507,8.442,8,8.941v9.191l-4.028-2.685   C26.683,20.742,22.775,17,18,17h-1v1c0,4.852,3.862,8.809,8.672,8.983L31,30.535V39H15v8h3.117l2,16h23.766l2-16H49v-8H33V35.535z    M44.916,24.084c-0.467,2.994-2.838,5.365-5.832,5.832C39.551,26.922,41.922,24.551,44.916,24.084z M19.084,19.084   c2.994,0.467,5.365,2.838,5.832,5.832C21.922,24.449,19.551,22.078,19.084,19.084z M25,10c0-3.859,3.14-7,7-7s7,3.141,7,7   s-3.14,7-7,7S25,13.859,25,10z M42.117,61H21.883l-1.75-14h23.734L42.117,61z M47,45h-0.867H17.867H17v-4h30V45z"/><polygon points="62,11 60,11 60,9 58,9 58,11 56,11 56,13 58,13 58,15 60,15 60,13 62,13  "/><polygon points="51,10 53,10 53,7 56,7 56,5 53,5 53,2 51,2 51,5 48,5 48,7 51,7  "/><polygon points="54,15 52,15 52,17 50,17 50,19 52,19 52,21 54,21 54,19 56,19 56,17 54,17  "/><polygon points="16,11 16,9 14,9 14,7 12,7 12,9 10,9 10,11 12,11 12,13 14,13 14,11  "/><polygon points="7,13 5,13 5,16 2,16 2,18 5,18 5,21 7,21 7,18 10,18 10,16 7,16  "/></g></svg>
