<?xml version="1.0" encoding="utf-8"?>
<!-- Generator: Adobe Illustrator 22.0.1, SVG Export Plug-In . SVG Version: 6.00 Build 0)  -->
<svg version="1.1" id="Layer_1" xmlns="http://www.w3.org/2000/svg" xmlns:xlink="http://www.w3.org/1999/xlink" x="0px" y="0px"
	 viewBox="0 0 129 129" style="enable-background:new 0 0 129 129;" xml:space="preserve">
<style type="text/css">
	.st0{fill:#1D3CD6;}
	.st1{clip-path:url(#SVGID_2_);fill:#FF80C9;}
	.st2{fill:#FF80C9;}
	.st3{clip-path:url(#SVGID_4_);fill:#1D3CD6;}
	.st4{fill:#6FD877;}
	.st5{fill:#E03620;}
	.st6{clip-path:url(#SVGID_6_);fill:#FF80C9;}
	.st7{clip-path:url(#SVGID_8_);}
	.st8{clip-path:url(#SVGID_10_);fill:#1D3CD6;}
	.st9{fill:#FFFFFF;}
</style>
<g>
	<defs>
		<rect id="SVGID_7_" x="-1538" y="42.6" width="1369" height="506.4"/>
	</defs>
	<clipPath id="SVGID_2_">
		<use xlink:href="#SVGID_7_"  style="overflow:visible;"/>
	</clipPath>
	<g style="clip-path:url(#SVGID_2_);">
		<g>
			<defs>
				<rect id="SVGID_9_" x="-435" y="92.3" width="266" height="456.7"/>
			</defs>
			<clipPath id="SVGID_4_">
				<use xlink:href="#SVGID_9_"  style="overflow:visible;"/>
			</clipPath>
		</g>
	</g>
</g>
<g>
	<path class="st9" d="M87,122.1L87,122.1c-1,0-1.8-0.8-1.8-1.8V58.2h3.6v62.2C88.8,121.3,88,122.1,87,122.1z"/>
	<path class="st9" d="M126.4,15.9c1.2,0,2.1-1,2.1-2.2c0-1.2-0.9-2.2-2.1-2.2H82.3V8.7c0-0.8-0.6-1.4-1.4-1.4h-5.5
		c-0.8,0-1.4,0.6-1.4,1.4v2.9H25.7c-1.2,0-2.1,1-2.1,2.2c0,1.2,0.9,2.2,2.1,2.2h48.3v2.4c-2.8,0.2-5.7,0.6-8.2,1.3
		c0,0-0.9,0.6,0.7,1.2l-3,5.8l-42.1,2.5c0,0-9.3-16-12.2-20.2c-3-4.2-8.6-0.4-8.6-0.4l4.9,15.5l-3.6,6.4l-0.1,2.2l3.7,3.4
		c0,0-0.4,3.3-0.8,4.8c-0.4,1.4,3.8,2.2,6.6,2.5l9.4-8.9L58.7,36c0,0,14.6,9.4,21.5,10.8v7.9h4.2v-7.6c3.8,0.2,10.2,0.5,16.9,0.4
		l-0.1,7.2v0l-25.1,0c-1.2,0-2.1,1-2.1,2.2s0.9,2.2,2.1,2.2h26.3c0.3,0,0.8,0.1,1.5,0.1c2.2,0,6.1-0.5,8.6-3.3
		c1.9-2.2,2.6-5.3,2-9.3c7-1.1,12.6-3.2,13.1-7.3c0,0-2.1-13.4-25.4-15.1l-7.3-4c0,0-5.6-1.3-12.6-1.7v-2.5H126.4z M124.8,38.4
		c0,0-4.8,6.7-8.1,2.5L111,28.7C111,28.7,121.9,29.4,124.8,38.4z M105.5,47.4c1.6-0.1,3.2-0.2,4.8-0.3c0.4,2.6,0.1,4.6-0.9,5.9
		c-1,1.1-2.6,1.6-4,1.8v0L105.5,47.4L105.5,47.4z M105.2,55.9l-4-0.1v0L105.2,55.9z"/>
</g>
</svg>
