<?xml version="1.0" encoding="utf-8"?>
<!-- Generator: Adobe Illustrator 22.0.1, SVG Export Plug-In . SVG Version: 6.00 Build 0)  -->
<svg version="1.1" id="Layer_1" xmlns="http://www.w3.org/2000/svg" xmlns:xlink="http://www.w3.org/1999/xlink" x="0px" y="0px"
	 viewBox="0 0 512 512" style="enable-background:new 0 0 512 512;" xml:space="preserve">
<style type="text/css">
	.st0{fill:#FDFDFD;}
</style>
<g transform="matrix(-1, -0, 0, 1, 512, 0)">
	<g>
		<g>
			<path class="st0" d="M123.7,74C99,74,78.9,94.1,78.9,118.8s20.1,44.8,44.8,44.8s44.8-20.1,44.8-44.8S148.3,74,123.7,74z
				 M123.7,151.9c-18.2,0-33.1-14.8-33.1-33.1s14.8-33.1,33.1-33.1c18.2,0,33.1,14.8,33.1,33.1S141.9,151.9,123.7,151.9z"/>
		</g>
	</g>
	<g>
		<g>
			<path class="st0" d="M287.1,426.3h-15.6c-3.2,0-5.8,2.6-5.8,5.8c0,3.2,2.6,5.8,5.8,5.8h15.6c3.2,0,5.8-2.6,5.8-5.8
				S290.4,426.3,287.1,426.3z"/>
		</g>
	</g>
	<g>
		<g>
			<path class="st0" d="M333.9,426.3h-15.6c-3.2,0-5.8,2.6-5.8,5.8c0,3.2,2.6,5.8,5.8,5.8h15.6c3.2,0,5.8-2.6,5.8-5.8
				C339.7,428.9,337.1,426.3,333.9,426.3z"/>
		</g>
	</g>
	<g>
		<g>
			<path class="st0" d="M388.3,91.5h-15.6c-3.2,0-5.8,2.6-5.8,5.8s2.6,5.8,5.8,5.8h15.6c3.2,0,5.8-2.6,5.8-5.8
				S391.6,91.5,388.3,91.5z"/>
		</g>
	</g>
	<g>
		<g>
			<path class="st0" d="M349.4,91.5h-46.7c-3.2,0-5.8,2.6-5.8,5.8s2.6,5.8,5.8,5.8h46.7c3.2,0,5.8-2.6,5.8-5.8
				S352.6,91.5,349.4,91.5z"/>
		</g>
	</g>
	<g>
		<g>
			<path class="st0" d="M435.1,91.5h-15.6c-3.2,0-5.8,2.6-5.8,5.8s2.6,5.8,5.8,5.8h15.6c3.2,0,5.8-2.6,5.8-5.8
				S438.3,91.5,435.1,91.5z"/>
		</g>
	</g>
	<g>
		<g>
			<path class="st0" d="M426.7,325.6c-7.7-10.2-21.7-13-32.7-6.4l-20.3,12.2l-57.8-57.8c1.6-4,2.5-8.4,2.5-12.9
				c0.2-10-3.6-19.4-10.7-26.4l-61-61h50.1v13.6c0,14,11.4,25.3,25.3,25.3c14,0,25.3-11.4,25.3-25.3V157c0-18.9-15.4-34.4-34.4-34.4
				h-92.2c-19.1,0-37,7.4-50.5,20.9l-50.5,50.5c0,0,0,0,0,0c-1.3,1.1-2.1,2.7-2.1,4.5v64.2H96.4c-14,0-25.3,11.4-25.3,25.3
				c0,14,11.4,25.3,25.3,25.3h37.6c18.9,0,34.4-15.4,34.4-34.4v-27.4l48.2,48.2l-49.8,49.8c-6.5,6.5-10.1,15.1-10.1,24.3v38.8
				c0,5,1.5,9.7,4,13.6H147c-3.2,0-5.8,2.6-5.8,5.8c0,3.2,2.6,5.8,5.8,5.8h93.4c3.2,0,5.8-2.6,5.8-5.8c0-3.2-2.6-5.8-5.8-5.8h-37.1
				c2.5-3.9,4-8.6,4-13.6v-32.5l70.5-66.1l68.1,61.9c6.5,5.9,14.8,8.9,23.1,8.9c5.7,0,11.5-1.4,16.7-4.3l33.1-18.4
				c6.3-3.5,10.7-9.5,12.2-16.5C432.6,338.6,431,331.3,426.7,325.6z M156.7,279.1c0,12.5-10.2,22.7-22.7,22.7H96.4
				c-7.5,0-13.6-6.1-13.6-13.6c0-7.5,6.1-13.6,13.6-13.6h27.2c3.2,0,5.8-2.6,5.8-5.8v-56l27.2,27.2
				C156.7,239.9,156.7,279.1,156.7,279.1z M419.7,343.2c-0.8,3.7-3.2,6.9-6.5,8.8l-33.1,18.4c-8.5,4.7-19.1,3.5-26.3-3l-67.4-61.3
				l2.8-2.6c2.1-2,2.4-5.3,0.7-7.6c0,0,0-0.1-0.1-0.1c-2.1-2.8-6.1-3.2-8.6-0.8l-83.7,78.5c-1.2,1.1-1.8,2.6-1.8,4.3v34.7
				c0,7.6-6.2,14.1-13.9,14c-7.4-0.1-13.4-6.2-13.4-13.6v-38.8c0-6,2.4-11.8,6.6-16l53.9-53.9c2.3-2.3,2.3-6,0-8.3l-62.3-62.3
				c0,0,0,0,0,0l-34.8-34.8l46.7-46.7c11.2-11.2,26.4-17.5,42.2-17.5h92.2c12.5,0,22.7,10.2,22.7,22.7v29.5c0,7.6-6.2,14.1-13.9,14
				c-7.4-0.1-13.4-6.2-13.4-13.6v-19.5c0-3.2-2.6-5.8-5.8-5.8h-69.9c-1.9,0-3.8,0.8-4.9,2.4c-1.7,2.4-1.4,5.6,0.6,7.6l70.6,70.6
				c4.8,4.8,7.7,11.3,7.6,18.1c0,6.9-2.8,13.3-7.9,18l-0.9,0.9c-2.1,2-2.4,5.3-0.7,7.7c0,0,0,0.1,0.1,0.1c2.1,2.8,6.1,3.1,8.6,0.8
				l0.9-0.9c1-0.9,1.9-1.9,2.8-2.9l58.9,58.9c1.9,1.9,4.8,2.3,7.1,0.9l24.2-14.5c5.8-3.5,13.2-2,17.3,3.4
				C419.6,335.6,420.5,339.5,419.7,343.2z"/>
		</g>
	</g>
</g>
</svg>
