<svg xmlns="http://www.w3.org/2000/svg" xmlns:xlink="http://www.w3.org/1999/xlink" version="1.1" x="0px" y="0px" viewBox="0 0 29 37.5" xml:space="preserve" style="fill:white;">
  <g transform="translate(-30 -440)"><g xmlns="http://www.w3.org/2000/svg" xmlns:xlink="http://www.w3.org/1999/xlink">
    <circle cx="47.5" cy="443.5" r="2.5"/><polygon points="40,460 34,462 34,463 42,462 42.591,460.426 40,455.985   "/>
    <polygon points="53,453 54,452 48,448 43,446 40,454 47,466 49,466 45,454 46.777,450.444   "/>
    <path d="M55,455v-1h-5v1h2v10.277c-0.596,0.346-1,0.984-1,1.723H39c0-1.105-0.896-2-2-2s-2,0.895-2,2s0.896,2,2,2    c0.738,0,1.376-0.404,1.723-1h12.555c0.347,0.596,0.984,1,1.723,1c1.104,0,2-0.895,2-2s-0.896-2-2-2v-10H55z M37,468    c-0.553,0-1-0.447-1-1s0.447-1,1-1s1,0.447,1,1S37.553,468,37,468z M54,467c0,0.553-0.447,1-1,1s-1-0.447-1-1s0.447-1,1-1    S54,466.447,54,467z"/>
      </g>
  </g>
</svg>
