<?xml version="1.0" encoding="utf-8"?>
<!-- Generator: Adobe Illustrator 22.0.1, SVG Export Plug-In . SVG Version: 6.00 Build 0)  -->
<svg version="1.1" id="Layer_1" xmlns="http://www.w3.org/2000/svg" xmlns:xlink="http://www.w3.org/1999/xlink" x="0px" y="0px"
	 viewBox="0 0 129 129" style="enable-background:new 0 0 129 129;" xml:space="preserve">
<style type="text/css">
	.st0{fill:#1D3CD6;}
	.st1{clip-path:url(#SVGID_2_);fill:#FF80C9;}
	.st2{fill:#FF80C9;}
	.st3{clip-path:url(#SVGID_4_);fill:#1D3CD6;}
	.st4{fill:#6FD877;}
	.st5{fill:#E03620;}
	.st6{clip-path:url(#SVGID_6_);fill:#FF80C9;}
	.st7{clip-path:url(#SVGID_8_);}
	.st8{clip-path:url(#SVGID_10_);fill:#1D3CD6;}
	.st9{fill:#FFFFFF;}
</style>
<g>
	<defs>
		<rect id="SVGID_7_" x="-1389" y="42.6" width="1369" height="506.4"/>
	</defs>
	<clipPath id="SVGID_2_">
		<use xlink:href="#SVGID_7_"  style="overflow:visible;"/>
	</clipPath>
	<g style="clip-path:url(#SVGID_2_);">
		<g>
			<defs>
				<rect id="SVGID_9_" x="-286" y="92.3" width="266" height="456.7"/>
			</defs>
			<clipPath id="SVGID_4_">
				<use xlink:href="#SVGID_9_"  style="overflow:visible;"/>
			</clipPath>
		</g>
	</g>
</g>
<path class="st9" d="M112.5,3.1c-7.4,0-13.4,6-13.4,13.4c0,2.3,0.6,4.5,1.6,6.4l-22,22c-3-2.4-6.8-3.8-10.9-3.8
	c-4.1,0-7.9,1.4-10.9,3.8L39.8,27.7c0.8-1.3,1.3-2.9,1.3-4.5c0-4.9-4-8.9-8.9-8.9s-8.9,4-8.9,8.9s4,8.9,8.9,8.9
	c1.7,0,3.2-0.5,4.5-1.3L53.8,48c-2.4,3-3.8,6.8-3.8,10.9s1.4,7.9,3.8,10.9L25.5,98.1c-2.4-2.2-5.5-3.5-9-3.5
	c-7.4,0-13.4,6-13.4,13.4s6,13.4,13.4,13.4s13.4-6,13.4-13.4c0-2.3-0.6-4.5-1.6-6.4L56.9,73c2.5,1.9,5.5,3.2,8.7,3.6v22.7
	c-6.3,1.1-11.2,6.6-11.2,13.2c0,7.4,6,13.4,13.4,13.4c7.4,0,13.4-6,13.4-13.4c0-6.6-4.8-12.1-11.2-13.2V76.6
	c3.3-0.4,6.2-1.7,8.7-3.6l17.1,17.1c-0.8,1.3-1.3,2.9-1.3,4.5c0,4.9,4,8.9,8.9,8.9c4.9,0,8.9-4,8.9-8.9c0-4.9-4-8.9-8.9-8.9
	c-1.7,0-3.2,0.5-4.5,1.3L81.9,69.9c2.4-3,3.8-6.8,3.8-10.9S84.3,51,81.9,48l21.6-21.6c2.4,2.2,5.5,3.5,9,3.5c7.4,0,13.4-6,13.4-13.4
	S119.9,3.1,112.5,3.1z"/>
</svg>
