<svg xmlns="http://www.w3.org/2000/svg" style="fill:white;" xmlns:xlink="http://www.w3.org/1999/xlink" version="1.1" x="0px" y="0px" viewBox="0 0 512 640" enable-background="new 0 0 512 512" xml:space="preserve"><g><g><g><path d="M256.006,439.87c-101.39,0-183.87-82.488-183.87-183.87c0-101.386,82.48-183.87,183.87-183.87     c101.394,0,183.866,82.484,183.866,183.87C439.872,357.382,357.399,439.87,256.006,439.87z M256.006,80.124     C159.027,80.124,80.13,159.021,80.13,256s78.897,175.876,175.876,175.876c96.975,0,175.872-78.897,175.872-175.876     S352.98,80.124,256.006,80.124z"/></g></g><g><g><path d="M92.121,259.997c-2.209,0-3.997-1.788-3.997-3.997c0-92.571,75.314-167.882,167.882-167.882     c2.209,0,3.997,1.788,3.997,3.997c0,2.21-1.788,3.997-3.997,3.997C167.842,96.112,96.118,167.84,96.118,256     C96.118,258.209,94.331,259.997,92.121,259.997z"/></g></g><g><g><path d="M256.006,423.882c-2.21,0-3.997-1.788-3.997-3.998c0-2.209,1.787-3.997,3.997-3.997     c88.168,0,159.883-71.73,159.883-159.887c0-2.21,1.796-3.997,3.997-3.997c2.218,0,3.998,1.787,3.998,3.997     C423.884,348.575,348.577,423.882,256.006,423.882z"/></g></g><g><g><path d="M256.006,407.893c-83.754,0-151.893-68.14-151.893-151.893c0-83.754,68.139-151.893,151.893-151.893     c83.749,0,151.889,68.139,151.889,151.893C407.895,339.753,339.755,407.893,256.006,407.893z M256.006,112.102     c-79.343,0-143.898,64.552-143.898,143.898c0,79.351,64.556,143.898,143.898,143.898c79.347,0,143.895-64.548,143.895-143.898     C399.9,176.653,335.353,112.102,256.006,112.102z"/></g></g><g><g><path d="M256.006,287.978c-17.636,0-31.978-14.35-31.978-31.978c0-17.632,14.342-31.978,31.978-31.978     c17.64,0,31.974,14.346,31.974,31.978C287.979,273.628,273.646,287.978,256.006,287.978z M256.006,232.017     c-13.226,0-23.983,10.758-23.983,23.983c0,13.225,10.758,23.983,23.983,23.983c13.221,0,23.979-10.759,23.979-23.983     C279.985,242.774,269.227,232.017,256.006,232.017z"/></g></g><g><g><path d="M244.015,259.997c-2.21,0-3.998-1.788-3.998-3.997c0-8.818,7.175-15.989,15.989-15.989c2.209,0,3.997,1.788,3.997,3.998     c0,2.209-1.788,3.997-3.997,3.997c-4.411,0-7.994,3.587-7.994,7.994C248.012,258.209,246.224,259.997,244.015,259.997z"/></g></g><g><g><path d="M256.006,271.988c-2.21,0-3.997-1.788-3.997-3.997s1.787-3.997,3.997-3.997c4.411,0,7.99-3.587,7.99-7.994     c0-2.21,1.796-3.997,3.997-3.997c2.217,0,3.997,1.787,3.997,3.997C271.99,264.821,264.823,271.988,256.006,271.988z"/></g></g><g><g><path d="M256.006,303.966c-26.45,0-47.966-21.516-47.966-47.966s21.516-47.966,47.966-47.966     c26.446,0,47.962,21.516,47.962,47.966S282.452,303.966,256.006,303.966z M256.006,216.028     c-22.039,0-39.972,17.933-39.972,39.972s17.933,39.972,39.972,39.972c22.043,0,39.968-17.933,39.968-39.972     S278.049,216.028,256.006,216.028z"/></g></g><g><g><path d="M264.012,72.138c-0.168,0-0.332-0.008-0.488-0.027c-2.193-0.266-3.755-2.257-3.489-4.45     c2.646-21.922,3.962-47.938,3.962-51.491c0-4.407-3.579-7.994-7.99-7.994s-7.994,3.587-7.994,7.994     c0,3.537,1.319,29.503,3.966,51.495c0.266,2.189-1.296,4.181-3.49,4.446c-2.186,0.227-4.185-1.3-4.442-3.494     c-2.732-22.694-4.028-48.688-4.028-52.447c0-8.818,7.175-15.988,15.989-15.988c8.817,0,15.984,7.17,15.984,15.988     c0,3.778-1.296,29.819-4.028,52.451C267.728,70.646,265.995,72.138,264.012,72.138z"/></g></g><g><g><path d="M256.006,511.819c-8.814,0-15.989-7.167-15.989-15.988c0-3.779,1.296-29.808,4.028-52.447     c0.266-2.187,2.397-3.732,4.442-3.482c2.194,0.266,3.756,2.248,3.49,4.45c-2.646,21.922-3.966,47.927-3.966,51.479     c0,4.402,3.583,7.994,7.994,7.994s7.99-3.592,7.99-7.994c0-3.553-1.315-29.558-3.962-51.479c-0.266-2.202,1.296-4.185,3.489-4.45     c2.019-0.281,4.173,1.28,4.438,3.482c2.732,22.64,4.028,48.668,4.028,52.447C271.99,504.652,264.823,511.819,256.006,511.819z"/></g></g><g><g><path d="M117.518,132.813c-0.866,0-1.733-0.277-2.467-0.852c-17.925-14.06-37.263-31.571-39.94-34.249     c-6.23-6.226-6.23-16.371,0-22.604c6.214-6.238,16.363-6.242,22.608-0.004c2.678,2.674,20.189,22.02,34.249,39.94     c1.358,1.736,1.062,4.251-0.679,5.613c-1.733,1.362-4.247,1.058-5.613-0.68c-13.615-17.362-31.096-36.704-33.609-39.223     c-3.099-3.103-8.174-3.114-11.305,0.004c-3.114,3.115-3.114,8.187,0,11.301c2.515,2.518,21.86,19.99,39.223,33.609     c1.733,1.362,2.038,3.876,0.68,5.613C119.875,132.29,118.696,132.813,117.518,132.813z"/></g></g><g><g><path d="M425.601,441.564c-4.106,0-8.197-1.554-11.32-4.677c-2.67-2.686-20.188-22.031-34.241-39.925     c-1.358-1.733-1.062-4.247,0.688-5.613c1.733-1.366,4.247-1.069,5.604,0.679c13.601,17.332,31.088,36.686,33.602,39.207     c3.123,3.107,8.197,3.123,11.32,0c3.107-3.115,3.107-8.182-0.016-11.305c-2.498-2.514-21.828-19.954-39.207-33.594     c-1.732-1.365-2.045-3.879-0.687-5.612c1.374-1.749,3.888-2.03,5.621-0.68c17.94,14.076,37.255,31.563,39.925,34.233     c6.246,6.23,6.246,16.379,0.016,22.609C433.782,440.011,429.691,441.564,425.601,441.564z"/></g></g><g><g><path d="M16.167,271.988c-8.807,0-15.98-7.167-15.988-15.977c0.008-4.282,1.67-8.295,4.691-11.316     c3.014-3.018,7.019-4.677,11.281-4.677c0.008,0,0.016,0,0.023,0c3.786,0,29.862,1.292,52.447,4.018     c2.194,0.265,3.755,2.256,3.49,4.449c-0.258,2.194-2.358,3.76-4.442,3.49c-21.883-2.643-47.935-3.962-51.503-3.962h-0.008     c-2.131,0-4.13,0.831-5.637,2.338c-1.515,1.511-2.35,3.521-2.35,5.66c0.008,4.399,3.591,7.982,7.994,7.982     c3.553,0,29.573-1.323,51.503-3.97c2.045-0.277,4.177,1.292,4.442,3.489c0.265,2.198-1.296,4.181-3.49,4.446     C45.99,270.692,19.945,271.988,16.167,271.988z"/></g></g><g><g><path d="M495.833,271.988c-3.779,0-29.808-1.296-52.447-4.028c-2.187-0.266-3.748-2.248-3.482-4.446     c0.266-2.193,2.42-3.728,4.435-3.489c21.938,2.646,47.935,3.97,51.495,3.97c4.402,0,7.994-3.591,7.994-8.002     c0-2.132-0.828-4.134-2.342-5.641c-1.5-1.507-3.514-2.338-5.637-2.338c-0.016,0-0.016,0-0.016,0     c-3.561,0-29.558,1.323-51.495,3.97c-2.062,0.223-4.185-1.296-4.435-3.49c-0.266-2.193,1.296-4.185,3.482-4.45     c22.64-2.729,48.668-4.024,52.447-4.024h0.016c4.262,0,8.275,1.659,11.288,4.677c3.029,3.018,4.685,7.03,4.685,11.297     C511.821,264.813,504.654,271.988,495.833,271.988z"/></g></g><g><g><path d="M86.414,441.572c-4.091,0-8.182-1.562-11.296-4.669c-6.238-6.246-6.23-16.395-0.008-22.617     c2.678-2.678,22.016-20.188,39.94-34.249c1.74-1.358,4.247-1.062,5.613,0.68c1.358,1.741,1.054,4.255-0.68,5.612     c-17.362,13.616-36.708,31.088-39.223,33.609c-3.114,3.115-3.106,8.189,0.008,11.312c3.115,3.107,8.183,3.092,11.297-0.008     c2.514-2.521,19.994-21.859,33.609-39.223c1.374-1.74,3.88-2.021,5.613-0.679c1.741,1.358,2.037,3.872,0.679,5.613     c-14.06,17.917-31.571,37.263-34.249,39.94C94.604,440.011,90.505,441.572,86.414,441.572z"/></g></g><g><g><path d="M394.498,132.813c-1.187,0-2.358-0.523-3.154-1.53c-1.358-1.737-1.046-4.251,0.687-5.613     c17.363-13.619,36.693-31.08,39.207-33.594c1.515-1.515,2.342-3.524,2.342-5.664c0-2.135-0.827-4.142-2.342-5.652     c-1.515-1.51-3.513-2.338-5.637-2.338c0,0,0,0-0.016,0c-2.123,0-4.138,0.836-5.652,2.35     c-2.514,2.515-19.985,21.845-33.602,39.207c-1.357,1.749-3.871,2.038-5.604,0.68c-1.749-1.362-2.046-3.877-0.688-5.613     c14.068-17.921,31.571-37.251,34.241-39.925c3.014-3.021,7.042-4.688,11.305-4.692h0.016c4.263,0,8.275,1.663,11.289,4.681     c3.014,3.013,4.685,7.029,4.685,11.304s-1.671,8.291-4.685,11.316c-2.67,2.674-22,20.174-39.925,34.233     C396.231,132.536,395.356,132.813,394.498,132.813z"/></g></g><g><g><g><path d="M256.006,136.084c-2.21,0-3.997-1.787-3.997-3.997v-15.988c0-2.209,1.787-3.997,3.997-3.997      c2.209,0,3.997,1.788,3.997,3.997v15.988C260.003,134.297,258.215,136.084,256.006,136.084z"/></g></g><g><g><path d="M256.006,208.034c-2.21,0-3.997-1.788-3.997-3.998v-15.988c0-2.209,1.787-3.997,3.997-3.997      c2.209,0,3.997,1.788,3.997,3.997v15.988C260.003,206.246,258.215,208.034,256.006,208.034z"/></g></g><g><g><path d="M255.99,160.052c-1.022,0-2.046-0.391-2.826-1.171l-11.976-11.983c-1.562-1.562-1.562-4.091,0-5.652l11.976-11.984      c1.562-1.561,4.091-1.557,5.652-0.004l12.003,11.984c0.75,0.749,1.171,1.768,1.171,2.83c0,1.062-0.421,2.08-1.171,2.83      l-12.003,11.983C258.035,159.661,257.013,160.052,255.99,160.052z M249.666,144.071l6.324,6.331l6.347-6.331l-6.347-6.332      L249.666,144.071z"/></g></g><g><g><path d="M255.99,192.029c-1.022,0-2.046-0.391-2.826-1.171l-11.976-11.983c-1.562-1.562-1.562-4.091,0-5.652l11.976-11.984      c1.562-1.562,4.091-1.558,5.652-0.004l12.003,11.984c0.75,0.749,1.171,1.768,1.171,2.83c0,1.062-0.421,2.08-1.171,2.83      l-12.003,11.983C258.035,191.639,257.013,192.029,255.99,192.029z M249.666,176.049l6.324,6.331l6.347-6.331l-6.347-6.332      L249.666,176.049z"/></g></g></g><g><g><g><path d="M256.006,327.949c-2.21,0-3.997-1.788-3.997-3.997v-15.989c0-2.209,1.787-3.997,3.997-3.997      c2.209,0,3.997,1.788,3.997,3.997v15.989C260.003,326.161,258.215,327.949,256.006,327.949z"/></g></g><g><g><path d="M256.006,399.898c-2.21,0-3.997-1.788-3.997-3.997v-15.989c0-2.209,1.787-3.997,3.997-3.997      c2.209,0,3.997,1.788,3.997,3.997v15.989C260.003,398.11,258.215,399.898,256.006,399.898z"/></g></g><g><g><path d="M255.99,351.917c-1.022,0-2.046-0.391-2.826-1.172l-11.976-11.983c-1.562-1.562-1.562-4.091,0-5.652l11.976-11.983      c1.562-1.562,4.091-1.562,5.652,0l12.003,11.976c0.75,0.749,1.171,1.772,1.171,2.834s-0.421,2.085-1.171,2.834l-12.003,11.976      C258.035,351.526,257.013,351.917,255.99,351.917z M249.666,335.936l6.324,6.331l6.347-6.331l-6.347-6.331L249.666,335.936z"/></g></g><g><g><path d="M255.99,383.894c-1.022,0-2.046-0.39-2.826-1.171l-11.976-11.983c-1.562-1.562-1.562-4.091,0-5.652l11.976-11.984      c1.562-1.561,4.091-1.561,5.652,0l12.003,11.977c0.75,0.75,1.171,1.772,1.171,2.834s-0.421,2.084-1.171,2.834l-12.003,11.976      C258.035,383.504,257.013,383.894,255.99,383.894z M249.666,367.913l6.324,6.331l6.347-6.331l-6.347-6.332L249.666,367.913z"/></g></g></g><g><g><g><path d="M168.388,172.379c-1.022,0-2.045-0.39-2.826-1.171l-11.305-11.305c-1.562-1.562-1.562-4.091,0-5.652      s4.091-1.562,5.652,0l11.305,11.305c1.562,1.562,1.562,4.091,0,5.652C170.434,171.989,169.41,172.379,168.388,172.379z"/></g></g><g><g><path d="M219.258,223.25c-1.022,0-2.045-0.391-2.826-1.172l-11.304-11.304c-1.562-1.562-1.562-4.092,0-5.652      c1.561-1.562,4.091-1.562,5.652,0l11.304,11.304c1.562,1.562,1.562,4.091,0,5.652      C221.304,222.859,220.281,223.25,219.258,223.25z"/></g></g><g><g><path d="M185.321,189.336L185.321,189.336l-16.941-0.008c-2.209,0-3.997-1.788-3.997-3.997l-0.008-16.941      c0-2.205,1.788-3.993,3.997-3.997l16.965-0.016l0,0c1.062,0,2.076,0.422,2.826,1.171c0.749,0.75,1.171,1.769,1.171,2.83      l-0.016,16.965C189.318,187.548,187.53,189.336,185.321,189.336z M172.377,181.334l8.947,0.008l0.016-8.967l-8.971,0.008      L172.377,181.334z"/></g></g><g><g><path d="M207.938,211.945h-16.941c-2.21,0-3.997-1.788-3.997-3.993l-0.016-16.941c0-2.21,1.787-3.997,3.997-4.001l16.973-0.016      l0,0c1.062,0,2.076,0.421,2.826,1.171c0.749,0.749,1.171,1.769,1.171,2.83l-0.016,16.957      C211.936,210.157,210.147,211.945,207.938,211.945z M194.994,203.95h8.946l0.016-8.958L194.979,195L194.994,203.95z"/></g></g></g><g><g><g><path d="M304.062,308.041c-1.03,0-2.045-0.39-2.826-1.171l-11.305-11.305c-1.562-1.562-1.562-4.091,0-5.652s4.091-1.562,5.652,0      l11.305,11.305c1.562,1.562,1.562,4.091,0,5.652C306.106,307.651,305.076,308.041,304.062,308.041z"/></g></g><g><g><path d="M354.932,358.927c-1.03,0-2.045-0.39-2.826-1.171l-11.304-11.312c-1.562-1.562-1.562-4.1,0-5.652      c1.561-1.562,4.09-1.562,5.652,0l11.304,11.312c1.562,1.562,1.562,4.091,0,5.652      C356.978,358.537,355.946,358.927,354.932,358.927z"/></g></g><g><g><path d="M320.987,325.006L320.987,325.006l-16.941-0.008c-2.201,0-3.997-1.788-3.997-3.997V304.06      c0-2.201,1.78-3.997,3.997-3.997l16.957-0.016l0,0c1.062,0,2.076,0.421,2.826,1.171c0.749,0.75,1.171,1.765,1.171,2.826      l-0.016,16.973C324.984,323.218,323.204,325.006,320.987,325.006z M308.043,317.004l8.947,0.008l0.016-8.971l-8.963,0.016      V317.004z"/></g></g><g><g><path d="M343.597,347.614L343.597,347.614l-16.926-0.008c-2.218,0-3.998-1.787-3.998-3.996l-0.016-16.941      c0-2.202,1.78-3.998,3.998-3.998l16.973-0.016l0,0c1.062,0,2.076,0.422,2.826,1.172c0.749,0.749,1.17,1.764,1.17,2.826      l-0.031,16.973C347.593,345.827,345.798,347.614,343.597,347.614z M330.668,339.612l8.946,0.008v-8.97l-8.962,0.016      L330.668,339.612z"/></g></g></g><g><g><g><path d="M116.104,259.997c-2.209,0-3.997-1.788-3.997-3.997c0-2.206,1.788-3.997,3.997-3.997l15.98-0.008l0,0      c2.21,0,3.997,1.787,3.997,3.997c0,2.205-1.787,3.997-3.997,3.997L116.104,259.997L116.104,259.997z"/></g></g><g><g><path d="M204.034,260.005h-15.988c-2.209,0-3.997-1.788-3.997-3.997c0-2.21,1.788-3.997,3.997-3.997h15.988      c2.21,0,3.998,1.787,3.998,3.997C208.032,258.217,206.244,260.005,204.034,260.005z"/></g></g><g><g><path d="M144.077,271.988c-1.023,0-2.046-0.39-2.826-1.171l-11.992-11.964c-0.749-0.75-1.171-1.769-1.171-2.826      c0-1.062,0.422-2.077,1.171-2.83l11.992-12.007c1.499-1.499,4.153-1.499,5.652,0l11.983,11.999c1.562,1.562,1.562,4.095,0,5.652      l-11.983,11.976C146.122,271.599,145.1,271.988,144.077,271.988z M137.737,256.02l6.34,6.323l6.331-6.331l-6.331-6.34      L137.737,256.02z"/></g></g><g><g><path d="M176.055,271.988c-1.023,0-2.046-0.39-2.826-1.171l-11.992-11.964c-0.749-0.75-1.171-1.765-1.171-2.826      s0.422-2.077,1.171-2.826l11.992-12.015c1.499-1.507,4.153-1.503,5.652-0.004l11.991,11.999      c0.749,0.749,1.171,1.769,1.171,2.826c0,1.062-0.422,2.076-1.171,2.826l-11.991,11.983      C178.1,271.599,177.077,271.988,176.055,271.988z M169.715,256.02l6.34,6.323l6.339-6.335l-6.339-6.344L169.715,256.02z"/></g></g></g><g><g><g><path d="M323.954,259.989h-15.989c-2.201,0-3.997-1.788-3.997-3.997c0-2.21,1.796-3.997,3.997-3.997h15.989      c2.201,0,3.997,1.787,3.997,3.997C327.951,258.201,326.155,259.989,323.954,259.989z"/></g></g><g><g><path d="M395.903,260.005L395.903,260.005l-15.989-0.008c-2.201,0-3.997-1.792-3.997-3.997c0-2.21,1.796-3.997,3.997-3.997l0,0      l15.989,0.008c2.217,0,3.997,1.791,3.997,3.997C399.9,258.217,398.12,260.005,395.903,260.005z"/></g></g><g><g><path d="M335.945,271.988c-1.03,0-2.046-0.39-2.826-1.171l-11.991-11.976c-1.562-1.558-1.562-4.087,0-5.648l11.991-12.007      c1.499-1.507,4.153-1.507,5.652,0l11.976,12.007c1.562,1.562,1.562,4.091,0,5.648l-11.976,11.976      C337.991,271.599,336.96,271.988,335.945,271.988z M329.606,256.012l6.339,6.327l6.323-6.327l-6.323-6.344L329.606,256.012z"/></g></g><g><g><path d="M367.923,271.98c-1.03,0-2.046-0.39-2.826-1.163l-11.992-11.972c-0.749-0.75-1.17-1.765-1.17-2.826      s0.421-2.077,1.17-2.826l11.992-12.015c0.75-0.754,1.765-1.176,2.826-1.176l0,0c1.062,0,2.076,0.426,2.826,1.176l11.976,12.022      c1.562,1.565,1.562,4.091,0,5.652l-11.976,11.964C369.968,271.591,368.938,271.98,367.923,271.98z M361.583,256.012l6.34,6.323      l6.323-6.319l-6.323-6.355L361.583,256.012z"/></g></g></g><g><g><g><path d="M157.083,358.927c-1.022,0-2.045-0.39-2.826-1.171c-1.562-1.562-1.562-4.091,0-5.652l11.289-11.304      c1.562-1.562,4.091-1.562,5.652,0c1.562,1.561,1.562,4.09,0,5.652l-11.289,11.304      C159.129,358.537,158.106,358.927,157.083,358.927z"/></g></g><g><g><path d="M207.954,308.057c-1.023,0-2.046-0.39-2.826-1.171c-1.562-1.562-1.562-4.091,0-5.652l11.304-11.305      c1.562-1.562,4.091-1.562,5.652,0s1.562,4.091,0,5.652l-11.304,11.305C209.999,307.667,208.977,308.057,207.954,308.057z"/></g></g><g><g><path d="M168.388,347.638c-1.062,0-2.076-0.421-2.826-1.17c-0.749-0.75-1.171-1.765-1.171-2.826l-0.008-16.973      c0-1.062,0.422-2.077,1.171-2.826c0.75-0.75,1.765-1.172,2.826-1.172l0,0l16.965,0.016c2.209,0,3.997,1.796,3.997,3.998      l-0.008,16.941c0,2.201-1.788,3.996-3.997,3.996L168.388,347.638L168.388,347.638z M172.377,330.666l0.008,8.978l8.955-0.016      l0.008-8.946L172.377,330.666z"/></g></g><g><g><path d="M191.005,325.021c-1.062,0-2.077-0.422-2.826-1.171c-0.75-0.75-1.171-1.765-1.171-2.826L187,304.06      c0-1.062,0.421-2.076,1.171-2.826c0.749-0.75,1.765-1.171,2.826-1.171h16.957c2.209,0,3.997,1.788,3.997,3.997v16.957      c0,2.201-1.788,3.997-3.997,3.997L191.005,325.021L191.005,325.021z M194.994,308.057l0.008,8.971l8.954-0.008v-8.963H194.994z"/></g></g></g><g><g><g><path d="M292.741,223.25c-1.03,0-2.045-0.391-2.826-1.172c-1.562-1.562-1.562-4.091,0-5.652l11.305-11.304      c1.562-1.562,4.091-1.562,5.652,0c1.562,1.561,1.562,4.091,0,5.652l-11.305,11.304      C294.787,222.859,293.757,223.25,292.741,223.25z"/></g></g><g><g><path d="M343.628,172.379c-1.031,0-2.046-0.39-2.826-1.171c-1.562-1.562-1.562-4.095,0-5.652l11.304-11.305      c1.562-1.562,4.091-1.562,5.652,0s1.562,4.095,0,5.652l-11.304,11.305C345.673,171.989,344.643,172.379,343.628,172.379z"/></g></g><g><g><path d="M304.062,211.961c-2.201,0-3.997-1.788-3.997-3.993l-0.016-16.965c0-1.062,0.421-2.081,1.171-2.83      c0.75-0.75,1.765-1.171,2.826-1.171l0,0l16.973,0.016c2.201,0.004,3.997,1.791,3.997,3.997L325,207.956      c0,2.209-1.78,3.997-3.997,3.997L304.062,211.961L304.062,211.961z M308.043,195l0.016,8.966l8.947-0.008l0.016-8.95      L308.043,195z"/></g></g><g><g><path d="M326.671,189.352c-1.062,0-2.077-0.422-2.826-1.167c-0.75-0.75-1.172-1.765-1.172-2.826l-0.016-16.973      c0-1.062,0.422-2.08,1.172-2.83c0.749-0.749,1.764-1.171,2.826-1.171l0,0l16.973,0.031c2.201,0.004,3.996,1.792,3.996,3.997      l-0.016,16.926c0,2.205-1.779,3.993-3.996,3.997L326.671,189.352L326.671,189.352z M330.652,172.387l0.016,8.967l8.946-0.008      l0.016-8.943L330.652,172.387z"/></g></g></g></g></svg>
