<?xml version="1.0" encoding="utf-8"?>
<!-- Generator: Adobe Illustrator 22.0.1, SVG Export Plug-In . SVG Version: 6.00 Build 0)  -->
<svg version="1.1" id="Layer_1" xmlns="http://www.w3.org/2000/svg" xmlns:xlink="http://www.w3.org/1999/xlink" x="0px" y="0px"
	 viewBox="0 0 512 512" style="enable-background:new 0 0 512 512;" xml:space="preserve">
<style type="text/css">
	.st0{fill:#FDFDFD;}
</style>
<g>
	<g>
		<g>
			<path class="st0" d="M72.8,4c-34.2,0-62,27.8-62,62s27.8,62,62,62s62-27.8,62-62S106.9,4,72.8,4z M72.8,111.8
				c-25.3,0-45.8-20.6-45.8-45.8s20.5-45.8,45.8-45.8c25.3,0,45.8,20.5,45.8,45.8S98,111.8,72.8,111.8z"/>
		</g>
	</g>
	<g>
		<g>
			<path class="st0" d="M299.1,491.8h-21.6c-4.5,0-8.1,3.6-8.1,8.1c0,4.5,3.6,8.1,8.1,8.1h21.6c4.5,0,8.1-3.6,8.1-8.1
				S303.6,491.8,299.1,491.8z"/>
		</g>
	</g>
	<g>
		<g>
			<path class="st0" d="M363.8,491.8h-21.6c-4.5,0-8.1,3.6-8.1,8.1c0,4.5,3.6,8.1,8.1,8.1h21.6c4.5,0,8.1-3.6,8.1-8.1
				C371.9,495.4,368.3,491.8,363.8,491.8z"/>
		</g>
	</g>
	<g>
		<g>
			<path class="st0" d="M439.2,28.3h-21.6c-4.5,0-8.1,3.6-8.1,8.1s3.6,8.1,8.1,8.1h21.6c4.5,0,8.1-3.6,8.1-8.1
				S443.7,28.3,439.2,28.3z"/>
		</g>
	</g>
	<g>
		<g>
			<path class="st0" d="M385.3,28.3h-64.7c-4.5,0-8.1,3.6-8.1,8.1s3.6,8.1,8.1,8.1h64.7c4.5,0,8.1-3.6,8.1-8.1
				S389.8,28.3,385.3,28.3z"/>
		</g>
	</g>
	<g>
		<g>
			<path class="st0" d="M503.9,28.3h-21.6c-4.5,0-8.1,3.6-8.1,8.1s3.6,8.1,8.1,8.1h21.6c4.5,0,8.1-3.6,8.1-8.1
				S508.4,28.3,503.9,28.3z"/>
		</g>
	</g>
	<g>
		<g>
			<path class="st0" d="M492.3,352.3c-10.6-14.1-30-18-45.2-8.9l-28.1,16.9l-80-80c2.2-5.6,3.4-11.6,3.5-17.8
				c0.2-13.8-5-26.8-14.8-36.6l-84.5-84.5h69.4v18.9c0,19.3,15.7,35,35,35s35-15.7,35-35V119c0-26.2-21.3-47.6-47.6-47.6H207.4
				c-26.4,0-51.2,10.3-69.9,29l-69.9,69.9c0,0,0,0,0,0c-1.8,1.5-2.9,3.7-2.9,6.2v88.9H35c-19.3,0-35,15.7-35,35s15.7,35,35,35h52.1
				c26.2,0,47.6-21.3,47.6-47.6v-38l66.7,66.7l-68.9,68.9c-9,9-13.9,20.9-13.9,33.6v53.7c0,6.9,2,13.4,5.5,18.9h-19
				c-4.5,0-8.1,3.6-8.1,8.1c0,4.5,3.6,8.1,8.1,8.1h129.3c4.5,0,8.1-3.6,8.1-8.1c0-4.5-3.6-8.1-8.1-8.1h-51.3
				c3.5-5.5,5.5-11.9,5.5-18.9v-45l97.6-91.5l94.3,85.7c9,8.2,20.4,12.4,32,12.4c7.9,0,15.9-2,23.1-6l45.9-25.5
				c8.7-4.8,14.9-13.2,16.9-22.9S498.2,360.3,492.3,352.3z M118.6,287.9c0,17.3-14.1,31.4-31.4,31.4H35c-10.4,0-18.9-8.5-18.9-18.9
				c0-10.4,8.5-18.9,18.9-18.9h37.7c4.5,0,8.1-3.6,8.1-8.1V196l37.7,37.7C118.6,233.7,118.6,287.9,118.6,287.9z M482.6,376.8
				c-1.1,5.2-4.4,9.6-9,12.1l-45.9,25.5c-11.8,6.5-26.4,4.9-36.4-4.2l-93.3-84.8l3.9-3.6c3-2.8,3.4-7.3,1-10.6c0,0-0.1-0.1-0.1-0.1
				c-2.8-3.9-8.4-4.4-11.9-1.1L175,418.5c-1.6,1.5-2.6,3.7-2.6,5.9v48c0,10.5-8.6,19.5-19.2,19.4c-10.3-0.2-18.5-8.6-18.5-18.9
				v-53.7c0-8.3,3.3-16.3,9.2-22.2l74.7-74.7c3.2-3.2,3.2-8.3,0-11.4l-86.2-86.2c0,0,0,0,0,0l-48.2-48.2l64.7-64.7
				c15.5-15.5,36.5-24.2,58.5-24.2h127.7c17.3,0,31.4,14.1,31.4,31.4v40.8c0,10.6-8.6,19.5-19.2,19.4c-10.3-0.2-18.5-8.6-18.5-18.9
				v-26.9c0-4.5-3.6-8.1-8.1-8.1h-96.8c-2.6,0-5.2,1.2-6.8,3.3c-2.4,3.3-1.9,7.7,0.8,10.5l97.8,97.8c6.7,6.7,10.6,15.6,10.6,25
				c-0.1,9.5-3.9,18.4-10.9,24.9l-1.3,1.2c-3,2.8-3.4,7.3-1,10.6c0,0,0.1,0.1,0.1,0.1c2.8,3.9,8.4,4.4,11.9,1.1l1.3-1.2
				c1.4-1.3,2.7-2.6,3.9-4.1l81.6,81.6c2.6,2.6,6.7,3.1,9.9,1.2l33.5-20.1c8-4.8,18.3-2.8,24,4.7
				C482.5,366.2,483.7,371.6,482.6,376.8z"/>
		</g>
	</g>
</g>
</svg>
