<svg xmlns="http://www.w3.org/2000/svg" xmlns:xlink="http://www.w3.org/1999/xlink" version="1.1" x="0px" y="0px" viewBox="0 0 100 125" enable-background="new 0 0 100 100" xml:space="preserve"><path fill="none" stroke="#000000" stroke-width="2" stroke-linecap="round" stroke-miterlimit="10" d="M87.447,37.169  c0,8.504-6.894,15.023-15.398,15.023l0,0c-8.503,0-15.397-6.519-15.397-15.023"/><path fill="none" stroke="#000000" stroke-width="2" stroke-linecap="round" stroke-linejoin="round" stroke-miterlimit="10" d="  M9.337,75.113v-6.32c0-7.239,3.79-13.593,9.491-17.187"/><g><circle cx="36.107" cy="39.337" r="2.026"/><circle cx="23.018" cy="39.337" r="2.025"/></g><path fill="none" stroke="#000000" stroke-width="2" stroke-linecap="round" stroke-miterlimit="10" d="M32.277,48.245  c-0.355,0.828-1.182,1.654-2.641,1.654s-2.365-0.827-2.64-1.654"/><path fill="none" stroke="#000000" stroke-width="2" stroke-linecap="round" stroke-linejoin="round" stroke-miterlimit="10" d="  M29.604,39.101c0,0-1.011,2.001-1.011,5.18h2.636"/><path fill="none" stroke="#000000" stroke-width="2" stroke-linecap="round" stroke-miterlimit="10" d="M48.319,50.896V34.681  c0-10.268-8.324-18.591-18.592-18.591l0,0c-10.267,0-18.589,8.323-18.589,18.591v18.276c0,0,0.646,5.129-4.576,5.129"/><path fill="none" stroke="#000000" stroke-width="2" stroke-linecap="round" stroke-linejoin="round" stroke-miterlimit="10" d="  M83,48.176c5.719,3.601,9.514,9.976,9.499,17.233l-0.012,9.704"/><g><circle cx="78.698" cy="34.462" r="2.025"/><circle cx="65.608" cy="34.462" r="2.025"/></g><path fill="none" stroke="#000000" stroke-width="2" stroke-linecap="round" stroke-miterlimit="10" d="M75.361,43.835  c-0.432,1.005-1.435,2.01-3.208,2.01c-1.772,0-2.875-1.005-3.209-2.01"/><path fill="none" stroke="#000000" stroke-width="2" stroke-linecap="round" stroke-linejoin="round" stroke-miterlimit="10" d="  M72.626,34.555c0,0-1.463,2.323-1.463,6.093h2.636"/><path fill="none" stroke="#000000" stroke-width="2" stroke-linecap="round" stroke-miterlimit="10" d="M90.643,30.562"/><path fill="none" stroke="#000000" stroke-width="2" stroke-linecap="round" stroke-miterlimit="10" d="M51.465,29.592"/><path fill="none" stroke="#000000" stroke-width="2" stroke-linecap="round" stroke-linejoin="round" stroke-miterlimit="10" d="  M51.52,29.775"/><path fill="none" stroke="#000000" stroke-width="2" stroke-linecap="round" stroke-linejoin="round" stroke-miterlimit="10" d="  M87.448,37.406L87.448,37.406c0,0-0.113-6.423,3.243-6.423l0,0"/><g><path fill="none" stroke="#000000" stroke-width="2" stroke-linecap="round" stroke-linejoin="round" stroke-miterlimit="10" d="   M52.213,33.088v4.194c0,1.564,1.269,2.832,2.833,2.832l0,0"/><line fill="none" stroke="#000000" stroke-width="2" stroke-linecap="round" stroke-linejoin="round" stroke-miterlimit="10" x1="56.314" y1="40.114" x2="55.045" y2="40.114"/></g><g><path fill="none" stroke="#000000" stroke-width="2" stroke-linecap="round" stroke-linejoin="round" stroke-miterlimit="10" d="   M91.548,33.088v4.194c0,1.564-1.269,2.832-2.833,2.832l0,0"/><line fill="none" stroke="#000000" stroke-width="2" stroke-linecap="round" stroke-linejoin="round" stroke-miterlimit="10" x1="88.715" y1="40.114" x2="87.447" y2="40.114"/></g><path fill="none" stroke="#000000" stroke-width="2" stroke-linecap="round" stroke-linejoin="round" stroke-miterlimit="10" d="  M44.878,33.914H31.825c-9.357,0-10.833-7.442-10.833-7.442s-6.664,2.399-6.664,10.498v3.811c0,8.436,6.839,15.276,15.276,15.276l0,0  c8.437,0,15.274-6.84,15.274-15.276V33.914"/><path fill="none" stroke="#000000" stroke-width="2" stroke-linecap="round" stroke-linejoin="round" stroke-miterlimit="10" d="  M90.691,30.983c1.103,0,1.024-1.376,1.024-1.376c0-10.882-8.821-19.703-19.702-19.703l0,0c-10.881,0-19.703,8.821-19.703,19.703  c0,0-0.098,1.631,1.148,1.613c3.191-0.045,3.192,5.949,3.192,5.949"/><path fill="none" stroke="#000000" stroke-width="2" stroke-linecap="round" stroke-linejoin="round" stroke-miterlimit="10" d="  M85.285,34.805v-5.132c-3.093,0.322-7.218-4.195-7.218-4.195c-5.587,5.668-19.138,4.064-19.138,4.064v5.263"/><path fill="none" stroke="#000000" stroke-width="2" stroke-linecap="round" stroke-linejoin="round" stroke-miterlimit="10" d="  M64.406,61.303"/><g><path fill="none" stroke="#000000" stroke-width="2" stroke-linecap="round" stroke-linejoin="round" stroke-miterlimit="10" d="   M61.233,77.027c4.632,2.902,7.711,8.051,7.711,13.92"/><path fill="none" stroke="#000000" stroke-width="2" stroke-linecap="round" stroke-linejoin="round" stroke-miterlimit="10" d="   M36.107,90.947c0-5.854,3.063-10.992,7.675-13.899"/><g><circle cx="56.493" cy="67.961" r="1.719"/><circle cx="48.631" cy="67.961" r="1.719"/></g><path fill="none" stroke="#000000" stroke-width="2" stroke-linecap="round" stroke-miterlimit="10" d="M54.804,73.888   c-0.302,0.702-1.004,1.404-2.242,1.404s-2.008-0.702-2.241-1.404"/><path fill="none" stroke="#000000" stroke-width="2" stroke-linecap="round" stroke-linejoin="round" stroke-miterlimit="10" d="   M40.143,68.294l-2.58-2.669c0-8.303,6.73-15.034,15.034-15.034l0,0c8.302,0,15.034,6.731,15.034,15.034l-2.782,2.669"/><path fill="none" stroke="#000000" stroke-width="2" stroke-linecap="round" stroke-linejoin="round" stroke-miterlimit="10" d="   M40.143,68.294L40.143,68.294c0,6.821,5.531,12.353,12.353,12.353l0,0c6.822,0,12.353-5.531,12.353-12.353l0,0"/><path fill="none" stroke="#000000" stroke-width="2" stroke-linecap="round" stroke-linejoin="round" stroke-miterlimit="10" d="   M64.848,62.741"/><path fill="none" stroke="#000000" stroke-width="2" stroke-linecap="round" stroke-miterlimit="10" d="M49.964,59.879   c0,0,0,4.403,4.402,4.403"/><g><path fill="none" stroke="#000000" stroke-width="2" stroke-linecap="round" stroke-linejoin="round" stroke-miterlimit="10" d="    M64.525,72.419c0,0,3.526,0.371,3.44-4.039"/><path fill="none" stroke="#000000" stroke-width="2" stroke-linecap="round" stroke-linejoin="round" stroke-miterlimit="10" d="    M40.599,72.419c0,0-3.526,0.371-3.441-4.039"/></g></g><path fill="none" stroke="#000000" stroke-width="2" stroke-linecap="round" stroke-miterlimit="10" d="M61.569,48.245  c0,0-2.977,1.614-3.356,3.435"/></svg>
